<ttFont>
    <TTGlyph name=".notdef" xMin="120" yMin="0" xMax="480" yMax="582">
      <contour>
        <pt x="170" y="536" on="1"/>
        <pt x="170" y="46" on="1"/>
        <pt x="430" y="46" on="1"/>
        <pt x="430" y="536" on="1"/>
      </contour>
      <contour>
        <pt x="120" y="0" on="1"/>
        <pt x="120" y="582" on="1"/>
        <pt x="480" y="582" on="1"/>
        <pt x="480" y="0" on="1"/>
      </contour>
    </TTGlyph>
    <TTGlyph name="A" xMin="26" yMin="0" xMax="522" yMax="643">
      <contour>
        <pt x="108" y="0" on="1"/>
        <pt x="36" y="0" on="1"/>
        <pt x="22" y="0" on="0"/>
        <pt x="26" y="17" on="1"/>
        <pt x="200" y="626" on="1"/>
        <pt x="205" y="643" on="0"/>
        <pt x="224" y="643" on="1"/>
        <pt x="324" y="643" on="1"/>
        <pt x="344" y="643" on="0"/>
        <pt x="348" y="626" on="1"/>
        <pt x="522" y="17" on="1"/>
        <pt x="526" y="0" on="0"/>
        <pt x="511" y="0" on="1"/>
        <pt x="440" y="0" on="1"/>
        <pt x="431" y="0" on="0"/>
        <pt x="424" y="7" on="0"/>
        <pt x="422" y="17" on="1"/>
        <pt x="384" y="147" on="1"/>
        <pt x="164" y="147" on="1"/>
        <pt x="126" y="17" on="1"/>
        <pt x="122" y="0" on="0"/>
      </contour>
      <contour>
        <pt x="272" y="547" on="1"/>
        <pt x="184" y="227" on="1"/>
        <pt x="365" y="227" on="1"/>
        <pt x="276" y="547" on="1"/>
      </contour>
    </TTGlyph>
    <TTGlyph name="AE" xMin="5" yMin="0" xMax="726" yMax="643">
      <contour>
        <pt x="86" y="0" on="1"/>
        <pt x="16" y="0" on="1"/>
        <pt x="-3" y="0" on="0"/>
        <pt x="5" y="18" on="1"/>
        <pt x="306" y="626" on="1"/>
        <pt x="314" y="643" on="0"/>
        <pt x="333" y="643" on="1"/>
        <pt x="709" y="643" on="1"/>
        <pt x="726" y="643" on="0"/>
        <pt x="726" y="626" on="1"/>
        <pt x="726" y="575" on="1"/>
        <pt x="726" y="558" on="0"/>
        <pt x="709" y="558" on="1"/>
        <pt x="481" y="558" on="1"/>
        <pt x="470" y="558" on="0"/>
        <pt x="470" y="548" on="1"/>
        <pt x="470" y="379" on="1"/>
        <pt x="470" y="369" on="0"/>
        <pt x="481" y="369" on="1"/>
        <pt x="674" y="369" on="1"/>
        <pt x="692" y="369" on="0"/>
        <pt x="692" y="352" on="1"/>
        <pt x="692" y="301" on="1"/>
        <pt x="692" y="284" on="0"/>
        <pt x="674" y="284" on="1"/>
        <pt x="481" y="284" on="1"/>
        <pt x="470" y="284" on="0"/>
        <pt x="470" y="274" on="1"/>
        <pt x="470" y="96" on="1"/>
        <pt x="470" y="85" on="0"/>
        <pt x="481" y="85" on="1"/>
        <pt x="709" y="85" on="1"/>
        <pt x="726" y="85" on="0"/>
        <pt x="726" y="68" on="1"/>
        <pt x="726" y="17" on="1"/>
        <pt x="726" y="0" on="0"/>
        <pt x="709" y="0" on="1"/>
        <pt x="389" y="0" on="1"/>
        <pt x="372" y="0" on="0"/>
        <pt x="372" y="17" on="1"/>
        <pt x="372" y="147" on="1"/>
        <pt x="174" y="147" on="1"/>
        <pt x="108" y="17" on="1"/>
        <pt x="101" y="0" on="0"/>
      </contour>
      <contour>
        <pt x="372" y="234" on="1"/>
        <pt x="372" y="548" on="1"/>
        <pt x="368" y="548" on="1"/>
        <pt x="212" y="234" on="1"/>
      </contour>
    </TTGlyph>
    <TTGlyph name="AEacute" xMin="5" yMin="0" xMax="726" yMax="836">
      <contour>
        <pt x="486" y="836" on="1"/>
        <pt x="565" y="836" on="1"/>
        <pt x="573" y="836" on="0"/>
        <pt x="578" y="826" on="0"/>
        <pt x="573" y="819" on="1"/>
        <pt x="489" y="719" on="1"/>
        <pt x="480" y="707" on="0"/>
        <pt x="466" y="707" on="1"/>
        <pt x="418" y="707" on="1"/>
        <pt x="402" y="707" on="0"/>
        <pt x="410" y="724" on="1"/>
        <pt x="462" y="820" on="1"/>
        <pt x="469" y="836" on="0"/>
      </contour>
      <contour>
        <pt x="86" y="0" on="1"/>
        <pt x="16" y="0" on="1"/>
        <pt x="-3" y="0" on="0"/>
        <pt x="5" y="18" on="1"/>
        <pt x="306" y="626" on="1"/>
        <pt x="314" y="643" on="0"/>
        <pt x="333" y="643" on="1"/>
        <pt x="709" y="643" on="1"/>
        <pt x="726" y="643" on="0"/>
        <pt x="726" y="626" on="1"/>
        <pt x="726" y="575" on="1"/>
        <pt x="726" y="558" on="0"/>
        <pt x="709" y="558" on="1"/>
        <pt x="481" y="558" on="1"/>
        <pt x="470" y="558" on="0"/>
        <pt x="470" y="548" on="1"/>
        <pt x="470" y="379" on="1"/>
        <pt x="470" y="369" on="0"/>
        <pt x="481" y="369" on="1"/>
        <pt x="674" y="369" on="1"/>
        <pt x="692" y="369" on="0"/>
        <pt x="692" y="352" on="1"/>
        <pt x="692" y="301" on="1"/>
        <pt x="692" y="284" on="0"/>
        <pt x="674" y="284" on="1"/>
        <pt x="481" y="284" on="1"/>
        <pt x="470" y="284" on="0"/>
        <pt x="470" y="274" on="1"/>
        <pt x="470" y="96" on="1"/>
        <pt x="470" y="85" on="0"/>
        <pt x="481" y="85" on="1"/>
        <pt x="709" y="85" on="1"/>
        <pt x="726" y="85" on="0"/>
        <pt x="726" y="68" on="1"/>
        <pt x="726" y="17" on="1"/>
        <pt x="726" y="0" on="0"/>
        <pt x="709" y="0" on="1"/>
        <pt x="389" y="0" on="1"/>
        <pt x="372" y="0" on="0"/>
        <pt x="372" y="17" on="1"/>
        <pt x="372" y="147" on="1"/>
        <pt x="174" y="147" on="1"/>
        <pt x="108" y="17" on="1"/>
        <pt x="101" y="0" on="0"/>
      </contour>
      <contour>
        <pt x="372" y="234" on="1"/>
        <pt x="372" y="548" on="1"/>
        <pt x="368" y="548" on="1"/>
        <pt x="212" y="234" on="1"/>
      </contour>
    </TTGlyph>
    <TTGlyph name="Aacute" xMin="26" yMin="0" xMax="522" yMax="836">
      <contour>
        <pt x="318" y="836" on="1"/>
        <pt x="396" y="836" on="1"/>
        <pt x="405" y="836" on="0"/>
        <pt x="410" y="826" on="0"/>
        <pt x="405" y="819" on="1"/>
        <pt x="320" y="719" on="1"/>
        <pt x="311" y="707" on="0"/>
        <pt x="298" y="707" on="1"/>
        <pt x="249" y="707" on="1"/>
        <pt x="234" y="707" on="0"/>
        <pt x="241" y="724" on="1"/>
        <pt x="293" y="820" on="1"/>
        <pt x="301" y="836" on="0"/>
      </contour>
      <contour>
        <pt x="108" y="0" on="1"/>
        <pt x="36" y="0" on="1"/>
        <pt x="22" y="0" on="0"/>
        <pt x="26" y="17" on="1"/>
        <pt x="200" y="626" on="1"/>
        <pt x="205" y="643" on="0"/>
        <pt x="224" y="643" on="1"/>
        <pt x="324" y="643" on="1"/>
        <pt x="344" y="643" on="0"/>
        <pt x="348" y="626" on="1"/>
        <pt x="522" y="17" on="1"/>
        <pt x="526" y="0" on="0"/>
        <pt x="511" y="0" on="1"/>
        <pt x="440" y="0" on="1"/>
        <pt x="431" y="0" on="0"/>
        <pt x="424" y="7" on="0"/>
        <pt x="422" y="17" on="1"/>
        <pt x="384" y="147" on="1"/>
        <pt x="164" y="147" on="1"/>
        <pt x="126" y="17" on="1"/>
        <pt x="122" y="0" on="0"/>
      </contour>
      <contour>
        <pt x="272" y="547" on="1"/>
        <pt x="184" y="227" on="1"/>
        <pt x="365" y="227" on="1"/>
        <pt x="276" y="547" on="1"/>
      </contour>
    </TTGlyph>
    <TTGlyph name="Abreve" xMin="26" yMin="0" xMax="522" yMax="836">
      <contour>
        <pt x="164" y="824" on="1"/>
        <pt x="164" y="836" on="0"/>
        <pt x="176" y="836" on="1"/>
        <pt x="214" y="836" on="1"/>
        <pt x="226" y="836" on="0"/>
        <pt x="226" y="824" on="1"/>
        <pt x="226" y="814" on="1"/>
        <pt x="226" y="783" on="0"/>
        <pt x="247" y="758" on="0"/>
        <pt x="271" y="758" on="1"/>
        <pt x="277" y="758" on="1"/>
        <pt x="301" y="758" on="0"/>
        <pt x="322" y="784" on="0"/>
        <pt x="322" y="814" on="1"/>
        <pt x="322" y="824" on="1"/>
        <pt x="322" y="836" on="0"/>
        <pt x="334" y="836" on="1"/>
        <pt x="371" y="836" on="1"/>
        <pt x="383" y="836" on="0"/>
        <pt x="383" y="824" on="1"/>
        <pt x="383" y="813" on="1"/>
        <pt x="383" y="707" on="0"/>
        <pt x="286" y="707" on="1"/>
        <pt x="261" y="707" on="1"/>
        <pt x="164" y="707" on="0"/>
        <pt x="164" y="813" on="1"/>
      </contour>
      <contour>
        <pt x="108" y="0" on="1"/>
        <pt x="36" y="0" on="1"/>
        <pt x="22" y="0" on="0"/>
        <pt x="26" y="17" on="1"/>
        <pt x="200" y="626" on="1"/>
        <pt x="205" y="643" on="0"/>
        <pt x="224" y="643" on="1"/>
        <pt x="324" y="643" on="1"/>
        <pt x="344" y="643" on="0"/>
        <pt x="348" y="626" on="1"/>
        <pt x="522" y="17" on="1"/>
        <pt x="526" y="0" on="0"/>
        <pt x="511" y="0" on="1"/>
        <pt x="440" y="0" on="1"/>
        <pt x="431" y="0" on="0"/>
        <pt x="424" y="7" on="0"/>
        <pt x="422" y="17" on="1"/>
        <pt x="384" y="147" on="1"/>
        <pt x="164" y="147" on="1"/>
        <pt x="126" y="17" on="1"/>
        <pt x="122" y="0" on="0"/>
      </contour>
      <contour>
        <pt x="272" y="547" on="1"/>
        <pt x="184" y="227" on="1"/>
        <pt x="365" y="227" on="1"/>
        <pt x="276" y="547" on="1"/>
      </contour>
    </TTGlyph>
    <TTGlyph name="Acircumflex" xMin="26" yMin="0" xMax="522" yMax="836">
      <contour>
        <pt x="376" y="707" on="1"/>
        <pt x="330" y="707" on="1"/>
        <pt x="319" y="707" on="0"/>
        <pt x="314" y="717" on="1"/>
        <pt x="274" y="795" on="1"/>
        <pt x="233" y="717" on="1"/>
        <pt x="230" y="707" on="0"/>
        <pt x="218" y="707" on="1"/>
        <pt x="173" y="707" on="1"/>
        <pt x="158" y="707" on="0"/>
        <pt x="166" y="719" on="1"/>
        <pt x="229" y="826" on="1"/>
        <pt x="236" y="836" on="0"/>
        <pt x="250" y="836" on="1"/>
        <pt x="298" y="836" on="1"/>
        <pt x="312" y="836" on="0"/>
        <pt x="319" y="826" on="1"/>
        <pt x="383" y="719" on="1"/>
        <pt x="391" y="707" on="0"/>
      </contour>
      <contour>
        <pt x="108" y="0" on="1"/>
        <pt x="36" y="0" on="1"/>
        <pt x="22" y="0" on="0"/>
        <pt x="26" y="17" on="1"/>
        <pt x="200" y="626" on="1"/>
        <pt x="205" y="643" on="0"/>
        <pt x="224" y="643" on="1"/>
        <pt x="324" y="643" on="1"/>
        <pt x="344" y="643" on="0"/>
        <pt x="348" y="626" on="1"/>
        <pt x="522" y="17" on="1"/>
        <pt x="526" y="0" on="0"/>
        <pt x="511" y="0" on="1"/>
        <pt x="440" y="0" on="1"/>
        <pt x="431" y="0" on="0"/>
        <pt x="424" y="7" on="0"/>
        <pt x="422" y="17" on="1"/>
        <pt x="384" y="147" on="1"/>
        <pt x="164" y="147" on="1"/>
        <pt x="126" y="17" on="1"/>
        <pt x="122" y="0" on="0"/>
      </contour>
      <contour>
        <pt x="272" y="547" on="1"/>
        <pt x="184" y="227" on="1"/>
        <pt x="365" y="227" on="1"/>
        <pt x="276" y="547" on="1"/>
      </contour>
    </TTGlyph>
    <TTGlyph name="Adieresis" xMin="26" yMin="0" xMax="522" yMax="836">
      <contour>
        <pt x="138" y="724" on="1"/>
        <pt x="138" y="819" on="1"/>
        <pt x="138" y="836" on="0"/>
        <pt x="154" y="836" on="1"/>
        <pt x="214" y="836" on="1"/>
        <pt x="229" y="836" on="0"/>
        <pt x="229" y="820" on="1"/>
        <pt x="229" y="724" on="1"/>
        <pt x="229" y="707" on="0"/>
        <pt x="214" y="707" on="1"/>
        <pt x="154" y="707" on="1"/>
        <pt x="138" y="707" on="0"/>
      </contour>
      <contour>
        <pt x="318" y="724" on="1"/>
        <pt x="318" y="819" on="1"/>
        <pt x="318" y="836" on="0"/>
        <pt x="333" y="836" on="1"/>
        <pt x="394" y="836" on="1"/>
        <pt x="409" y="836" on="0"/>
        <pt x="409" y="820" on="1"/>
        <pt x="409" y="724" on="1"/>
        <pt x="409" y="707" on="0"/>
        <pt x="394" y="707" on="1"/>
        <pt x="333" y="707" on="1"/>
        <pt x="318" y="707" on="0"/>
      </contour>
      <contour>
        <pt x="108" y="0" on="1"/>
        <pt x="36" y="0" on="1"/>
        <pt x="22" y="0" on="0"/>
        <pt x="26" y="17" on="1"/>
        <pt x="200" y="626" on="1"/>
        <pt x="205" y="643" on="0"/>
        <pt x="224" y="643" on="1"/>
        <pt x="324" y="643" on="1"/>
        <pt x="344" y="643" on="0"/>
        <pt x="348" y="626" on="1"/>
        <pt x="522" y="17" on="1"/>
        <pt x="526" y="0" on="0"/>
        <pt x="511" y="0" on="1"/>
        <pt x="440" y="0" on="1"/>
        <pt x="431" y="0" on="0"/>
        <pt x="424" y="7" on="0"/>
        <pt x="422" y="17" on="1"/>
        <pt x="384" y="147" on="1"/>
        <pt x="164" y="147" on="1"/>
        <pt x="126" y="17" on="1"/>
        <pt x="122" y="0" on="0"/>
      </contour>
      <contour>
        <pt x="272" y="547" on="1"/>
        <pt x="184" y="227" on="1"/>
        <pt x="365" y="227" on="1"/>
        <pt x="276" y="547" on="1"/>
      </contour>
    </TTGlyph>
    <TTGlyph name="Agrave" xMin="26" yMin="0" xMax="522" yMax="836">
      <contour>
        <pt x="295" y="707" on="1"/>
        <pt x="247" y="707" on="1"/>
        <pt x="233" y="707" on="0"/>
        <pt x="224" y="719" on="1"/>
        <pt x="140" y="819" on="1"/>
        <pt x="134" y="826" on="0"/>
        <pt x="139" y="836" on="0"/>
        <pt x="148" y="836" on="1"/>
        <pt x="226" y="836" on="1"/>
        <pt x="243" y="836" on="0"/>
        <pt x="251" y="820" on="1"/>
        <pt x="303" y="724" on="1"/>
        <pt x="312" y="707" on="0"/>
      </contour>
      <contour>
        <pt x="108" y="0" on="1"/>
        <pt x="36" y="0" on="1"/>
        <pt x="22" y="0" on="0"/>
        <pt x="26" y="17" on="1"/>
        <pt x="200" y="626" on="1"/>
        <pt x="205" y="643" on="0"/>
        <pt x="224" y="643" on="1"/>
        <pt x="324" y="643" on="1"/>
        <pt x="344" y="643" on="0"/>
        <pt x="348" y="626" on="1"/>
        <pt x="522" y="17" on="1"/>
        <pt x="526" y="0" on="0"/>
        <pt x="511" y="0" on="1"/>
        <pt x="440" y="0" on="1"/>
        <pt x="431" y="0" on="0"/>
        <pt x="424" y="7" on="0"/>
        <pt x="422" y="17" on="1"/>
        <pt x="384" y="147" on="1"/>
        <pt x="164" y="147" on="1"/>
        <pt x="126" y="17" on="1"/>
        <pt x="122" y="0" on="0"/>
      </contour>
      <contour>
        <pt x="272" y="547" on="1"/>
        <pt x="184" y="227" on="1"/>
        <pt x="365" y="227" on="1"/>
        <pt x="276" y="547" on="1"/>
      </contour>
    </TTGlyph>
    <TTGlyph name="Amacron" xMin="26" yMin="0" xMax="522" yMax="809">
      <contour>
        <pt x="373" y="740" on="1"/>
        <pt x="174" y="740" on="1"/>
        <pt x="157" y="740" on="0"/>
        <pt x="157" y="757" on="1"/>
        <pt x="157" y="792" on="1"/>
        <pt x="157" y="809" on="0"/>
        <pt x="174" y="809" on="1"/>
        <pt x="373" y="809" on="1"/>
        <pt x="390" y="809" on="0"/>
        <pt x="390" y="792" on="1"/>
        <pt x="390" y="757" on="1"/>
        <pt x="390" y="740" on="0"/>
      </contour>
      <contour>
        <pt x="108" y="0" on="1"/>
        <pt x="36" y="0" on="1"/>
        <pt x="22" y="0" on="0"/>
        <pt x="26" y="17" on="1"/>
        <pt x="200" y="626" on="1"/>
        <pt x="205" y="643" on="0"/>
        <pt x="224" y="643" on="1"/>
        <pt x="324" y="643" on="1"/>
        <pt x="344" y="643" on="0"/>
        <pt x="348" y="626" on="1"/>
        <pt x="522" y="17" on="1"/>
        <pt x="526" y="0" on="0"/>
        <pt x="511" y="0" on="1"/>
        <pt x="440" y="0" on="1"/>
        <pt x="431" y="0" on="0"/>
        <pt x="424" y="7" on="0"/>
        <pt x="422" y="17" on="1"/>
        <pt x="384" y="147" on="1"/>
        <pt x="164" y="147" on="1"/>
        <pt x="126" y="17" on="1"/>
        <pt x="122" y="0" on="0"/>
      </contour>
      <contour>
        <pt x="272" y="547" on="1"/>
        <pt x="184" y="227" on="1"/>
        <pt x="365" y="227" on="1"/>
        <pt x="276" y="547" on="1"/>
      </contour>
    </TTGlyph>
    <TTGlyph name="Aogonek" xMin="26" yMin="-116" xMax="522" yMax="643">
      <contour>
        <pt x="511" y="0" on="1"/>
        <pt x="459" y="0" on="1"/>
        <pt x="417" y="-62" on="1"/>
        <pt x="457" y="-62" on="1"/>
        <pt x="471" y="-62" on="0"/>
        <pt x="481" y="-69" on="0"/>
        <pt x="481" y="-79" on="1"/>
        <pt x="481" y="-96" on="0"/>
        <pt x="424" y="-116" on="0"/>
        <pt x="367" y="-116" on="0"/>
        <pt x="351" y="-85" on="0"/>
        <pt x="364" y="-67" on="1"/>
        <pt x="421" y="19" on="1"/>
        <pt x="384" y="147" on="1"/>
        <pt x="164" y="147" on="1"/>
        <pt x="126" y="17" on="1"/>
        <pt x="122" y="0" on="0"/>
        <pt x="108" y="0" on="1"/>
        <pt x="36" y="0" on="1"/>
        <pt x="22" y="0" on="0"/>
        <pt x="26" y="17" on="1"/>
        <pt x="200" y="626" on="1"/>
        <pt x="205" y="643" on="0"/>
        <pt x="224" y="643" on="1"/>
        <pt x="324" y="643" on="1"/>
        <pt x="344" y="643" on="0"/>
        <pt x="348" y="626" on="1"/>
        <pt x="522" y="17" on="1"/>
        <pt x="526" y="0" on="0"/>
      </contour>
      <contour>
        <pt x="184" y="227" on="1"/>
        <pt x="365" y="227" on="1"/>
        <pt x="276" y="547" on="1"/>
        <pt x="272" y="547" on="1"/>
      </contour>
    </TTGlyph>
    <TTGlyph name="Aring" xMin="26" yMin="0" xMax="522" yMax="873">
      <contour>
        <pt x="294" y="700" on="1"/>
        <pt x="251" y="700" on="1"/>
        <pt x="191" y="700" on="0"/>
        <pt x="191" y="762" on="1"/>
        <pt x="191" y="813" on="1"/>
        <pt x="191" y="873" on="0"/>
        <pt x="251" y="873" on="1"/>
        <pt x="294" y="873" on="1"/>
        <pt x="323" y="873" on="0"/>
        <pt x="356" y="841" on="0"/>
        <pt x="356" y="813" on="1"/>
        <pt x="356" y="762" on="1"/>
        <pt x="356" y="732" on="0"/>
        <pt x="323" y="700" on="0"/>
      </contour>
      <contour>
        <pt x="265" y="740" on="1"/>
        <pt x="279" y="740" on="1"/>
        <pt x="297" y="740" on="0"/>
        <pt x="311" y="756" on="0"/>
        <pt x="311" y="774" on="1"/>
        <pt x="311" y="798" on="1"/>
        <pt x="311" y="817" on="0"/>
        <pt x="297" y="833" on="0"/>
        <pt x="280" y="833" on="1"/>
        <pt x="266" y="833" on="1"/>
        <pt x="233" y="833" on="0"/>
        <pt x="233" y="798" on="1"/>
        <pt x="233" y="774" on="1"/>
        <pt x="233" y="740" on="0"/>
      </contour>
      <contour>
        <pt x="108" y="0" on="1"/>
        <pt x="36" y="0" on="1"/>
        <pt x="22" y="0" on="0"/>
        <pt x="26" y="17" on="1"/>
        <pt x="200" y="626" on="1"/>
        <pt x="205" y="643" on="0"/>
        <pt x="224" y="643" on="1"/>
        <pt x="324" y="643" on="1"/>
        <pt x="344" y="643" on="0"/>
        <pt x="348" y="626" on="1"/>
        <pt x="522" y="17" on="1"/>
        <pt x="526" y="0" on="0"/>
        <pt x="511" y="0" on="1"/>
        <pt x="440" y="0" on="1"/>
        <pt x="431" y="0" on="0"/>
        <pt x="424" y="7" on="0"/>
        <pt x="422" y="17" on="1"/>
        <pt x="384" y="147" on="1"/>
        <pt x="164" y="147" on="1"/>
        <pt x="126" y="17" on="1"/>
        <pt x="122" y="0" on="0"/>
      </contour>
      <contour>
        <pt x="272" y="547" on="1"/>
        <pt x="184" y="227" on="1"/>
        <pt x="365" y="227" on="1"/>
        <pt x="276" y="547" on="1"/>
      </contour>
    </TTGlyph>
    <TTGlyph name="Atilde" xMin="26" yMin="0" xMax="522" yMax="832">
      <contour>
        <pt x="227" y="702" on="1"/>
        <pt x="159" y="702" on="0"/>
        <pt x="159" y="779" on="1"/>
        <pt x="159" y="818" on="1"/>
        <pt x="159" y="828" on="0"/>
        <pt x="169" y="828" on="1"/>
        <pt x="199" y="828" on="1"/>
        <pt x="209" y="828" on="0"/>
        <pt x="209" y="818" on="1"/>
        <pt x="209" y="798" on="1"/>
        <pt x="209" y="773" on="0"/>
        <pt x="218" y="755" on="0"/>
        <pt x="237" y="755" on="0"/>
        <pt x="249" y="769" on="0"/>
        <pt x="263" y="794" on="1"/>
        <pt x="285" y="832" on="0"/>
        <pt x="322" y="832" on="1"/>
        <pt x="389" y="832" on="0"/>
        <pt x="389" y="755" on="1"/>
        <pt x="389" y="717" on="1"/>
        <pt x="389" y="705" on="0"/>
        <pt x="380" y="705" on="1"/>
        <pt x="350" y="705" on="1"/>
        <pt x="340" y="705" on="0"/>
        <pt x="340" y="717" on="1"/>
        <pt x="340" y="736" on="1"/>
        <pt x="340" y="762" on="0"/>
        <pt x="332" y="779" on="0"/>
        <pt x="311" y="779" on="0"/>
        <pt x="302" y="769" on="0"/>
        <pt x="291" y="751" on="0"/>
        <pt x="289" y="748" on="0"/>
        <pt x="282" y="734" on="1"/>
        <pt x="264" y="702" on="0"/>
      </contour>
      <contour>
        <pt x="108" y="0" on="1"/>
        <pt x="36" y="0" on="1"/>
        <pt x="22" y="0" on="0"/>
        <pt x="26" y="17" on="1"/>
        <pt x="200" y="626" on="1"/>
        <pt x="205" y="643" on="0"/>
        <pt x="224" y="643" on="1"/>
        <pt x="324" y="643" on="1"/>
        <pt x="344" y="643" on="0"/>
        <pt x="348" y="626" on="1"/>
        <pt x="522" y="17" on="1"/>
        <pt x="526" y="0" on="0"/>
        <pt x="511" y="0" on="1"/>
        <pt x="440" y="0" on="1"/>
        <pt x="431" y="0" on="0"/>
        <pt x="424" y="7" on="0"/>
        <pt x="422" y="17" on="1"/>
        <pt x="384" y="147" on="1"/>
        <pt x="164" y="147" on="1"/>
        <pt x="126" y="17" on="1"/>
        <pt x="122" y="0" on="0"/>
      </contour>
      <contour>
        <pt x="272" y="547" on="1"/>
        <pt x="184" y="227" on="1"/>
        <pt x="365" y="227" on="1"/>
        <pt x="276" y="547" on="1"/>
      </contour>
    </TTGlyph>
    <TTGlyph name="B" xMin="73" yMin="0" xMax="491" yMax="643">
      <contour>
        <pt x="181" y="83" on="1"/>
        <pt x="321" y="83" on="1"/>
        <pt x="396" y="83" on="0"/>
        <pt x="396" y="155" on="1"/>
        <pt x="396" y="217" on="1"/>
        <pt x="396" y="289" on="0"/>
        <pt x="317" y="289" on="1"/>
        <pt x="181" y="289" on="1"/>
        <pt x="170" y="289" on="0"/>
        <pt x="170" y="279" on="1"/>
        <pt x="170" y="93" on="1"/>
        <pt x="170" y="83" on="0"/>
      </contour>
      <contour>
        <pt x="181" y="369" on="1"/>
        <pt x="311" y="369" on="1"/>
        <pt x="387" y="369" on="0"/>
        <pt x="387" y="442" on="1"/>
        <pt x="387" y="488" on="1"/>
        <pt x="387" y="560" on="0"/>
        <pt x="313" y="560" on="1"/>
        <pt x="181" y="560" on="1"/>
        <pt x="170" y="560" on="0"/>
        <pt x="170" y="550" on="1"/>
        <pt x="170" y="379" on="1"/>
        <pt x="170" y="369" on="0"/>
      </contour>
      <contour>
        <pt x="73" y="17" on="1"/>
        <pt x="73" y="626" on="1"/>
        <pt x="73" y="643" on="0"/>
        <pt x="90" y="643" on="1"/>
        <pt x="327" y="643" on="1"/>
        <pt x="401" y="643" on="0"/>
        <pt x="483" y="563" on="0"/>
        <pt x="483" y="490" on="1"/>
        <pt x="483" y="441" on="1"/>
        <pt x="483" y="354" on="0"/>
        <pt x="401" y="329" on="1"/>
        <pt x="440" y="324" on="0"/>
        <pt x="491" y="266" on="0"/>
        <pt x="491" y="217" on="1"/>
        <pt x="491" y="153" on="1"/>
        <pt x="491" y="80" on="0"/>
        <pt x="409" y="0" on="0"/>
        <pt x="336" y="0" on="1"/>
        <pt x="90" y="0" on="1"/>
        <pt x="73" y="0" on="0"/>
      </contour>
    </TTGlyph>
    <TTGlyph name="C" xMin="63" yMin="0" xMax="489" yMax="643">
      <contour>
        <pt x="334" y="0" on="1"/>
        <pt x="218" y="0" on="1"/>
        <pt x="144" y="0" on="0"/>
        <pt x="63" y="82" on="0"/>
        <pt x="63" y="155" on="1"/>
        <pt x="63" y="488" on="1"/>
        <pt x="63" y="562" on="0"/>
        <pt x="144" y="643" on="0"/>
        <pt x="218" y="643" on="1"/>
        <pt x="334" y="643" on="1"/>
        <pt x="407" y="643" on="0"/>
        <pt x="489" y="562" on="0"/>
        <pt x="489" y="488" on="1"/>
        <pt x="489" y="440" on="1"/>
        <pt x="489" y="422" on="0"/>
        <pt x="471" y="422" on="1"/>
        <pt x="408" y="422" on="1"/>
        <pt x="391" y="422" on="0"/>
        <pt x="391" y="440" on="1"/>
        <pt x="391" y="484" on="1"/>
        <pt x="391" y="558" on="0"/>
        <pt x="319" y="558" on="1"/>
        <pt x="232" y="558" on="1"/>
        <pt x="160" y="558" on="0"/>
        <pt x="160" y="484" on="1"/>
        <pt x="160" y="159" on="1"/>
        <pt x="160" y="85" on="0"/>
        <pt x="232" y="85" on="1"/>
        <pt x="319" y="85" on="1"/>
        <pt x="391" y="85" on="0"/>
        <pt x="391" y="159" on="1"/>
        <pt x="391" y="203" on="1"/>
        <pt x="391" y="221" on="0"/>
        <pt x="408" y="221" on="1"/>
        <pt x="471" y="221" on="1"/>
        <pt x="489" y="221" on="0"/>
        <pt x="489" y="203" on="1"/>
        <pt x="489" y="155" on="1"/>
        <pt x="489" y="82" on="0"/>
        <pt x="407" y="0" on="0"/>
      </contour>
    </TTGlyph>
    <TTGlyph name="Cacute" xMin="63" yMin="0" xMax="489" yMax="836">
      <contour>
        <pt x="334" y="0" on="1"/>
        <pt x="218" y="0" on="1"/>
        <pt x="144" y="0" on="0"/>
        <pt x="63" y="82" on="0"/>
        <pt x="63" y="155" on="1"/>
        <pt x="63" y="488" on="1"/>
        <pt x="63" y="562" on="0"/>
        <pt x="144" y="643" on="0"/>
        <pt x="218" y="643" on="1"/>
        <pt x="334" y="643" on="1"/>
        <pt x="407" y="643" on="0"/>
        <pt x="489" y="562" on="0"/>
        <pt x="489" y="488" on="1"/>
        <pt x="489" y="440" on="1"/>
        <pt x="489" y="422" on="0"/>
        <pt x="471" y="422" on="1"/>
        <pt x="408" y="422" on="1"/>
        <pt x="391" y="422" on="0"/>
        <pt x="391" y="440" on="1"/>
        <pt x="391" y="484" on="1"/>
        <pt x="391" y="558" on="0"/>
        <pt x="319" y="558" on="1"/>
        <pt x="232" y="558" on="1"/>
        <pt x="160" y="558" on="0"/>
        <pt x="160" y="484" on="1"/>
        <pt x="160" y="159" on="1"/>
        <pt x="160" y="85" on="0"/>
        <pt x="232" y="85" on="1"/>
        <pt x="319" y="85" on="1"/>
        <pt x="391" y="85" on="0"/>
        <pt x="391" y="159" on="1"/>
        <pt x="391" y="203" on="1"/>
        <pt x="391" y="221" on="0"/>
        <pt x="408" y="221" on="1"/>
        <pt x="471" y="221" on="1"/>
        <pt x="489" y="221" on="0"/>
        <pt x="489" y="203" on="1"/>
        <pt x="489" y="155" on="1"/>
        <pt x="489" y="82" on="0"/>
        <pt x="407" y="0" on="0"/>
      </contour>
      <contour>
        <pt x="308" y="836" on="1"/>
        <pt x="386" y="836" on="1"/>
        <pt x="395" y="836" on="0"/>
        <pt x="400" y="826" on="0"/>
        <pt x="394" y="819" on="1"/>
        <pt x="310" y="719" on="1"/>
        <pt x="301" y="707" on="0"/>
        <pt x="287" y="707" on="1"/>
        <pt x="239" y="707" on="1"/>
        <pt x="223" y="707" on="0"/>
        <pt x="230" y="724" on="1"/>
        <pt x="282" y="820" on="1"/>
        <pt x="290" y="836" on="0"/>
      </contour>
    </TTGlyph>
    <TTGlyph name="Ccaron" xMin="63" yMin="0" xMax="489" yMax="836">
      <contour>
        <pt x="334" y="0" on="1"/>
        <pt x="218" y="0" on="1"/>
        <pt x="144" y="0" on="0"/>
        <pt x="63" y="82" on="0"/>
        <pt x="63" y="155" on="1"/>
        <pt x="63" y="488" on="1"/>
        <pt x="63" y="562" on="0"/>
        <pt x="144" y="643" on="0"/>
        <pt x="218" y="643" on="1"/>
        <pt x="334" y="643" on="1"/>
        <pt x="407" y="643" on="0"/>
        <pt x="489" y="562" on="0"/>
        <pt x="489" y="488" on="1"/>
        <pt x="489" y="440" on="1"/>
        <pt x="489" y="422" on="0"/>
        <pt x="471" y="422" on="1"/>
        <pt x="408" y="422" on="1"/>
        <pt x="391" y="422" on="0"/>
        <pt x="391" y="440" on="1"/>
        <pt x="391" y="484" on="1"/>
        <pt x="391" y="558" on="0"/>
        <pt x="319" y="558" on="1"/>
        <pt x="232" y="558" on="1"/>
        <pt x="160" y="558" on="0"/>
        <pt x="160" y="484" on="1"/>
        <pt x="160" y="159" on="1"/>
        <pt x="160" y="85" on="0"/>
        <pt x="232" y="85" on="1"/>
        <pt x="319" y="85" on="1"/>
        <pt x="391" y="85" on="0"/>
        <pt x="391" y="159" on="1"/>
        <pt x="391" y="203" on="1"/>
        <pt x="391" y="221" on="0"/>
        <pt x="408" y="221" on="1"/>
        <pt x="471" y="221" on="1"/>
        <pt x="489" y="221" on="0"/>
        <pt x="489" y="203" on="1"/>
        <pt x="489" y="155" on="1"/>
        <pt x="489" y="82" on="0"/>
        <pt x="407" y="0" on="0"/>
      </contour>
      <contour>
        <pt x="302" y="707" on="1"/>
        <pt x="254" y="707" on="1"/>
        <pt x="240" y="707" on="0"/>
        <pt x="233" y="717" on="1"/>
        <pt x="170" y="824" on="1"/>
        <pt x="162" y="836" on="0"/>
        <pt x="177" y="836" on="1"/>
        <pt x="222" y="836" on="1"/>
        <pt x="234" y="836" on="0"/>
        <pt x="238" y="826" on="1"/>
        <pt x="278" y="748" on="1"/>
        <pt x="318" y="826" on="1"/>
        <pt x="323" y="836" on="0"/>
        <pt x="334" y="836" on="1"/>
        <pt x="381" y="836" on="1"/>
        <pt x="387" y="836" on="0"/>
        <pt x="390" y="828" on="0"/>
        <pt x="387" y="824" on="1"/>
        <pt x="324" y="717" on="1"/>
        <pt x="317" y="707" on="0"/>
      </contour>
    </TTGlyph>
    <TTGlyph name="Ccedilla" xMin="63" yMin="-200" xMax="489" yMax="643">
      <contour>
        <pt x="471" y="422" on="1"/>
        <pt x="408" y="422" on="1"/>
        <pt x="391" y="422" on="0"/>
        <pt x="391" y="440" on="1"/>
        <pt x="391" y="484" on="1"/>
        <pt x="391" y="558" on="0"/>
        <pt x="319" y="558" on="1"/>
        <pt x="232" y="558" on="1"/>
        <pt x="160" y="558" on="0"/>
        <pt x="160" y="484" on="1"/>
        <pt x="160" y="159" on="1"/>
        <pt x="160" y="85" on="0"/>
        <pt x="232" y="85" on="1"/>
        <pt x="319" y="85" on="1"/>
        <pt x="391" y="85" on="0"/>
        <pt x="391" y="159" on="1"/>
        <pt x="391" y="203" on="1"/>
        <pt x="391" y="221" on="0"/>
        <pt x="408" y="221" on="1"/>
        <pt x="471" y="221" on="1"/>
        <pt x="489" y="221" on="0"/>
        <pt x="489" y="203" on="1"/>
        <pt x="489" y="155" on="1"/>
        <pt x="489" y="82" on="0"/>
        <pt x="407" y="0" on="0"/>
        <pt x="334" y="0" on="1"/>
        <pt x="325" y="0" on="1"/>
        <pt x="283" y="-44" on="1"/>
        <pt x="283" y="-48" on="1"/>
        <pt x="359" y="-48" on="0"/>
        <pt x="359" y="-117" on="1"/>
        <pt x="359" y="-133" on="1"/>
        <pt x="359" y="-200" on="0"/>
        <pt x="269" y="-200" on="1"/>
        <pt x="231" y="-200" on="1"/>
        <pt x="216" y="-200" on="0"/>
        <pt x="216" y="-184" on="1"/>
        <pt x="216" y="-168" on="1"/>
        <pt x="216" y="-158" on="0"/>
        <pt x="222" y="-151" on="0"/>
        <pt x="231" y="-151" on="1"/>
        <pt x="260" y="-151" on="1"/>
        <pt x="288" y="-151" on="0"/>
        <pt x="308" y="-140" on="0"/>
        <pt x="308" y="-126" on="1"/>
        <pt x="308" y="-123" on="1"/>
        <pt x="308" y="-107" on="0"/>
        <pt x="288" y="-95" on="0"/>
        <pt x="260" y="-95" on="1"/>
        <pt x="239" y="-95" on="1"/>
        <pt x="221" y="-95" on="0"/>
        <pt x="209" y="-61" on="0"/>
        <pt x="222" y="-46" on="1"/>
        <pt x="262" y="0" on="1"/>
        <pt x="218" y="0" on="1"/>
        <pt x="144" y="0" on="0"/>
        <pt x="63" y="82" on="0"/>
        <pt x="63" y="155" on="1"/>
        <pt x="63" y="488" on="1"/>
        <pt x="63" y="562" on="0"/>
        <pt x="144" y="643" on="0"/>
        <pt x="218" y="643" on="1"/>
        <pt x="334" y="643" on="1"/>
        <pt x="407" y="643" on="0"/>
        <pt x="489" y="562" on="0"/>
        <pt x="489" y="488" on="1"/>
        <pt x="489" y="440" on="1"/>
        <pt x="489" y="422" on="0"/>
      </contour>
    </TTGlyph>
    <TTGlyph name="Cdotaccent" xMin="63" yMin="0" xMax="489" yMax="839">
      <contour>
        <pt x="334" y="0" on="1"/>
        <pt x="218" y="0" on="1"/>
        <pt x="144" y="0" on="0"/>
        <pt x="63" y="82" on="0"/>
        <pt x="63" y="155" on="1"/>
        <pt x="63" y="488" on="1"/>
        <pt x="63" y="562" on="0"/>
        <pt x="144" y="643" on="0"/>
        <pt x="218" y="643" on="1"/>
        <pt x="334" y="643" on="1"/>
        <pt x="407" y="643" on="0"/>
        <pt x="489" y="562" on="0"/>
        <pt x="489" y="488" on="1"/>
        <pt x="489" y="440" on="1"/>
        <pt x="489" y="422" on="0"/>
        <pt x="471" y="422" on="1"/>
        <pt x="408" y="422" on="1"/>
        <pt x="391" y="422" on="0"/>
        <pt x="391" y="440" on="1"/>
        <pt x="391" y="484" on="1"/>
        <pt x="391" y="558" on="0"/>
        <pt x="319" y="558" on="1"/>
        <pt x="232" y="558" on="1"/>
        <pt x="160" y="558" on="0"/>
        <pt x="160" y="484" on="1"/>
        <pt x="160" y="159" on="1"/>
        <pt x="160" y="85" on="0"/>
        <pt x="232" y="85" on="1"/>
        <pt x="319" y="85" on="1"/>
        <pt x="391" y="85" on="0"/>
        <pt x="391" y="159" on="1"/>
        <pt x="391" y="203" on="1"/>
        <pt x="391" y="221" on="0"/>
        <pt x="408" y="221" on="1"/>
        <pt x="471" y="221" on="1"/>
        <pt x="489" y="221" on="0"/>
        <pt x="489" y="203" on="1"/>
        <pt x="489" y="155" on="1"/>
        <pt x="489" y="82" on="0"/>
        <pt x="407" y="0" on="0"/>
      </contour>
      <contour>
        <pt x="227" y="727" on="1"/>
        <pt x="227" y="822" on="1"/>
        <pt x="227" y="839" on="0"/>
        <pt x="243" y="839" on="1"/>
        <pt x="308" y="839" on="1"/>
        <pt x="325" y="839" on="0"/>
        <pt x="325" y="823" on="1"/>
        <pt x="325" y="727" on="1"/>
        <pt x="325" y="710" on="0"/>
        <pt x="308" y="710" on="1"/>
        <pt x="243" y="710" on="1"/>
        <pt x="227" y="710" on="0"/>
      </contour>
    </TTGlyph>
    <TTGlyph name="D" xMin="73" yMin="0" xMax="492" yMax="643">
      <contour>
        <pt x="181" y="85" on="1"/>
        <pt x="322" y="85" on="1"/>
        <pt x="394" y="85" on="0"/>
        <pt x="394" y="159" on="1"/>
        <pt x="394" y="484" on="1"/>
        <pt x="394" y="558" on="0"/>
        <pt x="322" y="558" on="1"/>
        <pt x="181" y="558" on="1"/>
        <pt x="170" y="558" on="0"/>
        <pt x="170" y="548" on="1"/>
        <pt x="170" y="96" on="1"/>
        <pt x="170" y="85" on="0"/>
      </contour>
      <contour>
        <pt x="73" y="17" on="1"/>
        <pt x="73" y="626" on="1"/>
        <pt x="73" y="643" on="0"/>
        <pt x="90" y="643" on="1"/>
        <pt x="336" y="643" on="1"/>
        <pt x="409" y="643" on="0"/>
        <pt x="492" y="562" on="0"/>
        <pt x="492" y="488" on="1"/>
        <pt x="492" y="155" on="1"/>
        <pt x="492" y="82" on="0"/>
        <pt x="409" y="0" on="0"/>
        <pt x="336" y="0" on="1"/>
        <pt x="90" y="0" on="1"/>
        <pt x="73" y="0" on="0"/>
      </contour>
    </TTGlyph>
    <TTGlyph name="Dcaron" xMin="73" yMin="0" xMax="492" yMax="836">
      <contour>
        <pt x="251" y="707" on="1"/>
        <pt x="237" y="707" on="0"/>
        <pt x="230" y="717" on="1"/>
        <pt x="166" y="824" on="1"/>
        <pt x="163" y="828" on="0"/>
        <pt x="167" y="836" on="0"/>
        <pt x="174" y="836" on="1"/>
        <pt x="219" y="836" on="1"/>
        <pt x="230" y="836" on="0"/>
        <pt x="235" y="826" on="1"/>
        <pt x="275" y="748" on="1"/>
        <pt x="316" y="826" on="1"/>
        <pt x="320" y="836" on="0"/>
        <pt x="331" y="836" on="1"/>
        <pt x="377" y="836" on="1"/>
        <pt x="391" y="836" on="0"/>
        <pt x="383" y="824" on="1"/>
        <pt x="320" y="717" on="1"/>
        <pt x="313" y="707" on="0"/>
        <pt x="299" y="707" on="1"/>
      </contour>
      <contour>
        <pt x="181" y="85" on="1"/>
        <pt x="322" y="85" on="1"/>
        <pt x="394" y="85" on="0"/>
        <pt x="394" y="159" on="1"/>
        <pt x="394" y="484" on="1"/>
        <pt x="394" y="558" on="0"/>
        <pt x="322" y="558" on="1"/>
        <pt x="181" y="558" on="1"/>
        <pt x="170" y="558" on="0"/>
        <pt x="170" y="548" on="1"/>
        <pt x="170" y="96" on="1"/>
        <pt x="170" y="85" on="0"/>
      </contour>
      <contour>
        <pt x="73" y="17" on="1"/>
        <pt x="73" y="626" on="1"/>
        <pt x="73" y="643" on="0"/>
        <pt x="90" y="643" on="1"/>
        <pt x="336" y="643" on="1"/>
        <pt x="409" y="643" on="0"/>
        <pt x="492" y="562" on="0"/>
        <pt x="492" y="488" on="1"/>
        <pt x="492" y="155" on="1"/>
        <pt x="492" y="82" on="0"/>
        <pt x="409" y="0" on="0"/>
        <pt x="336" y="0" on="1"/>
        <pt x="90" y="0" on="1"/>
        <pt x="73" y="0" on="0"/>
      </contour>
    </TTGlyph>
    <TTGlyph name="Dcroat" xMin="23" yMin="0" xMax="502" yMax="643">
      <contour>
        <pt x="191" y="85" on="1"/>
        <pt x="331" y="85" on="1"/>
        <pt x="404" y="85" on="0"/>
        <pt x="404" y="159" on="1"/>
        <pt x="404" y="484" on="1"/>
        <pt x="404" y="558" on="0"/>
        <pt x="331" y="558" on="1"/>
        <pt x="191" y="558" on="1"/>
        <pt x="180" y="558" on="0"/>
        <pt x="180" y="548" on="1"/>
        <pt x="180" y="409" on="1"/>
        <pt x="180" y="398" on="0"/>
        <pt x="191" y="398" on="1"/>
        <pt x="294" y="398" on="1"/>
        <pt x="311" y="398" on="0"/>
        <pt x="311" y="381" on="1"/>
        <pt x="311" y="341" on="1"/>
        <pt x="311" y="325" on="0"/>
        <pt x="294" y="325" on="1"/>
        <pt x="191" y="325" on="1"/>
        <pt x="180" y="325" on="0"/>
        <pt x="180" y="315" on="1"/>
        <pt x="180" y="96" on="1"/>
        <pt x="180" y="85" on="0"/>
      </contour>
      <contour>
        <pt x="346" y="0" on="1"/>
        <pt x="99" y="0" on="1"/>
        <pt x="82" y="0" on="0"/>
        <pt x="82" y="17" on="1"/>
        <pt x="82" y="315" on="1"/>
        <pt x="82" y="325" on="0"/>
        <pt x="72" y="325" on="1"/>
        <pt x="40" y="325" on="1"/>
        <pt x="30" y="325" on="0"/>
        <pt x="23" y="332" on="0"/>
        <pt x="23" y="341" on="1"/>
        <pt x="23" y="381" on="1"/>
        <pt x="23" y="398" on="0"/>
        <pt x="40" y="398" on="1"/>
        <pt x="72" y="398" on="1"/>
        <pt x="82" y="398" on="0"/>
        <pt x="82" y="409" on="1"/>
        <pt x="82" y="626" on="1"/>
        <pt x="82" y="643" on="0"/>
        <pt x="99" y="643" on="1"/>
        <pt x="346" y="643" on="1"/>
        <pt x="420" y="643" on="0"/>
        <pt x="502" y="562" on="0"/>
        <pt x="502" y="488" on="1"/>
        <pt x="502" y="155" on="1"/>
        <pt x="502" y="82" on="0"/>
        <pt x="420" y="0" on="0"/>
      </contour>
    </TTGlyph>
    <TTGlyph name="E" xMin="73" yMin="0" xMax="426" yMax="643">
      <contour>
        <pt x="410" y="0" on="1"/>
        <pt x="90" y="0" on="1"/>
        <pt x="73" y="0" on="0"/>
        <pt x="73" y="17" on="1"/>
        <pt x="73" y="626" on="1"/>
        <pt x="73" y="643" on="0"/>
        <pt x="90" y="643" on="1"/>
        <pt x="410" y="643" on="1"/>
        <pt x="426" y="643" on="0"/>
        <pt x="426" y="626" on="1"/>
        <pt x="426" y="575" on="1"/>
        <pt x="426" y="558" on="0"/>
        <pt x="410" y="558" on="1"/>
        <pt x="182" y="558" on="1"/>
        <pt x="170" y="558" on="0"/>
        <pt x="170" y="548" on="1"/>
        <pt x="170" y="379" on="1"/>
        <pt x="170" y="369" on="0"/>
        <pt x="182" y="369" on="1"/>
        <pt x="375" y="369" on="1"/>
        <pt x="393" y="369" on="0"/>
        <pt x="393" y="352" on="1"/>
        <pt x="393" y="301" on="1"/>
        <pt x="393" y="284" on="0"/>
        <pt x="375" y="284" on="1"/>
        <pt x="182" y="284" on="1"/>
        <pt x="170" y="284" on="0"/>
        <pt x="170" y="274" on="1"/>
        <pt x="170" y="96" on="1"/>
        <pt x="170" y="85" on="0"/>
        <pt x="182" y="85" on="1"/>
        <pt x="410" y="85" on="1"/>
        <pt x="426" y="85" on="0"/>
        <pt x="426" y="68" on="1"/>
        <pt x="426" y="17" on="1"/>
        <pt x="426" y="0" on="0"/>
      </contour>
    </TTGlyph>
    <TTGlyph name="Eacute" xMin="73" yMin="0" xMax="426" yMax="836">
      <contour>
        <pt x="283" y="836" on="1"/>
        <pt x="362" y="836" on="1"/>
        <pt x="370" y="836" on="0"/>
        <pt x="375" y="826" on="0"/>
        <pt x="370" y="819" on="1"/>
        <pt x="286" y="719" on="1"/>
        <pt x="276" y="707" on="0"/>
        <pt x="262" y="707" on="1"/>
        <pt x="215" y="707" on="1"/>
        <pt x="198" y="707" on="0"/>
        <pt x="207" y="724" on="1"/>
        <pt x="258" y="820" on="1"/>
        <pt x="266" y="836" on="0"/>
      </contour>
      <contour>
        <pt x="410" y="0" on="1"/>
        <pt x="90" y="0" on="1"/>
        <pt x="73" y="0" on="0"/>
        <pt x="73" y="17" on="1"/>
        <pt x="73" y="626" on="1"/>
        <pt x="73" y="643" on="0"/>
        <pt x="90" y="643" on="1"/>
        <pt x="410" y="643" on="1"/>
        <pt x="426" y="643" on="0"/>
        <pt x="426" y="626" on="1"/>
        <pt x="426" y="575" on="1"/>
        <pt x="426" y="558" on="0"/>
        <pt x="410" y="558" on="1"/>
        <pt x="182" y="558" on="1"/>
        <pt x="170" y="558" on="0"/>
        <pt x="170" y="548" on="1"/>
        <pt x="170" y="379" on="1"/>
        <pt x="170" y="369" on="0"/>
        <pt x="182" y="369" on="1"/>
        <pt x="375" y="369" on="1"/>
        <pt x="393" y="369" on="0"/>
        <pt x="393" y="352" on="1"/>
        <pt x="393" y="301" on="1"/>
        <pt x="393" y="284" on="0"/>
        <pt x="375" y="284" on="1"/>
        <pt x="182" y="284" on="1"/>
        <pt x="170" y="284" on="0"/>
        <pt x="170" y="274" on="1"/>
        <pt x="170" y="96" on="1"/>
        <pt x="170" y="85" on="0"/>
        <pt x="182" y="85" on="1"/>
        <pt x="410" y="85" on="1"/>
        <pt x="426" y="85" on="0"/>
        <pt x="426" y="68" on="1"/>
        <pt x="426" y="17" on="1"/>
        <pt x="426" y="0" on="0"/>
      </contour>
    </TTGlyph>
    <TTGlyph name="Ebreve" xMin="73" yMin="0" xMax="426" yMax="836">
      <contour>
        <pt x="138" y="824" on="1"/>
        <pt x="138" y="836" on="0"/>
        <pt x="150" y="836" on="1"/>
        <pt x="188" y="836" on="1"/>
        <pt x="200" y="836" on="0"/>
        <pt x="200" y="824" on="1"/>
        <pt x="200" y="814" on="1"/>
        <pt x="200" y="783" on="0"/>
        <pt x="220" y="758" on="0"/>
        <pt x="244" y="758" on="1"/>
        <pt x="250" y="758" on="1"/>
        <pt x="274" y="758" on="0"/>
        <pt x="295" y="784" on="0"/>
        <pt x="295" y="814" on="1"/>
        <pt x="295" y="824" on="1"/>
        <pt x="295" y="836" on="0"/>
        <pt x="308" y="836" on="1"/>
        <pt x="344" y="836" on="1"/>
        <pt x="357" y="836" on="0"/>
        <pt x="357" y="824" on="1"/>
        <pt x="357" y="813" on="1"/>
        <pt x="357" y="707" on="0"/>
        <pt x="260" y="707" on="1"/>
        <pt x="234" y="707" on="1"/>
        <pt x="138" y="707" on="0"/>
        <pt x="138" y="813" on="1"/>
      </contour>
      <contour>
        <pt x="410" y="0" on="1"/>
        <pt x="90" y="0" on="1"/>
        <pt x="73" y="0" on="0"/>
        <pt x="73" y="17" on="1"/>
        <pt x="73" y="626" on="1"/>
        <pt x="73" y="643" on="0"/>
        <pt x="90" y="643" on="1"/>
        <pt x="410" y="643" on="1"/>
        <pt x="426" y="643" on="0"/>
        <pt x="426" y="626" on="1"/>
        <pt x="426" y="575" on="1"/>
        <pt x="426" y="558" on="0"/>
        <pt x="410" y="558" on="1"/>
        <pt x="182" y="558" on="1"/>
        <pt x="170" y="558" on="0"/>
        <pt x="170" y="548" on="1"/>
        <pt x="170" y="379" on="1"/>
        <pt x="170" y="369" on="0"/>
        <pt x="182" y="369" on="1"/>
        <pt x="375" y="369" on="1"/>
        <pt x="393" y="369" on="0"/>
        <pt x="393" y="352" on="1"/>
        <pt x="393" y="301" on="1"/>
        <pt x="393" y="284" on="0"/>
        <pt x="375" y="284" on="1"/>
        <pt x="182" y="284" on="1"/>
        <pt x="170" y="284" on="0"/>
        <pt x="170" y="274" on="1"/>
        <pt x="170" y="96" on="1"/>
        <pt x="170" y="85" on="0"/>
        <pt x="182" y="85" on="1"/>
        <pt x="410" y="85" on="1"/>
        <pt x="426" y="85" on="0"/>
        <pt x="426" y="68" on="1"/>
        <pt x="426" y="17" on="1"/>
        <pt x="426" y="0" on="0"/>
      </contour>
    </TTGlyph>
    <TTGlyph name="Ecaron" xMin="73" yMin="0" xMax="426" yMax="836">
      <contour>
        <pt x="230" y="707" on="1"/>
        <pt x="216" y="707" on="0"/>
        <pt x="209" y="717" on="1"/>
        <pt x="146" y="824" on="1"/>
        <pt x="138" y="836" on="0"/>
        <pt x="153" y="836" on="1"/>
        <pt x="198" y="836" on="1"/>
        <pt x="209" y="836" on="0"/>
        <pt x="213" y="826" on="1"/>
        <pt x="254" y="748" on="1"/>
        <pt x="294" y="826" on="1"/>
        <pt x="299" y="836" on="0"/>
        <pt x="310" y="836" on="1"/>
        <pt x="356" y="836" on="1"/>
        <pt x="371" y="836" on="0"/>
        <pt x="363" y="824" on="1"/>
        <pt x="299" y="717" on="1"/>
        <pt x="292" y="707" on="0"/>
        <pt x="278" y="707" on="1"/>
      </contour>
      <contour>
        <pt x="410" y="0" on="1"/>
        <pt x="90" y="0" on="1"/>
        <pt x="73" y="0" on="0"/>
        <pt x="73" y="17" on="1"/>
        <pt x="73" y="626" on="1"/>
        <pt x="73" y="643" on="0"/>
        <pt x="90" y="643" on="1"/>
        <pt x="410" y="643" on="1"/>
        <pt x="426" y="643" on="0"/>
        <pt x="426" y="626" on="1"/>
        <pt x="426" y="575" on="1"/>
        <pt x="426" y="558" on="0"/>
        <pt x="410" y="558" on="1"/>
        <pt x="182" y="558" on="1"/>
        <pt x="170" y="558" on="0"/>
        <pt x="170" y="548" on="1"/>
        <pt x="170" y="379" on="1"/>
        <pt x="170" y="369" on="0"/>
        <pt x="182" y="369" on="1"/>
        <pt x="375" y="369" on="1"/>
        <pt x="393" y="369" on="0"/>
        <pt x="393" y="352" on="1"/>
        <pt x="393" y="301" on="1"/>
        <pt x="393" y="284" on="0"/>
        <pt x="375" y="284" on="1"/>
        <pt x="182" y="284" on="1"/>
        <pt x="170" y="284" on="0"/>
        <pt x="170" y="274" on="1"/>
        <pt x="170" y="96" on="1"/>
        <pt x="170" y="85" on="0"/>
        <pt x="182" y="85" on="1"/>
        <pt x="410" y="85" on="1"/>
        <pt x="426" y="85" on="0"/>
        <pt x="426" y="68" on="1"/>
        <pt x="426" y="17" on="1"/>
        <pt x="426" y="0" on="0"/>
      </contour>
    </TTGlyph>
    <TTGlyph name="Ecircumflex" xMin="73" yMin="0" xMax="426" yMax="836">
      <contour>
        <pt x="351" y="707" on="1"/>
        <pt x="305" y="707" on="1"/>
        <pt x="293" y="707" on="0"/>
        <pt x="289" y="717" on="1"/>
        <pt x="249" y="795" on="1"/>
        <pt x="209" y="717" on="1"/>
        <pt x="204" y="707" on="0"/>
        <pt x="193" y="707" on="1"/>
        <pt x="147" y="707" on="1"/>
        <pt x="141" y="707" on="0"/>
        <pt x="137" y="714" on="0"/>
        <pt x="140" y="719" on="1"/>
        <pt x="204" y="826" on="1"/>
        <pt x="211" y="836" on="0"/>
        <pt x="225" y="836" on="1"/>
        <pt x="273" y="836" on="1"/>
        <pt x="287" y="836" on="0"/>
        <pt x="294" y="826" on="1"/>
        <pt x="357" y="719" on="1"/>
        <pt x="365" y="707" on="0"/>
      </contour>
      <contour>
        <pt x="410" y="0" on="1"/>
        <pt x="90" y="0" on="1"/>
        <pt x="73" y="0" on="0"/>
        <pt x="73" y="17" on="1"/>
        <pt x="73" y="626" on="1"/>
        <pt x="73" y="643" on="0"/>
        <pt x="90" y="643" on="1"/>
        <pt x="410" y="643" on="1"/>
        <pt x="426" y="643" on="0"/>
        <pt x="426" y="626" on="1"/>
        <pt x="426" y="575" on="1"/>
        <pt x="426" y="558" on="0"/>
        <pt x="410" y="558" on="1"/>
        <pt x="182" y="558" on="1"/>
        <pt x="170" y="558" on="0"/>
        <pt x="170" y="548" on="1"/>
        <pt x="170" y="379" on="1"/>
        <pt x="170" y="369" on="0"/>
        <pt x="182" y="369" on="1"/>
        <pt x="375" y="369" on="1"/>
        <pt x="393" y="369" on="0"/>
        <pt x="393" y="352" on="1"/>
        <pt x="393" y="301" on="1"/>
        <pt x="393" y="284" on="0"/>
        <pt x="375" y="284" on="1"/>
        <pt x="182" y="284" on="1"/>
        <pt x="170" y="284" on="0"/>
        <pt x="170" y="274" on="1"/>
        <pt x="170" y="96" on="1"/>
        <pt x="170" y="85" on="0"/>
        <pt x="182" y="85" on="1"/>
        <pt x="410" y="85" on="1"/>
        <pt x="426" y="85" on="0"/>
        <pt x="426" y="68" on="1"/>
        <pt x="426" y="17" on="1"/>
        <pt x="426" y="0" on="0"/>
      </contour>
    </TTGlyph>
    <TTGlyph name="Edieresis" xMin="73" yMin="0" xMax="426" yMax="836">
      <contour>
        <pt x="114" y="724" on="1"/>
        <pt x="114" y="819" on="1"/>
        <pt x="114" y="836" on="0"/>
        <pt x="129" y="836" on="1"/>
        <pt x="190" y="836" on="1"/>
        <pt x="206" y="836" on="0"/>
        <pt x="206" y="820" on="1"/>
        <pt x="206" y="724" on="1"/>
        <pt x="206" y="707" on="0"/>
        <pt x="190" y="707" on="1"/>
        <pt x="129" y="707" on="1"/>
        <pt x="114" y="707" on="0"/>
      </contour>
      <contour>
        <pt x="293" y="724" on="1"/>
        <pt x="293" y="819" on="1"/>
        <pt x="293" y="836" on="0"/>
        <pt x="309" y="836" on="1"/>
        <pt x="369" y="836" on="1"/>
        <pt x="386" y="836" on="0"/>
        <pt x="386" y="820" on="1"/>
        <pt x="386" y="724" on="1"/>
        <pt x="386" y="707" on="0"/>
        <pt x="369" y="707" on="1"/>
        <pt x="309" y="707" on="1"/>
        <pt x="293" y="707" on="0"/>
      </contour>
      <contour>
        <pt x="410" y="0" on="1"/>
        <pt x="90" y="0" on="1"/>
        <pt x="73" y="0" on="0"/>
        <pt x="73" y="17" on="1"/>
        <pt x="73" y="626" on="1"/>
        <pt x="73" y="643" on="0"/>
        <pt x="90" y="643" on="1"/>
        <pt x="410" y="643" on="1"/>
        <pt x="426" y="643" on="0"/>
        <pt x="426" y="626" on="1"/>
        <pt x="426" y="575" on="1"/>
        <pt x="426" y="558" on="0"/>
        <pt x="410" y="558" on="1"/>
        <pt x="182" y="558" on="1"/>
        <pt x="170" y="558" on="0"/>
        <pt x="170" y="548" on="1"/>
        <pt x="170" y="379" on="1"/>
        <pt x="170" y="369" on="0"/>
        <pt x="182" y="369" on="1"/>
        <pt x="375" y="369" on="1"/>
        <pt x="393" y="369" on="0"/>
        <pt x="393" y="352" on="1"/>
        <pt x="393" y="301" on="1"/>
        <pt x="393" y="284" on="0"/>
        <pt x="375" y="284" on="1"/>
        <pt x="182" y="284" on="1"/>
        <pt x="170" y="284" on="0"/>
        <pt x="170" y="274" on="1"/>
        <pt x="170" y="96" on="1"/>
        <pt x="170" y="85" on="0"/>
        <pt x="182" y="85" on="1"/>
        <pt x="410" y="85" on="1"/>
        <pt x="426" y="85" on="0"/>
        <pt x="426" y="68" on="1"/>
        <pt x="426" y="17" on="1"/>
        <pt x="426" y="0" on="0"/>
      </contour>
    </TTGlyph>
    <TTGlyph name="Edotaccent" xMin="73" yMin="0" xMax="426" yMax="839">
      <contour>
        <pt x="201" y="727" on="1"/>
        <pt x="201" y="822" on="1"/>
        <pt x="201" y="839" on="0"/>
        <pt x="217" y="839" on="1"/>
        <pt x="283" y="839" on="1"/>
        <pt x="299" y="839" on="0"/>
        <pt x="299" y="823" on="1"/>
        <pt x="299" y="727" on="1"/>
        <pt x="299" y="710" on="0"/>
        <pt x="283" y="710" on="1"/>
        <pt x="217" y="710" on="1"/>
        <pt x="201" y="710" on="0"/>
      </contour>
      <contour>
        <pt x="410" y="0" on="1"/>
        <pt x="90" y="0" on="1"/>
        <pt x="73" y="0" on="0"/>
        <pt x="73" y="17" on="1"/>
        <pt x="73" y="626" on="1"/>
        <pt x="73" y="643" on="0"/>
        <pt x="90" y="643" on="1"/>
        <pt x="410" y="643" on="1"/>
        <pt x="426" y="643" on="0"/>
        <pt x="426" y="626" on="1"/>
        <pt x="426" y="575" on="1"/>
        <pt x="426" y="558" on="0"/>
        <pt x="410" y="558" on="1"/>
        <pt x="182" y="558" on="1"/>
        <pt x="170" y="558" on="0"/>
        <pt x="170" y="548" on="1"/>
        <pt x="170" y="379" on="1"/>
        <pt x="170" y="369" on="0"/>
        <pt x="182" y="369" on="1"/>
        <pt x="375" y="369" on="1"/>
        <pt x="393" y="369" on="0"/>
        <pt x="393" y="352" on="1"/>
        <pt x="393" y="301" on="1"/>
        <pt x="393" y="284" on="0"/>
        <pt x="375" y="284" on="1"/>
        <pt x="182" y="284" on="1"/>
        <pt x="170" y="284" on="0"/>
        <pt x="170" y="274" on="1"/>
        <pt x="170" y="96" on="1"/>
        <pt x="170" y="85" on="0"/>
        <pt x="182" y="85" on="1"/>
        <pt x="410" y="85" on="1"/>
        <pt x="426" y="85" on="0"/>
        <pt x="426" y="68" on="1"/>
        <pt x="426" y="17" on="1"/>
        <pt x="426" y="0" on="0"/>
      </contour>
    </TTGlyph>
    <TTGlyph name="Egrave" xMin="73" yMin="0" xMax="426" yMax="836">
      <contour>
        <pt x="276" y="707" on="1"/>
        <pt x="228" y="707" on="1"/>
        <pt x="214" y="707" on="0"/>
        <pt x="205" y="719" on="1"/>
        <pt x="121" y="819" on="1"/>
        <pt x="116" y="826" on="0"/>
        <pt x="121" y="836" on="0"/>
        <pt x="129" y="836" on="1"/>
        <pt x="207" y="836" on="1"/>
        <pt x="225" y="836" on="0"/>
        <pt x="232" y="820" on="1"/>
        <pt x="284" y="724" on="1"/>
        <pt x="292" y="707" on="0"/>
      </contour>
      <contour>
        <pt x="410" y="0" on="1"/>
        <pt x="90" y="0" on="1"/>
        <pt x="73" y="0" on="0"/>
        <pt x="73" y="17" on="1"/>
        <pt x="73" y="626" on="1"/>
        <pt x="73" y="643" on="0"/>
        <pt x="90" y="643" on="1"/>
        <pt x="410" y="643" on="1"/>
        <pt x="426" y="643" on="0"/>
        <pt x="426" y="626" on="1"/>
        <pt x="426" y="575" on="1"/>
        <pt x="426" y="558" on="0"/>
        <pt x="410" y="558" on="1"/>
        <pt x="182" y="558" on="1"/>
        <pt x="170" y="558" on="0"/>
        <pt x="170" y="548" on="1"/>
        <pt x="170" y="379" on="1"/>
        <pt x="170" y="369" on="0"/>
        <pt x="182" y="369" on="1"/>
        <pt x="375" y="369" on="1"/>
        <pt x="393" y="369" on="0"/>
        <pt x="393" y="352" on="1"/>
        <pt x="393" y="301" on="1"/>
        <pt x="393" y="284" on="0"/>
        <pt x="375" y="284" on="1"/>
        <pt x="182" y="284" on="1"/>
        <pt x="170" y="284" on="0"/>
        <pt x="170" y="274" on="1"/>
        <pt x="170" y="96" on="1"/>
        <pt x="170" y="85" on="0"/>
        <pt x="182" y="85" on="1"/>
        <pt x="410" y="85" on="1"/>
        <pt x="426" y="85" on="0"/>
        <pt x="426" y="68" on="1"/>
        <pt x="426" y="17" on="1"/>
        <pt x="426" y="0" on="0"/>
      </contour>
    </TTGlyph>
    <TTGlyph name="Emacron" xMin="73" yMin="0" xMax="426" yMax="809">
      <contour>
        <pt x="349" y="740" on="1"/>
        <pt x="149" y="740" on="1"/>
        <pt x="133" y="740" on="0"/>
        <pt x="133" y="757" on="1"/>
        <pt x="133" y="792" on="1"/>
        <pt x="133" y="809" on="0"/>
        <pt x="149" y="809" on="1"/>
        <pt x="349" y="809" on="1"/>
        <pt x="366" y="809" on="0"/>
        <pt x="366" y="792" on="1"/>
        <pt x="366" y="757" on="1"/>
        <pt x="366" y="740" on="0"/>
      </contour>
      <contour>
        <pt x="410" y="0" on="1"/>
        <pt x="90" y="0" on="1"/>
        <pt x="73" y="0" on="0"/>
        <pt x="73" y="17" on="1"/>
        <pt x="73" y="626" on="1"/>
        <pt x="73" y="643" on="0"/>
        <pt x="90" y="643" on="1"/>
        <pt x="410" y="643" on="1"/>
        <pt x="426" y="643" on="0"/>
        <pt x="426" y="626" on="1"/>
        <pt x="426" y="575" on="1"/>
        <pt x="426" y="558" on="0"/>
        <pt x="410" y="558" on="1"/>
        <pt x="182" y="558" on="1"/>
        <pt x="170" y="558" on="0"/>
        <pt x="170" y="548" on="1"/>
        <pt x="170" y="379" on="1"/>
        <pt x="170" y="369" on="0"/>
        <pt x="182" y="369" on="1"/>
        <pt x="375" y="369" on="1"/>
        <pt x="393" y="369" on="0"/>
        <pt x="393" y="352" on="1"/>
        <pt x="393" y="301" on="1"/>
        <pt x="393" y="284" on="0"/>
        <pt x="375" y="284" on="1"/>
        <pt x="182" y="284" on="1"/>
        <pt x="170" y="284" on="0"/>
        <pt x="170" y="274" on="1"/>
        <pt x="170" y="96" on="1"/>
        <pt x="170" y="85" on="0"/>
        <pt x="182" y="85" on="1"/>
        <pt x="410" y="85" on="1"/>
        <pt x="426" y="85" on="0"/>
        <pt x="426" y="68" on="1"/>
        <pt x="426" y="17" on="1"/>
        <pt x="426" y="0" on="0"/>
      </contour>
    </TTGlyph>
    <TTGlyph name="Eng" xMin="78" yMin="-160" xMax="516" yMax="643">
      <contour>
        <pt x="360" y="-160" on="1"/>
        <pt x="307" y="-160" on="1"/>
        <pt x="290" y="-160" on="0"/>
        <pt x="290" y="-143" on="1"/>
        <pt x="290" y="-92" on="1"/>
        <pt x="290" y="-75" on="0"/>
        <pt x="307" y="-75" on="1"/>
        <pt x="332" y="-75" on="1"/>
        <pt x="378" y="-75" on="0"/>
        <pt x="417" y="-35" on="0"/>
        <pt x="417" y="12" on="1"/>
        <pt x="417" y="16" on="1"/>
        <pt x="397" y="51" on="0"/>
        <pt x="205" y="404" on="0"/>
        <pt x="180" y="446" on="1"/>
        <pt x="176" y="446" on="1"/>
        <pt x="176" y="17" on="1"/>
        <pt x="176" y="0" on="0"/>
        <pt x="159" y="0" on="1"/>
        <pt x="95" y="0" on="1"/>
        <pt x="78" y="0" on="0"/>
        <pt x="78" y="17" on="1"/>
        <pt x="78" y="626" on="1"/>
        <pt x="78" y="643" on="0"/>
        <pt x="95" y="643" on="1"/>
        <pt x="153" y="643" on="1"/>
        <pt x="168" y="643" on="0"/>
        <pt x="174" y="632" on="1"/>
        <pt x="414" y="197" on="1"/>
        <pt x="418" y="197" on="1"/>
        <pt x="418" y="626" on="1"/>
        <pt x="418" y="643" on="0"/>
        <pt x="435" y="643" on="1"/>
        <pt x="499" y="643" on="1"/>
        <pt x="516" y="643" on="0"/>
        <pt x="516" y="626" on="1"/>
        <pt x="516" y="-5" on="1"/>
        <pt x="516" y="-78" on="0"/>
        <pt x="433" y="-160" on="0"/>
      </contour>
    </TTGlyph>
    <TTGlyph name="Eogonek" xMin="73" yMin="-116" xMax="426" yMax="643">
      <contour>
        <pt x="410" y="558" on="1"/>
        <pt x="182" y="558" on="1"/>
        <pt x="170" y="558" on="0"/>
        <pt x="170" y="548" on="1"/>
        <pt x="170" y="379" on="1"/>
        <pt x="170" y="369" on="0"/>
        <pt x="182" y="369" on="1"/>
        <pt x="375" y="369" on="1"/>
        <pt x="393" y="369" on="0"/>
        <pt x="393" y="352" on="1"/>
        <pt x="393" y="301" on="1"/>
        <pt x="393" y="284" on="0"/>
        <pt x="375" y="284" on="1"/>
        <pt x="182" y="284" on="1"/>
        <pt x="170" y="284" on="0"/>
        <pt x="170" y="274" on="1"/>
        <pt x="170" y="96" on="1"/>
        <pt x="170" y="85" on="0"/>
        <pt x="182" y="85" on="1"/>
        <pt x="410" y="85" on="1"/>
        <pt x="426" y="85" on="0"/>
        <pt x="426" y="68" on="1"/>
        <pt x="426" y="17" on="1"/>
        <pt x="426" y="0" on="0"/>
        <pt x="410" y="0" on="1"/>
        <pt x="365" y="0" on="1"/>
        <pt x="322" y="-62" on="1"/>
        <pt x="363" y="-62" on="1"/>
        <pt x="377" y="-62" on="0"/>
        <pt x="386" y="-69" on="0"/>
        <pt x="386" y="-79" on="1"/>
        <pt x="386" y="-96" on="0"/>
        <pt x="329" y="-116" on="0"/>
        <pt x="272" y="-116" on="0"/>
        <pt x="256" y="-85" on="0"/>
        <pt x="270" y="-67" on="1"/>
        <pt x="315" y="0" on="1"/>
        <pt x="90" y="0" on="1"/>
        <pt x="73" y="0" on="0"/>
        <pt x="73" y="17" on="1"/>
        <pt x="73" y="626" on="1"/>
        <pt x="73" y="643" on="0"/>
        <pt x="90" y="643" on="1"/>
        <pt x="410" y="643" on="1"/>
        <pt x="426" y="643" on="0"/>
        <pt x="426" y="626" on="1"/>
        <pt x="426" y="575" on="1"/>
        <pt x="426" y="558" on="0"/>
      </contour>
    </TTGlyph>
    <TTGlyph name="Eth" xMin="23" yMin="0" xMax="502" yMax="643">
      <contour>
        <pt x="191" y="85" on="1"/>
        <pt x="331" y="85" on="1"/>
        <pt x="404" y="85" on="0"/>
        <pt x="404" y="159" on="1"/>
        <pt x="404" y="484" on="1"/>
        <pt x="404" y="558" on="0"/>
        <pt x="331" y="558" on="1"/>
        <pt x="191" y="558" on="1"/>
        <pt x="180" y="558" on="0"/>
        <pt x="180" y="548" on="1"/>
        <pt x="180" y="370" on="1"/>
        <pt x="180" y="360" on="0"/>
        <pt x="191" y="360" on="1"/>
        <pt x="294" y="360" on="1"/>
        <pt x="311" y="360" on="0"/>
        <pt x="311" y="343" on="1"/>
        <pt x="311" y="303" on="1"/>
        <pt x="311" y="286" on="0"/>
        <pt x="294" y="286" on="1"/>
        <pt x="191" y="286" on="1"/>
        <pt x="180" y="286" on="0"/>
        <pt x="180" y="276" on="1"/>
        <pt x="180" y="96" on="1"/>
        <pt x="180" y="85" on="0"/>
      </contour>
      <contour>
        <pt x="346" y="0" on="1"/>
        <pt x="99" y="0" on="1"/>
        <pt x="82" y="0" on="0"/>
        <pt x="82" y="17" on="1"/>
        <pt x="82" y="276" on="1"/>
        <pt x="82" y="286" on="0"/>
        <pt x="72" y="286" on="1"/>
        <pt x="40" y="286" on="1"/>
        <pt x="23" y="286" on="0"/>
        <pt x="23" y="303" on="1"/>
        <pt x="23" y="343" on="1"/>
        <pt x="23" y="360" on="0"/>
        <pt x="40" y="360" on="1"/>
        <pt x="72" y="360" on="1"/>
        <pt x="82" y="360" on="0"/>
        <pt x="82" y="370" on="1"/>
        <pt x="82" y="626" on="1"/>
        <pt x="82" y="643" on="0"/>
        <pt x="99" y="643" on="1"/>
        <pt x="346" y="643" on="1"/>
        <pt x="420" y="643" on="0"/>
        <pt x="502" y="562" on="0"/>
        <pt x="502" y="488" on="1"/>
        <pt x="502" y="155" on="1"/>
        <pt x="502" y="82" on="0"/>
        <pt x="420" y="0" on="0"/>
      </contour>
    </TTGlyph>
    <TTGlyph name="Euro" xMin="28" yMin="0" xMax="474" yMax="643">
      <contour>
        <pt x="318" y="0" on="1"/>
        <pt x="253" y="0" on="1"/>
        <pt x="180" y="0" on="0"/>
        <pt x="97" y="80" on="0"/>
        <pt x="97" y="153" on="1"/>
        <pt x="97" y="221" on="1"/>
        <pt x="47" y="221" on="1"/>
        <pt x="28" y="221" on="0"/>
        <pt x="28" y="240" on="1"/>
        <pt x="28" y="271" on="1"/>
        <pt x="28" y="290" on="0"/>
        <pt x="47" y="290" on="1"/>
        <pt x="97" y="290" on="1"/>
        <pt x="97" y="348" on="1"/>
        <pt x="47" y="348" on="1"/>
        <pt x="28" y="348" on="0"/>
        <pt x="28" y="367" on="1"/>
        <pt x="28" y="397" on="1"/>
        <pt x="28" y="416" on="0"/>
        <pt x="47" y="416" on="1"/>
        <pt x="97" y="416" on="1"/>
        <pt x="97" y="490" on="1"/>
        <pt x="97" y="563" on="0"/>
        <pt x="180" y="643" on="0"/>
        <pt x="253" y="643" on="1"/>
        <pt x="318" y="643" on="1"/>
        <pt x="391" y="643" on="0"/>
        <pt x="474" y="563" on="0"/>
        <pt x="474" y="490" on="1"/>
        <pt x="474" y="467" on="1"/>
        <pt x="474" y="450" on="0"/>
        <pt x="457" y="450" on="1"/>
        <pt x="393" y="450" on="1"/>
        <pt x="376" y="450" on="0"/>
        <pt x="376" y="467" on="1"/>
        <pt x="376" y="488" on="1"/>
        <pt x="376" y="560" on="0"/>
        <pt x="303" y="560" on="1"/>
        <pt x="268" y="560" on="1"/>
        <pt x="193" y="560" on="0"/>
        <pt x="193" y="488" on="1"/>
        <pt x="193" y="416" on="1"/>
        <pt x="310" y="416" on="1"/>
        <pt x="329" y="416" on="0"/>
        <pt x="329" y="397" on="1"/>
        <pt x="329" y="367" on="1"/>
        <pt x="329" y="348" on="0"/>
        <pt x="310" y="348" on="1"/>
        <pt x="193" y="348" on="1"/>
        <pt x="193" y="290" on="1"/>
        <pt x="310" y="290" on="1"/>
        <pt x="329" y="290" on="0"/>
        <pt x="329" y="271" on="1"/>
        <pt x="329" y="240" on="1"/>
        <pt x="329" y="221" on="0"/>
        <pt x="310" y="221" on="1"/>
        <pt x="193" y="221" on="1"/>
        <pt x="193" y="155" on="1"/>
        <pt x="193" y="83" on="0"/>
        <pt x="268" y="83" on="1"/>
        <pt x="303" y="83" on="1"/>
        <pt x="376" y="83" on="0"/>
        <pt x="376" y="155" on="1"/>
        <pt x="376" y="176" on="1"/>
        <pt x="376" y="193" on="0"/>
        <pt x="393" y="193" on="1"/>
        <pt x="457" y="193" on="1"/>
        <pt x="474" y="193" on="0"/>
        <pt x="474" y="176" on="1"/>
        <pt x="474" y="153" on="1"/>
        <pt x="474" y="80" on="0"/>
        <pt x="391" y="0" on="0"/>
      </contour>
    </TTGlyph>
    <TTGlyph name="F" xMin="73" yMin="0" xMax="421" yMax="643">
      <contour>
        <pt x="153" y="0" on="1"/>
        <pt x="90" y="0" on="1"/>
        <pt x="73" y="0" on="0"/>
        <pt x="73" y="17" on="1"/>
        <pt x="73" y="626" on="1"/>
        <pt x="73" y="643" on="0"/>
        <pt x="90" y="643" on="1"/>
        <pt x="404" y="643" on="1"/>
        <pt x="421" y="643" on="0"/>
        <pt x="421" y="626" on="1"/>
        <pt x="421" y="575" on="1"/>
        <pt x="421" y="558" on="0"/>
        <pt x="404" y="558" on="1"/>
        <pt x="182" y="558" on="1"/>
        <pt x="170" y="558" on="0"/>
        <pt x="170" y="548" on="1"/>
        <pt x="170" y="359" on="1"/>
        <pt x="170" y="348" on="0"/>
        <pt x="182" y="348" on="1"/>
        <pt x="375" y="348" on="1"/>
        <pt x="393" y="348" on="0"/>
        <pt x="393" y="331" on="1"/>
        <pt x="393" y="281" on="1"/>
        <pt x="393" y="263" on="0"/>
        <pt x="375" y="263" on="1"/>
        <pt x="182" y="263" on="1"/>
        <pt x="170" y="263" on="0"/>
        <pt x="170" y="253" on="1"/>
        <pt x="170" y="17" on="1"/>
        <pt x="170" y="0" on="0"/>
      </contour>
    </TTGlyph>
    <TTGlyph name="G" xMin="63" yMin="0" xMax="480" yMax="643">
      <contour>
        <pt x="325" y="0" on="1"/>
        <pt x="218" y="0" on="1"/>
        <pt x="144" y="0" on="0"/>
        <pt x="63" y="82" on="0"/>
        <pt x="63" y="155" on="1"/>
        <pt x="63" y="488" on="1"/>
        <pt x="63" y="562" on="0"/>
        <pt x="144" y="643" on="0"/>
        <pt x="218" y="643" on="1"/>
        <pt x="325" y="643" on="1"/>
        <pt x="399" y="643" on="0"/>
        <pt x="480" y="562" on="0"/>
        <pt x="480" y="488" on="1"/>
        <pt x="480" y="452" on="1"/>
        <pt x="480" y="434" on="0"/>
        <pt x="463" y="434" on="1"/>
        <pt x="400" y="434" on="1"/>
        <pt x="383" y="434" on="0"/>
        <pt x="383" y="452" on="1"/>
        <pt x="383" y="484" on="1"/>
        <pt x="383" y="558" on="0"/>
        <pt x="311" y="558" on="1"/>
        <pt x="232" y="558" on="1"/>
        <pt x="160" y="558" on="0"/>
        <pt x="160" y="484" on="1"/>
        <pt x="160" y="159" on="1"/>
        <pt x="160" y="85" on="0"/>
        <pt x="232" y="85" on="1"/>
        <pt x="311" y="85" on="1"/>
        <pt x="383" y="85" on="0"/>
        <pt x="383" y="159" on="1"/>
        <pt x="383" y="249" on="1"/>
        <pt x="383" y="259" on="0"/>
        <pt x="372" y="259" on="1"/>
        <pt x="291" y="259" on="1"/>
        <pt x="274" y="259" on="0"/>
        <pt x="274" y="276" on="1"/>
        <pt x="274" y="327" on="1"/>
        <pt x="274" y="344" on="0"/>
        <pt x="291" y="344" on="1"/>
        <pt x="459" y="344" on="1"/>
        <pt x="480" y="344" on="0"/>
        <pt x="480" y="323" on="1"/>
        <pt x="480" y="155" on="1"/>
        <pt x="480" y="82" on="0"/>
        <pt x="398" y="0" on="0"/>
      </contour>
    </TTGlyph>
    <TTGlyph name="Gbreve" xMin="63" yMin="0" xMax="480" yMax="836">
      <contour>
        <pt x="162" y="824" on="1"/>
        <pt x="162" y="836" on="0"/>
        <pt x="174" y="836" on="1"/>
        <pt x="212" y="836" on="1"/>
        <pt x="225" y="836" on="0"/>
        <pt x="225" y="824" on="1"/>
        <pt x="225" y="814" on="1"/>
        <pt x="225" y="783" on="0"/>
        <pt x="245" y="758" on="0"/>
        <pt x="268" y="758" on="1"/>
        <pt x="275" y="758" on="1"/>
        <pt x="300" y="758" on="0"/>
        <pt x="320" y="784" on="0"/>
        <pt x="320" y="814" on="1"/>
        <pt x="320" y="824" on="1"/>
        <pt x="320" y="836" on="0"/>
        <pt x="332" y="836" on="1"/>
        <pt x="369" y="836" on="1"/>
        <pt x="381" y="836" on="0"/>
        <pt x="381" y="824" on="1"/>
        <pt x="381" y="813" on="1"/>
        <pt x="381" y="707" on="0"/>
        <pt x="284" y="707" on="1"/>
        <pt x="259" y="707" on="1"/>
        <pt x="162" y="707" on="0"/>
        <pt x="162" y="813" on="1"/>
      </contour>
      <contour>
        <pt x="325" y="0" on="1"/>
        <pt x="218" y="0" on="1"/>
        <pt x="144" y="0" on="0"/>
        <pt x="63" y="82" on="0"/>
        <pt x="63" y="155" on="1"/>
        <pt x="63" y="488" on="1"/>
        <pt x="63" y="562" on="0"/>
        <pt x="144" y="643" on="0"/>
        <pt x="218" y="643" on="1"/>
        <pt x="325" y="643" on="1"/>
        <pt x="399" y="643" on="0"/>
        <pt x="480" y="562" on="0"/>
        <pt x="480" y="488" on="1"/>
        <pt x="480" y="452" on="1"/>
        <pt x="480" y="434" on="0"/>
        <pt x="463" y="434" on="1"/>
        <pt x="400" y="434" on="1"/>
        <pt x="383" y="434" on="0"/>
        <pt x="383" y="452" on="1"/>
        <pt x="383" y="484" on="1"/>
        <pt x="383" y="558" on="0"/>
        <pt x="311" y="558" on="1"/>
        <pt x="232" y="558" on="1"/>
        <pt x="160" y="558" on="0"/>
        <pt x="160" y="484" on="1"/>
        <pt x="160" y="159" on="1"/>
        <pt x="160" y="85" on="0"/>
        <pt x="232" y="85" on="1"/>
        <pt x="311" y="85" on="1"/>
        <pt x="383" y="85" on="0"/>
        <pt x="383" y="159" on="1"/>
        <pt x="383" y="249" on="1"/>
        <pt x="383" y="259" on="0"/>
        <pt x="372" y="259" on="1"/>
        <pt x="291" y="259" on="1"/>
        <pt x="274" y="259" on="0"/>
        <pt x="274" y="276" on="1"/>
        <pt x="274" y="327" on="1"/>
        <pt x="274" y="344" on="0"/>
        <pt x="291" y="344" on="1"/>
        <pt x="459" y="344" on="1"/>
        <pt x="480" y="344" on="0"/>
        <pt x="480" y="323" on="1"/>
        <pt x="480" y="155" on="1"/>
        <pt x="480" y="82" on="0"/>
        <pt x="398" y="0" on="0"/>
      </contour>
    </TTGlyph>
    <TTGlyph name="Gcircumflex" xMin="63" yMin="0" xMax="480" yMax="836">
      <contour>
        <pt x="375" y="707" on="1"/>
        <pt x="329" y="707" on="1"/>
        <pt x="318" y="707" on="0"/>
        <pt x="313" y="717" on="1"/>
        <pt x="273" y="795" on="1"/>
        <pt x="232" y="717" on="1"/>
        <pt x="230" y="707" on="0"/>
        <pt x="217" y="707" on="1"/>
        <pt x="172" y="707" on="1"/>
        <pt x="157" y="707" on="0"/>
        <pt x="165" y="719" on="1"/>
        <pt x="228" y="826" on="1"/>
        <pt x="235" y="836" on="0"/>
        <pt x="249" y="836" on="1"/>
        <pt x="297" y="836" on="1"/>
        <pt x="312" y="836" on="0"/>
        <pt x="319" y="826" on="1"/>
        <pt x="382" y="719" on="1"/>
        <pt x="390" y="707" on="0"/>
      </contour>
      <contour>
        <pt x="325" y="0" on="1"/>
        <pt x="218" y="0" on="1"/>
        <pt x="144" y="0" on="0"/>
        <pt x="63" y="82" on="0"/>
        <pt x="63" y="155" on="1"/>
        <pt x="63" y="488" on="1"/>
        <pt x="63" y="562" on="0"/>
        <pt x="144" y="643" on="0"/>
        <pt x="218" y="643" on="1"/>
        <pt x="325" y="643" on="1"/>
        <pt x="399" y="643" on="0"/>
        <pt x="480" y="562" on="0"/>
        <pt x="480" y="488" on="1"/>
        <pt x="480" y="452" on="1"/>
        <pt x="480" y="434" on="0"/>
        <pt x="463" y="434" on="1"/>
        <pt x="400" y="434" on="1"/>
        <pt x="383" y="434" on="0"/>
        <pt x="383" y="452" on="1"/>
        <pt x="383" y="484" on="1"/>
        <pt x="383" y="558" on="0"/>
        <pt x="311" y="558" on="1"/>
        <pt x="232" y="558" on="1"/>
        <pt x="160" y="558" on="0"/>
        <pt x="160" y="484" on="1"/>
        <pt x="160" y="159" on="1"/>
        <pt x="160" y="85" on="0"/>
        <pt x="232" y="85" on="1"/>
        <pt x="311" y="85" on="1"/>
        <pt x="383" y="85" on="0"/>
        <pt x="383" y="159" on="1"/>
        <pt x="383" y="249" on="1"/>
        <pt x="383" y="259" on="0"/>
        <pt x="372" y="259" on="1"/>
        <pt x="291" y="259" on="1"/>
        <pt x="274" y="259" on="0"/>
        <pt x="274" y="276" on="1"/>
        <pt x="274" y="327" on="1"/>
        <pt x="274" y="344" on="0"/>
        <pt x="291" y="344" on="1"/>
        <pt x="459" y="344" on="1"/>
        <pt x="480" y="344" on="0"/>
        <pt x="480" y="323" on="1"/>
        <pt x="480" y="155" on="1"/>
        <pt x="480" y="82" on="0"/>
        <pt x="398" y="0" on="0"/>
      </contour>
    </TTGlyph>
    <TTGlyph name="Gdotaccent" xMin="63" yMin="0" xMax="480" yMax="839">
      <contour>
        <pt x="222" y="727" on="1"/>
        <pt x="222" y="822" on="1"/>
        <pt x="222" y="839" on="0"/>
        <pt x="239" y="839" on="1"/>
        <pt x="304" y="839" on="1"/>
        <pt x="320" y="839" on="0"/>
        <pt x="320" y="823" on="1"/>
        <pt x="320" y="727" on="1"/>
        <pt x="320" y="710" on="0"/>
        <pt x="304" y="710" on="1"/>
        <pt x="239" y="710" on="1"/>
        <pt x="222" y="710" on="0"/>
      </contour>
      <contour>
        <pt x="325" y="0" on="1"/>
        <pt x="218" y="0" on="1"/>
        <pt x="144" y="0" on="0"/>
        <pt x="63" y="82" on="0"/>
        <pt x="63" y="155" on="1"/>
        <pt x="63" y="488" on="1"/>
        <pt x="63" y="562" on="0"/>
        <pt x="144" y="643" on="0"/>
        <pt x="218" y="643" on="1"/>
        <pt x="325" y="643" on="1"/>
        <pt x="399" y="643" on="0"/>
        <pt x="480" y="562" on="0"/>
        <pt x="480" y="488" on="1"/>
        <pt x="480" y="452" on="1"/>
        <pt x="480" y="434" on="0"/>
        <pt x="463" y="434" on="1"/>
        <pt x="400" y="434" on="1"/>
        <pt x="383" y="434" on="0"/>
        <pt x="383" y="452" on="1"/>
        <pt x="383" y="484" on="1"/>
        <pt x="383" y="558" on="0"/>
        <pt x="311" y="558" on="1"/>
        <pt x="232" y="558" on="1"/>
        <pt x="160" y="558" on="0"/>
        <pt x="160" y="484" on="1"/>
        <pt x="160" y="159" on="1"/>
        <pt x="160" y="85" on="0"/>
        <pt x="232" y="85" on="1"/>
        <pt x="311" y="85" on="1"/>
        <pt x="383" y="85" on="0"/>
        <pt x="383" y="159" on="1"/>
        <pt x="383" y="249" on="1"/>
        <pt x="383" y="259" on="0"/>
        <pt x="372" y="259" on="1"/>
        <pt x="291" y="259" on="1"/>
        <pt x="274" y="259" on="0"/>
        <pt x="274" y="276" on="1"/>
        <pt x="274" y="327" on="1"/>
        <pt x="274" y="344" on="0"/>
        <pt x="291" y="344" on="1"/>
        <pt x="459" y="344" on="1"/>
        <pt x="480" y="344" on="0"/>
        <pt x="480" y="323" on="1"/>
        <pt x="480" y="155" on="1"/>
        <pt x="480" y="82" on="0"/>
        <pt x="398" y="0" on="0"/>
      </contour>
    </TTGlyph>
    <TTGlyph name="H" xMin="73" yMin="0" xMax="501" yMax="643">
      <contour>
        <pt x="153" y="0" on="1"/>
        <pt x="90" y="0" on="1"/>
        <pt x="73" y="0" on="0"/>
        <pt x="73" y="17" on="1"/>
        <pt x="73" y="626" on="1"/>
        <pt x="73" y="643" on="0"/>
        <pt x="90" y="643" on="1"/>
        <pt x="153" y="643" on="1"/>
        <pt x="170" y="643" on="0"/>
        <pt x="170" y="626" on="1"/>
        <pt x="170" y="376" on="1"/>
        <pt x="170" y="366" on="0"/>
        <pt x="182" y="366" on="1"/>
        <pt x="393" y="366" on="1"/>
        <pt x="403" y="366" on="0"/>
        <pt x="403" y="376" on="1"/>
        <pt x="403" y="626" on="1"/>
        <pt x="403" y="643" on="0"/>
        <pt x="420" y="643" on="1"/>
        <pt x="484" y="643" on="1"/>
        <pt x="501" y="643" on="0"/>
        <pt x="501" y="626" on="1"/>
        <pt x="501" y="17" on="1"/>
        <pt x="501" y="0" on="0"/>
        <pt x="484" y="0" on="1"/>
        <pt x="420" y="0" on="1"/>
        <pt x="403" y="0" on="0"/>
        <pt x="403" y="17" on="1"/>
        <pt x="403" y="270" on="1"/>
        <pt x="403" y="280" on="0"/>
        <pt x="393" y="280" on="1"/>
        <pt x="182" y="280" on="1"/>
        <pt x="170" y="280" on="0"/>
        <pt x="170" y="270" on="1"/>
        <pt x="170" y="17" on="1"/>
        <pt x="170" y="0" on="0"/>
      </contour>
    </TTGlyph>
    <TTGlyph name="Hbar" xMin="23" yMin="0" xMax="583" yMax="643">
      <contour>
        <pt x="169" y="0" on="1"/>
        <pt x="106" y="0" on="1"/>
        <pt x="88" y="0" on="0"/>
        <pt x="88" y="17" on="1"/>
        <pt x="88" y="438" on="1"/>
        <pt x="88" y="449" on="0"/>
        <pt x="78" y="449" on="1"/>
        <pt x="40" y="449" on="1"/>
        <pt x="30" y="449" on="0"/>
        <pt x="23" y="456" on="0"/>
        <pt x="23" y="465" on="1"/>
        <pt x="23" y="505" on="1"/>
        <pt x="23" y="522" on="0"/>
        <pt x="40" y="522" on="1"/>
        <pt x="78" y="522" on="1"/>
        <pt x="88" y="522" on="0"/>
        <pt x="88" y="533" on="1"/>
        <pt x="88" y="626" on="1"/>
        <pt x="88" y="643" on="0"/>
        <pt x="106" y="643" on="1"/>
        <pt x="169" y="643" on="1"/>
        <pt x="187" y="643" on="0"/>
        <pt x="187" y="626" on="1"/>
        <pt x="187" y="533" on="1"/>
        <pt x="187" y="522" on="0"/>
        <pt x="197" y="522" on="1"/>
        <pt x="409" y="522" on="1"/>
        <pt x="419" y="522" on="0"/>
        <pt x="419" y="531" on="1"/>
        <pt x="419" y="626" on="1"/>
        <pt x="419" y="643" on="0"/>
        <pt x="436" y="643" on="1"/>
        <pt x="499" y="643" on="1"/>
        <pt x="517" y="643" on="0"/>
        <pt x="517" y="626" on="1"/>
        <pt x="517" y="533" on="1"/>
        <pt x="517" y="522" on="0"/>
        <pt x="528" y="522" on="1"/>
        <pt x="566" y="522" on="1"/>
        <pt x="583" y="522" on="0"/>
        <pt x="583" y="505" on="1"/>
        <pt x="583" y="465" on="1"/>
        <pt x="583" y="449" on="0"/>
        <pt x="566" y="449" on="1"/>
        <pt x="528" y="449" on="1"/>
        <pt x="517" y="449" on="0"/>
        <pt x="517" y="438" on="1"/>
        <pt x="517" y="17" on="1"/>
        <pt x="517" y="0" on="0"/>
        <pt x="499" y="0" on="1"/>
        <pt x="436" y="0" on="1"/>
        <pt x="419" y="0" on="0"/>
        <pt x="419" y="17" on="1"/>
        <pt x="419" y="258" on="1"/>
        <pt x="419" y="269" on="0"/>
        <pt x="408" y="269" on="1"/>
        <pt x="197" y="269" on="1"/>
        <pt x="187" y="269" on="0"/>
        <pt x="187" y="258" on="1"/>
        <pt x="187" y="17" on="1"/>
        <pt x="187" y="0" on="0"/>
      </contour>
      <contour>
        <pt x="197" y="354" on="1"/>
        <pt x="408" y="354" on="1"/>
        <pt x="419" y="354" on="0"/>
        <pt x="419" y="365" on="1"/>
        <pt x="419" y="438" on="1"/>
        <pt x="419" y="449" on="0"/>
        <pt x="408" y="449" on="1"/>
        <pt x="197" y="449" on="1"/>
        <pt x="187" y="449" on="0"/>
        <pt x="187" y="438" on="1"/>
        <pt x="187" y="365" on="1"/>
        <pt x="187" y="354" on="0"/>
      </contour>
    </TTGlyph>
    <TTGlyph name="I" xMin="78" yMin="0" xMax="175" yMax="643">
      <contour>
        <pt x="175" y="626" on="1"/>
        <pt x="175" y="17" on="1"/>
        <pt x="175" y="0" on="0"/>
        <pt x="158" y="0" on="1"/>
        <pt x="95" y="0" on="1"/>
        <pt x="78" y="0" on="0"/>
        <pt x="78" y="17" on="1"/>
        <pt x="78" y="626" on="1"/>
        <pt x="78" y="643" on="0"/>
        <pt x="95" y="643" on="1"/>
        <pt x="158" y="643" on="1"/>
        <pt x="175" y="643" on="0"/>
      </contour>
    </TTGlyph>
    <TTGlyph name="IJ" xMin="80" yMin="0" xMax="673" yMax="643">
      <contour>
        <pt x="593" y="643" on="1"/>
        <pt x="656" y="643" on="1"/>
        <pt x="673" y="643" on="0"/>
        <pt x="673" y="627" on="1"/>
        <pt x="673" y="155" on="1"/>
        <pt x="673" y="82" on="0"/>
        <pt x="591" y="0" on="0"/>
        <pt x="518" y="0" on="1"/>
        <pt x="418" y="0" on="1"/>
        <pt x="344" y="0" on="0"/>
        <pt x="262" y="82" on="0"/>
        <pt x="262" y="155" on="1"/>
        <pt x="262" y="245" on="1"/>
        <pt x="262" y="262" on="0"/>
        <pt x="279" y="262" on="1"/>
        <pt x="343" y="262" on="1"/>
        <pt x="360" y="262" on="0"/>
        <pt x="360" y="245" on="1"/>
        <pt x="360" y="159" on="1"/>
        <pt x="360" y="85" on="0"/>
        <pt x="432" y="85" on="1"/>
        <pt x="503" y="85" on="1"/>
        <pt x="575" y="85" on="0"/>
        <pt x="575" y="159" on="1"/>
        <pt x="575" y="626" on="1"/>
        <pt x="575" y="643" on="0"/>
      </contour>
      <contour>
        <pt x="178" y="626" on="1"/>
        <pt x="178" y="17" on="1"/>
        <pt x="178" y="0" on="0"/>
        <pt x="161" y="0" on="1"/>
        <pt x="97" y="0" on="1"/>
        <pt x="80" y="0" on="0"/>
        <pt x="80" y="17" on="1"/>
        <pt x="80" y="626" on="1"/>
        <pt x="80" y="643" on="0"/>
        <pt x="97" y="643" on="1"/>
        <pt x="161" y="643" on="1"/>
        <pt x="178" y="643" on="0"/>
      </contour>
    </TTGlyph>
    <TTGlyph name="Iacute" xMin="78" yMin="0" xMax="261" yMax="836">
      <contour>
        <pt x="171" y="836" on="1"/>
        <pt x="249" y="836" on="1"/>
        <pt x="258" y="836" on="0"/>
        <pt x="263" y="826" on="0"/>
        <pt x="257" y="819" on="1"/>
        <pt x="173" y="719" on="1"/>
        <pt x="164" y="707" on="0"/>
        <pt x="150" y="707" on="1"/>
        <pt x="102" y="707" on="1"/>
        <pt x="86" y="707" on="0"/>
        <pt x="94" y="724" on="1"/>
        <pt x="145" y="820" on="1"/>
        <pt x="154" y="836" on="0"/>
      </contour>
      <contour>
        <pt x="175" y="626" on="1"/>
        <pt x="175" y="17" on="1"/>
        <pt x="175" y="0" on="0"/>
        <pt x="158" y="0" on="1"/>
        <pt x="95" y="0" on="1"/>
        <pt x="78" y="0" on="0"/>
        <pt x="78" y="17" on="1"/>
        <pt x="78" y="626" on="1"/>
        <pt x="78" y="643" on="0"/>
        <pt x="95" y="643" on="1"/>
        <pt x="158" y="643" on="1"/>
        <pt x="175" y="643" on="0"/>
      </contour>
    </TTGlyph>
    <TTGlyph name="Ibreve" xMin="17" yMin="0" xMax="236" yMax="836">
      <contour>
        <pt x="17" y="824" on="1"/>
        <pt x="17" y="836" on="0"/>
        <pt x="29" y="836" on="1"/>
        <pt x="67" y="836" on="1"/>
        <pt x="80" y="836" on="0"/>
        <pt x="80" y="824" on="1"/>
        <pt x="80" y="814" on="1"/>
        <pt x="80" y="783" on="0"/>
        <pt x="100" y="758" on="0"/>
        <pt x="123" y="758" on="1"/>
        <pt x="130" y="758" on="1"/>
        <pt x="155" y="758" on="0"/>
        <pt x="175" y="784" on="0"/>
        <pt x="175" y="814" on="1"/>
        <pt x="175" y="824" on="1"/>
        <pt x="175" y="836" on="0"/>
        <pt x="187" y="836" on="1"/>
        <pt x="224" y="836" on="1"/>
        <pt x="236" y="836" on="0"/>
        <pt x="236" y="824" on="1"/>
        <pt x="236" y="813" on="1"/>
        <pt x="236" y="707" on="0"/>
        <pt x="139" y="707" on="1"/>
        <pt x="114" y="707" on="1"/>
        <pt x="17" y="707" on="0"/>
        <pt x="17" y="813" on="1"/>
      </contour>
      <contour>
        <pt x="175" y="626" on="1"/>
        <pt x="175" y="17" on="1"/>
        <pt x="175" y="0" on="0"/>
        <pt x="158" y="0" on="1"/>
        <pt x="95" y="0" on="1"/>
        <pt x="78" y="0" on="0"/>
        <pt x="78" y="17" on="1"/>
        <pt x="78" y="626" on="1"/>
        <pt x="78" y="643" on="0"/>
        <pt x="95" y="643" on="1"/>
        <pt x="158" y="643" on="1"/>
        <pt x="175" y="643" on="0"/>
      </contour>
    </TTGlyph>
    <TTGlyph name="Icircumflex" xMin="17" yMin="0" xMax="234" yMax="836">
      <contour>
        <pt x="228" y="707" on="1"/>
        <pt x="181" y="707" on="1"/>
        <pt x="171" y="707" on="0"/>
        <pt x="166" y="717" on="1"/>
        <pt x="125" y="795" on="1"/>
        <pt x="85" y="717" on="1"/>
        <pt x="81" y="707" on="0"/>
        <pt x="69" y="707" on="1"/>
        <pt x="25" y="707" on="1"/>
        <pt x="10" y="707" on="0"/>
        <pt x="17" y="719" on="1"/>
        <pt x="80" y="826" on="1"/>
        <pt x="87" y="836" on="0"/>
        <pt x="102" y="836" on="1"/>
        <pt x="150" y="836" on="1"/>
        <pt x="164" y="836" on="0"/>
        <pt x="171" y="826" on="1"/>
        <pt x="234" y="719" on="1"/>
        <pt x="242" y="707" on="0"/>
      </contour>
      <contour>
        <pt x="175" y="626" on="1"/>
        <pt x="175" y="17" on="1"/>
        <pt x="175" y="0" on="0"/>
        <pt x="158" y="0" on="1"/>
        <pt x="95" y="0" on="1"/>
        <pt x="78" y="0" on="0"/>
        <pt x="78" y="17" on="1"/>
        <pt x="78" y="626" on="1"/>
        <pt x="78" y="643" on="0"/>
        <pt x="95" y="643" on="1"/>
        <pt x="158" y="643" on="1"/>
        <pt x="175" y="643" on="0"/>
      </contour>
    </TTGlyph>
    <TTGlyph name="Idieresis" xMin="-10" yMin="0" xMax="263" yMax="836">
      <contour>
        <pt x="-10" y="724" on="1"/>
        <pt x="-10" y="819" on="1"/>
        <pt x="-10" y="836" on="0"/>
        <pt x="6" y="836" on="1"/>
        <pt x="66" y="836" on="1"/>
        <pt x="83" y="836" on="0"/>
        <pt x="83" y="820" on="1"/>
        <pt x="83" y="724" on="1"/>
        <pt x="83" y="707" on="0"/>
        <pt x="66" y="707" on="1"/>
        <pt x="6" y="707" on="1"/>
        <pt x="-10" y="707" on="0"/>
      </contour>
      <contour>
        <pt x="170" y="724" on="1"/>
        <pt x="170" y="819" on="1"/>
        <pt x="170" y="836" on="0"/>
        <pt x="186" y="836" on="1"/>
        <pt x="246" y="836" on="1"/>
        <pt x="263" y="836" on="0"/>
        <pt x="263" y="820" on="1"/>
        <pt x="263" y="724" on="1"/>
        <pt x="263" y="707" on="0"/>
        <pt x="246" y="707" on="1"/>
        <pt x="186" y="707" on="1"/>
        <pt x="170" y="707" on="0"/>
      </contour>
      <contour>
        <pt x="175" y="626" on="1"/>
        <pt x="175" y="17" on="1"/>
        <pt x="175" y="0" on="0"/>
        <pt x="158" y="0" on="1"/>
        <pt x="95" y="0" on="1"/>
        <pt x="78" y="0" on="0"/>
        <pt x="78" y="17" on="1"/>
        <pt x="78" y="626" on="1"/>
        <pt x="78" y="643" on="0"/>
        <pt x="95" y="643" on="1"/>
        <pt x="158" y="643" on="1"/>
        <pt x="175" y="643" on="0"/>
      </contour>
    </TTGlyph>
    <TTGlyph name="Idotaccent" xMin="78" yMin="0" xMax="175" yMax="821">
      <contour>
        <pt x="175" y="626" on="1"/>
        <pt x="175" y="17" on="1"/>
        <pt x="175" y="0" on="0"/>
        <pt x="158" y="0" on="1"/>
        <pt x="95" y="0" on="1"/>
        <pt x="78" y="0" on="0"/>
        <pt x="78" y="17" on="1"/>
        <pt x="78" y="626" on="1"/>
        <pt x="78" y="643" on="0"/>
        <pt x="95" y="643" on="1"/>
        <pt x="158" y="643" on="1"/>
        <pt x="175" y="643" on="0"/>
      </contour>
      <contour>
        <pt x="78" y="714" on="1"/>
        <pt x="78" y="804" on="1"/>
        <pt x="78" y="821" on="0"/>
        <pt x="94" y="821" on="1"/>
        <pt x="159" y="821" on="1"/>
        <pt x="175" y="821" on="0"/>
        <pt x="175" y="805" on="1"/>
        <pt x="175" y="714" on="1"/>
        <pt x="175" y="697" on="0"/>
        <pt x="159" y="697" on="1"/>
        <pt x="94" y="697" on="1"/>
        <pt x="78" y="697" on="0"/>
      </contour>
    </TTGlyph>
    <TTGlyph name="Igrave" xMin="-7" yMin="0" xMax="175" yMax="836">
      <contour>
        <pt x="151" y="707" on="1"/>
        <pt x="103" y="707" on="1"/>
        <pt x="89" y="707" on="0"/>
        <pt x="80" y="719" on="1"/>
        <pt x="-4" y="819" on="1"/>
        <pt x="-9" y="826" on="0"/>
        <pt x="-4" y="836" on="0"/>
        <pt x="4" y="836" on="1"/>
        <pt x="82" y="836" on="1"/>
        <pt x="100" y="836" on="0"/>
        <pt x="107" y="820" on="1"/>
        <pt x="159" y="724" on="1"/>
        <pt x="168" y="707" on="0"/>
      </contour>
      <contour>
        <pt x="175" y="626" on="1"/>
        <pt x="175" y="17" on="1"/>
        <pt x="175" y="0" on="0"/>
        <pt x="158" y="0" on="1"/>
        <pt x="95" y="0" on="1"/>
        <pt x="78" y="0" on="0"/>
        <pt x="78" y="17" on="1"/>
        <pt x="78" y="626" on="1"/>
        <pt x="78" y="643" on="0"/>
        <pt x="95" y="643" on="1"/>
        <pt x="158" y="643" on="1"/>
        <pt x="175" y="643" on="0"/>
      </contour>
    </TTGlyph>
    <TTGlyph name="Imacron" xMin="10" yMin="0" xMax="243" yMax="809">
      <contour>
        <pt x="226" y="740" on="1"/>
        <pt x="27" y="740" on="1"/>
        <pt x="10" y="740" on="0"/>
        <pt x="10" y="757" on="1"/>
        <pt x="10" y="792" on="1"/>
        <pt x="10" y="809" on="0"/>
        <pt x="27" y="809" on="1"/>
        <pt x="226" y="809" on="1"/>
        <pt x="243" y="809" on="0"/>
        <pt x="243" y="792" on="1"/>
        <pt x="243" y="757" on="1"/>
        <pt x="243" y="740" on="0"/>
      </contour>
      <contour>
        <pt x="175" y="626" on="1"/>
        <pt x="175" y="17" on="1"/>
        <pt x="175" y="0" on="0"/>
        <pt x="158" y="0" on="1"/>
        <pt x="95" y="0" on="1"/>
        <pt x="78" y="0" on="0"/>
        <pt x="78" y="17" on="1"/>
        <pt x="78" y="626" on="1"/>
        <pt x="78" y="643" on="0"/>
        <pt x="95" y="643" on="1"/>
        <pt x="158" y="643" on="1"/>
        <pt x="175" y="643" on="0"/>
      </contour>
    </TTGlyph>
    <TTGlyph name="Iogonek" xMin="50" yMin="-116" xMax="175" yMax="643">
      <contour>
        <pt x="158" y="0" on="1"/>
        <pt x="152" y="0" on="1"/>
        <pt x="108" y="-62" on="1"/>
        <pt x="149" y="-62" on="1"/>
        <pt x="163" y="-62" on="0"/>
        <pt x="173" y="-69" on="0"/>
        <pt x="173" y="-79" on="1"/>
        <pt x="173" y="-96" on="0"/>
        <pt x="115" y="-116" on="0"/>
        <pt x="58" y="-116" on="0"/>
        <pt x="43" y="-85" on="0"/>
        <pt x="56" y="-67" on="1"/>
        <pt x="101" y="0" on="1"/>
        <pt x="95" y="0" on="1"/>
        <pt x="78" y="0" on="0"/>
        <pt x="78" y="17" on="1"/>
        <pt x="78" y="626" on="1"/>
        <pt x="78" y="643" on="0"/>
        <pt x="95" y="643" on="1"/>
        <pt x="158" y="643" on="1"/>
        <pt x="175" y="643" on="0"/>
        <pt x="175" y="626" on="1"/>
        <pt x="175" y="17" on="1"/>
        <pt x="175" y="0" on="0"/>
      </contour>
    </TTGlyph>
    <TTGlyph name="Itilde" xMin="12" yMin="0" xMax="242" yMax="832">
      <contour>
        <pt x="78" y="702" on="1"/>
        <pt x="12" y="702" on="0"/>
        <pt x="12" y="779" on="1"/>
        <pt x="12" y="818" on="1"/>
        <pt x="12" y="828" on="0"/>
        <pt x="21" y="828" on="1"/>
        <pt x="51" y="828" on="1"/>
        <pt x="61" y="828" on="0"/>
        <pt x="61" y="818" on="1"/>
        <pt x="61" y="798" on="1"/>
        <pt x="61" y="772" on="0"/>
        <pt x="69" y="755" on="0"/>
        <pt x="89" y="755" on="0"/>
        <pt x="101" y="769" on="0"/>
        <pt x="129" y="817" on="0"/>
        <pt x="154" y="832" on="0"/>
        <pt x="175" y="832" on="1"/>
        <pt x="242" y="832" on="0"/>
        <pt x="242" y="755" on="1"/>
        <pt x="242" y="717" on="1"/>
        <pt x="242" y="705" on="0"/>
        <pt x="232" y="705" on="1"/>
        <pt x="202" y="705" on="1"/>
        <pt x="192" y="705" on="0"/>
        <pt x="192" y="717" on="1"/>
        <pt x="192" y="736" on="1"/>
        <pt x="192" y="762" on="0"/>
        <pt x="184" y="779" on="0"/>
        <pt x="164" y="779" on="0"/>
        <pt x="153" y="767" on="0"/>
        <pt x="127" y="720" on="0"/>
        <pt x="98" y="702" on="0"/>
      </contour>
      <contour>
        <pt x="175" y="626" on="1"/>
        <pt x="175" y="17" on="1"/>
        <pt x="175" y="0" on="0"/>
        <pt x="158" y="0" on="1"/>
        <pt x="95" y="0" on="1"/>
        <pt x="78" y="0" on="0"/>
        <pt x="78" y="17" on="1"/>
        <pt x="78" y="626" on="1"/>
        <pt x="78" y="643" on="0"/>
        <pt x="95" y="643" on="1"/>
        <pt x="158" y="643" on="1"/>
        <pt x="175" y="643" on="0"/>
      </contour>
    </TTGlyph>
    <TTGlyph name="J" xMin="34" yMin="0" xMax="445" yMax="643">
      <contour>
        <pt x="365" y="643" on="1"/>
        <pt x="428" y="643" on="1"/>
        <pt x="445" y="643" on="0"/>
        <pt x="445" y="627" on="1"/>
        <pt x="445" y="155" on="1"/>
        <pt x="445" y="82" on="0"/>
        <pt x="363" y="0" on="0"/>
        <pt x="290" y="0" on="1"/>
        <pt x="190" y="0" on="1"/>
        <pt x="116" y="0" on="0"/>
        <pt x="34" y="82" on="0"/>
        <pt x="34" y="155" on="1"/>
        <pt x="34" y="245" on="1"/>
        <pt x="34" y="262" on="0"/>
        <pt x="52" y="262" on="1"/>
        <pt x="115" y="262" on="1"/>
        <pt x="132" y="262" on="0"/>
        <pt x="132" y="245" on="1"/>
        <pt x="132" y="159" on="1"/>
        <pt x="132" y="85" on="0"/>
        <pt x="204" y="85" on="1"/>
        <pt x="275" y="85" on="1"/>
        <pt x="347" y="85" on="0"/>
        <pt x="347" y="159" on="1"/>
        <pt x="347" y="626" on="1"/>
        <pt x="347" y="643" on="0"/>
      </contour>
    </TTGlyph>
    <TTGlyph name="Jcircumflex" xMin="34" yMin="0" xMax="503" yMax="836">
      <contour>
        <pt x="365" y="643" on="1"/>
        <pt x="428" y="643" on="1"/>
        <pt x="445" y="643" on="0"/>
        <pt x="445" y="627" on="1"/>
        <pt x="445" y="155" on="1"/>
        <pt x="445" y="82" on="0"/>
        <pt x="363" y="0" on="0"/>
        <pt x="290" y="0" on="1"/>
        <pt x="190" y="0" on="1"/>
        <pt x="116" y="0" on="0"/>
        <pt x="34" y="82" on="0"/>
        <pt x="34" y="155" on="1"/>
        <pt x="34" y="245" on="1"/>
        <pt x="34" y="262" on="0"/>
        <pt x="52" y="262" on="1"/>
        <pt x="115" y="262" on="1"/>
        <pt x="132" y="262" on="0"/>
        <pt x="132" y="245" on="1"/>
        <pt x="132" y="159" on="1"/>
        <pt x="132" y="85" on="0"/>
        <pt x="204" y="85" on="1"/>
        <pt x="275" y="85" on="1"/>
        <pt x="347" y="85" on="0"/>
        <pt x="347" y="159" on="1"/>
        <pt x="347" y="626" on="1"/>
        <pt x="347" y="643" on="0"/>
      </contour>
      <contour>
        <pt x="497" y="707" on="1"/>
        <pt x="451" y="707" on="1"/>
        <pt x="439" y="707" on="0"/>
        <pt x="435" y="717" on="1"/>
        <pt x="395" y="795" on="1"/>
        <pt x="355" y="717" on="1"/>
        <pt x="350" y="707" on="0"/>
        <pt x="339" y="707" on="1"/>
        <pt x="293" y="707" on="1"/>
        <pt x="287" y="707" on="0"/>
        <pt x="283" y="714" on="0"/>
        <pt x="286" y="719" on="1"/>
        <pt x="350" y="826" on="1"/>
        <pt x="357" y="836" on="0"/>
        <pt x="371" y="836" on="1"/>
        <pt x="419" y="836" on="1"/>
        <pt x="433" y="836" on="0"/>
        <pt x="440" y="826" on="1"/>
        <pt x="503" y="719" on="1"/>
        <pt x="511" y="707" on="0"/>
      </contour>
    </TTGlyph>
    <TTGlyph name="K" xMin="73" yMin="0" xMax="528" yMax="643">
      <contour>
        <pt x="153" y="0" on="1"/>
        <pt x="90" y="0" on="1"/>
        <pt x="73" y="0" on="0"/>
        <pt x="73" y="17" on="1"/>
        <pt x="73" y="626" on="1"/>
        <pt x="73" y="643" on="0"/>
        <pt x="90" y="643" on="1"/>
        <pt x="153" y="643" on="1"/>
        <pt x="170" y="643" on="0"/>
        <pt x="170" y="626" on="1"/>
        <pt x="170" y="309" on="1"/>
        <pt x="173" y="309" on="1"/>
        <pt x="183" y="336" on="0"/>
        <pt x="199" y="359" on="1"/>
        <pt x="390" y="626" on="1"/>
        <pt x="401" y="643" on="0"/>
        <pt x="422" y="643" on="1"/>
        <pt x="496" y="643" on="1"/>
        <pt x="517" y="643" on="0"/>
        <pt x="503" y="624" on="1"/>
        <pt x="308" y="359" on="1"/>
        <pt x="528" y="20" on="1"/>
        <pt x="540" y="0" on="0"/>
        <pt x="516" y="0" on="1"/>
        <pt x="460" y="0" on="1"/>
        <pt x="433" y="0" on="0"/>
        <pt x="422" y="17" on="1"/>
        <pt x="249" y="288" on="1"/>
        <pt x="170" y="195" on="1"/>
        <pt x="170" y="17" on="1"/>
        <pt x="170" y="0" on="0"/>
      </contour>
    </TTGlyph>
    <TTGlyph name="L" xMin="73" yMin="0" xMax="431" yMax="643">
      <contour>
        <pt x="414" y="0" on="1"/>
        <pt x="90" y="0" on="1"/>
        <pt x="73" y="0" on="0"/>
        <pt x="73" y="17" on="1"/>
        <pt x="73" y="626" on="1"/>
        <pt x="73" y="643" on="0"/>
        <pt x="90" y="643" on="1"/>
        <pt x="153" y="643" on="1"/>
        <pt x="170" y="643" on="0"/>
        <pt x="170" y="626" on="1"/>
        <pt x="170" y="97" on="1"/>
        <pt x="170" y="87" on="0"/>
        <pt x="182" y="87" on="1"/>
        <pt x="414" y="87" on="1"/>
        <pt x="431" y="87" on="0"/>
        <pt x="431" y="69" on="1"/>
        <pt x="431" y="17" on="1"/>
        <pt x="431" y="0" on="0"/>
      </contour>
    </TTGlyph>
    <TTGlyph name="Lacute" xMin="73" yMin="0" xMax="431" yMax="836">
      <contour>
        <pt x="167" y="836" on="1"/>
        <pt x="245" y="836" on="1"/>
        <pt x="254" y="836" on="0"/>
        <pt x="259" y="826" on="0"/>
        <pt x="253" y="819" on="1"/>
        <pt x="168" y="719" on="1"/>
        <pt x="160" y="707" on="0"/>
        <pt x="146" y="707" on="1"/>
        <pt x="98" y="707" on="1"/>
        <pt x="82" y="707" on="0"/>
        <pt x="89" y="724" on="1"/>
        <pt x="141" y="820" on="1"/>
        <pt x="149" y="836" on="0"/>
      </contour>
      <contour>
        <pt x="414" y="0" on="1"/>
        <pt x="90" y="0" on="1"/>
        <pt x="73" y="0" on="0"/>
        <pt x="73" y="17" on="1"/>
        <pt x="73" y="626" on="1"/>
        <pt x="73" y="643" on="0"/>
        <pt x="90" y="643" on="1"/>
        <pt x="153" y="643" on="1"/>
        <pt x="170" y="643" on="0"/>
        <pt x="170" y="626" on="1"/>
        <pt x="170" y="97" on="1"/>
        <pt x="170" y="87" on="0"/>
        <pt x="182" y="87" on="1"/>
        <pt x="414" y="87" on="1"/>
        <pt x="431" y="87" on="0"/>
        <pt x="431" y="69" on="1"/>
        <pt x="431" y="17" on="1"/>
        <pt x="431" y="0" on="0"/>
      </contour>
    </TTGlyph>
    <TTGlyph name="Lcaron" xMin="73" yMin="0" xMax="431" yMax="643">
      <contour>
        <pt x="382" y="627" on="1"/>
        <pt x="382" y="582" on="1"/>
        <pt x="382" y="554" on="0"/>
        <pt x="364" y="511" on="1"/>
        <pt x="321" y="413" on="1"/>
        <pt x="316" y="404" on="0"/>
        <pt x="306" y="404" on="1"/>
        <pt x="293" y="404" on="0"/>
        <pt x="293" y="420" on="1"/>
        <pt x="293" y="626" on="1"/>
        <pt x="293" y="643" on="0"/>
        <pt x="309" y="643" on="1"/>
        <pt x="366" y="643" on="1"/>
        <pt x="382" y="643" on="0"/>
      </contour>
      <contour>
        <pt x="414" y="0" on="1"/>
        <pt x="90" y="0" on="1"/>
        <pt x="73" y="0" on="0"/>
        <pt x="73" y="17" on="1"/>
        <pt x="73" y="626" on="1"/>
        <pt x="73" y="643" on="0"/>
        <pt x="90" y="643" on="1"/>
        <pt x="153" y="643" on="1"/>
        <pt x="170" y="643" on="0"/>
        <pt x="170" y="626" on="1"/>
        <pt x="170" y="97" on="1"/>
        <pt x="170" y="87" on="0"/>
        <pt x="182" y="87" on="1"/>
        <pt x="414" y="87" on="1"/>
        <pt x="431" y="87" on="0"/>
        <pt x="431" y="69" on="1"/>
        <pt x="431" y="17" on="1"/>
        <pt x="431" y="0" on="0"/>
      </contour>
    </TTGlyph>
    <TTGlyph name="Ldot" xMin="78" yMin="0" xMax="437" yMax="643">
      <contour>
        <pt x="420" y="0" on="1"/>
        <pt x="95" y="0" on="1"/>
        <pt x="78" y="0" on="0"/>
        <pt x="78" y="17" on="1"/>
        <pt x="78" y="626" on="1"/>
        <pt x="78" y="643" on="0"/>
        <pt x="95" y="643" on="1"/>
        <pt x="159" y="643" on="1"/>
        <pt x="176" y="643" on="0"/>
        <pt x="176" y="626" on="1"/>
        <pt x="176" y="97" on="1"/>
        <pt x="176" y="87" on="0"/>
        <pt x="187" y="87" on="1"/>
        <pt x="420" y="87" on="1"/>
        <pt x="437" y="87" on="0"/>
        <pt x="437" y="69" on="1"/>
        <pt x="437" y="17" on="1"/>
        <pt x="437" y="0" on="0"/>
      </contour>
      <contour>
        <pt x="384" y="371" on="1"/>
        <pt x="384" y="267" on="1"/>
        <pt x="384" y="250" on="0"/>
        <pt x="368" y="250" on="1"/>
        <pt x="300" y="250" on="1"/>
        <pt x="283" y="250" on="0"/>
        <pt x="283" y="268" on="1"/>
        <pt x="283" y="370" on="1"/>
        <pt x="283" y="387" on="0"/>
        <pt x="300" y="387" on="1"/>
        <pt x="368" y="387" on="1"/>
        <pt x="384" y="387" on="0"/>
      </contour>
    </TTGlyph>
    <TTGlyph name="Lslash" xMin="14" yMin="0" xMax="456" yMax="643">
      <contour>
        <pt x="440" y="0" on="1"/>
        <pt x="115" y="0" on="1"/>
        <pt x="98" y="0" on="0"/>
        <pt x="98" y="17" on="1"/>
        <pt x="98" y="319" on="1"/>
        <pt x="31" y="281" on="1"/>
        <pt x="24" y="277" on="0"/>
        <pt x="14" y="283" on="0"/>
        <pt x="14" y="291" on="1"/>
        <pt x="14" y="342" on="1"/>
        <pt x="14" y="357" on="0"/>
        <pt x="31" y="367" on="1"/>
        <pt x="98" y="404" on="1"/>
        <pt x="98" y="626" on="1"/>
        <pt x="98" y="643" on="0"/>
        <pt x="115" y="643" on="1"/>
        <pt x="179" y="643" on="1"/>
        <pt x="196" y="643" on="0"/>
        <pt x="196" y="626" on="1"/>
        <pt x="196" y="461" on="1"/>
        <pt x="285" y="511" on="1"/>
        <pt x="302" y="518" on="0"/>
        <pt x="302" y="501" on="1"/>
        <pt x="302" y="449" on="1"/>
        <pt x="302" y="434" on="0"/>
        <pt x="285" y="423" on="1"/>
        <pt x="196" y="373" on="1"/>
        <pt x="196" y="97" on="1"/>
        <pt x="196" y="87" on="0"/>
        <pt x="207" y="87" on="1"/>
        <pt x="440" y="87" on="1"/>
        <pt x="456" y="87" on="0"/>
        <pt x="456" y="69" on="1"/>
        <pt x="456" y="17" on="1"/>
        <pt x="456" y="0" on="0"/>
      </contour>
    </TTGlyph>
    <TTGlyph name="M" xMin="73" yMin="0" xMax="642" yMax="643">
      <contour>
        <pt x="513" y="643" on="1"/>
        <pt x="625" y="643" on="1"/>
        <pt x="642" y="643" on="0"/>
        <pt x="642" y="626" on="1"/>
        <pt x="642" y="17" on="1"/>
        <pt x="642" y="0" on="0"/>
        <pt x="625" y="0" on="1"/>
        <pt x="563" y="0" on="1"/>
        <pt x="546" y="0" on="0"/>
        <pt x="546" y="17" on="1"/>
        <pt x="546" y="522" on="1"/>
        <pt x="542" y="522" on="1"/>
        <pt x="412" y="156" on="1"/>
        <pt x="406" y="140" on="0"/>
        <pt x="390" y="140" on="1"/>
        <pt x="326" y="140" on="1"/>
        <pt x="311" y="140" on="0"/>
        <pt x="305" y="156" on="1"/>
        <pt x="172" y="523" on="1"/>
        <pt x="168" y="523" on="1"/>
        <pt x="168" y="17" on="1"/>
        <pt x="168" y="7" on="0"/>
        <pt x="161" y="0" on="0"/>
        <pt x="151" y="0" on="1"/>
        <pt x="90" y="0" on="1"/>
        <pt x="73" y="0" on="0"/>
        <pt x="73" y="17" on="1"/>
        <pt x="73" y="626" on="1"/>
        <pt x="73" y="643" on="0"/>
        <pt x="90" y="643" on="1"/>
        <pt x="202" y="643" on="1"/>
        <pt x="213" y="643" on="0"/>
        <pt x="218" y="632" on="1"/>
        <pt x="355" y="246" on="1"/>
        <pt x="360" y="246" on="1"/>
        <pt x="498" y="632" on="1"/>
        <pt x="500" y="643" on="0"/>
      </contour>
    </TTGlyph>
    <TTGlyph name="Mu" xMin="77" yMin="-133" xMax="474" yMax="510">
      <contour>
        <pt x="237" y="0" on="1"/>
        <pt x="189" y="0" on="0"/>
        <pt x="175" y="18" on="1"/>
        <pt x="175" y="-116" on="1"/>
        <pt x="175" y="-133" on="0"/>
        <pt x="157" y="-133" on="1"/>
        <pt x="94" y="-133" on="1"/>
        <pt x="77" y="-133" on="0"/>
        <pt x="77" y="-116" on="1"/>
        <pt x="77" y="493" on="1"/>
        <pt x="77" y="510" on="0"/>
        <pt x="94" y="510" on="1"/>
        <pt x="157" y="510" on="1"/>
        <pt x="175" y="510" on="0"/>
        <pt x="175" y="493" on="1"/>
        <pt x="175" y="159" on="1"/>
        <pt x="175" y="85" on="0"/>
        <pt x="246" y="85" on="1"/>
        <pt x="294" y="85" on="1"/>
        <pt x="376" y="85" on="0"/>
        <pt x="376" y="170" on="1"/>
        <pt x="376" y="493" on="1"/>
        <pt x="376" y="510" on="0"/>
        <pt x="393" y="510" on="1"/>
        <pt x="456" y="510" on="1"/>
        <pt x="474" y="510" on="0"/>
        <pt x="474" y="493" on="1"/>
        <pt x="474" y="17" on="1"/>
        <pt x="474" y="0" on="0"/>
        <pt x="456" y="0" on="1"/>
        <pt x="393" y="0" on="1"/>
        <pt x="376" y="0" on="0"/>
        <pt x="376" y="17" on="1"/>
        <pt x="376" y="53" on="1"/>
        <pt x="372" y="53" on="1"/>
        <pt x="348" y="0" on="0"/>
        <pt x="271" y="0" on="1"/>
        <pt x="254" y="0" on="0"/>
      </contour>
    </TTGlyph>
    <TTGlyph name="N" xMin="73" yMin="0" xMax="510" yMax="643">
      <contour>
        <pt x="152" y="0" on="1"/>
        <pt x="90" y="0" on="1"/>
        <pt x="73" y="0" on="0"/>
        <pt x="73" y="17" on="1"/>
        <pt x="73" y="626" on="1"/>
        <pt x="73" y="643" on="0"/>
        <pt x="90" y="643" on="1"/>
        <pt x="146" y="643" on="1"/>
        <pt x="162" y="643" on="0"/>
        <pt x="168" y="632" on="1"/>
        <pt x="410" y="197" on="1"/>
        <pt x="414" y="197" on="1"/>
        <pt x="414" y="626" on="1"/>
        <pt x="414" y="643" on="0"/>
        <pt x="431" y="643" on="1"/>
        <pt x="493" y="643" on="1"/>
        <pt x="510" y="643" on="0"/>
        <pt x="510" y="626" on="1"/>
        <pt x="510" y="17" on="1"/>
        <pt x="510" y="0" on="0"/>
        <pt x="493" y="0" on="1"/>
        <pt x="439" y="0" on="1"/>
        <pt x="423" y="0" on="0"/>
        <pt x="413" y="16" on="1"/>
        <pt x="173" y="446" on="1"/>
        <pt x="169" y="446" on="1"/>
        <pt x="169" y="17" on="1"/>
        <pt x="169" y="0" on="0"/>
      </contour>
    </TTGlyph>
    <TTGlyph name="Nacute" xMin="73" yMin="0" xMax="510" yMax="836">
      <contour>
        <pt x="336" y="836" on="1"/>
        <pt x="413" y="836" on="1"/>
        <pt x="422" y="836" on="0"/>
        <pt x="427" y="826" on="0"/>
        <pt x="422" y="819" on="1"/>
        <pt x="337" y="719" on="1"/>
        <pt x="330" y="707" on="0"/>
        <pt x="315" y="707" on="1"/>
        <pt x="266" y="707" on="1"/>
        <pt x="251" y="707" on="0"/>
        <pt x="258" y="724" on="1"/>
        <pt x="310" y="820" on="1"/>
        <pt x="318" y="836" on="0"/>
      </contour>
      <contour>
        <pt x="152" y="0" on="1"/>
        <pt x="90" y="0" on="1"/>
        <pt x="73" y="0" on="0"/>
        <pt x="73" y="17" on="1"/>
        <pt x="73" y="626" on="1"/>
        <pt x="73" y="643" on="0"/>
        <pt x="90" y="643" on="1"/>
        <pt x="146" y="643" on="1"/>
        <pt x="162" y="643" on="0"/>
        <pt x="168" y="632" on="1"/>
        <pt x="410" y="197" on="1"/>
        <pt x="414" y="197" on="1"/>
        <pt x="414" y="626" on="1"/>
        <pt x="414" y="643" on="0"/>
        <pt x="431" y="643" on="1"/>
        <pt x="493" y="643" on="1"/>
        <pt x="510" y="643" on="0"/>
        <pt x="510" y="626" on="1"/>
        <pt x="510" y="17" on="1"/>
        <pt x="510" y="0" on="0"/>
        <pt x="493" y="0" on="1"/>
        <pt x="439" y="0" on="1"/>
        <pt x="423" y="0" on="0"/>
        <pt x="413" y="16" on="1"/>
        <pt x="173" y="446" on="1"/>
        <pt x="169" y="446" on="1"/>
        <pt x="169" y="17" on="1"/>
        <pt x="169" y="0" on="0"/>
      </contour>
    </TTGlyph>
    <TTGlyph name="Ncaron" xMin="73" yMin="0" xMax="510" yMax="836">
      <contour>
        <pt x="152" y="0" on="1"/>
        <pt x="90" y="0" on="1"/>
        <pt x="73" y="0" on="0"/>
        <pt x="73" y="17" on="1"/>
        <pt x="73" y="626" on="1"/>
        <pt x="73" y="643" on="0"/>
        <pt x="90" y="643" on="1"/>
        <pt x="146" y="643" on="1"/>
        <pt x="162" y="643" on="0"/>
        <pt x="168" y="632" on="1"/>
        <pt x="410" y="197" on="1"/>
        <pt x="414" y="197" on="1"/>
        <pt x="414" y="626" on="1"/>
        <pt x="414" y="643" on="0"/>
        <pt x="431" y="643" on="1"/>
        <pt x="493" y="643" on="1"/>
        <pt x="510" y="643" on="0"/>
        <pt x="510" y="626" on="1"/>
        <pt x="510" y="17" on="1"/>
        <pt x="510" y="0" on="0"/>
        <pt x="493" y="0" on="1"/>
        <pt x="439" y="0" on="1"/>
        <pt x="423" y="0" on="0"/>
        <pt x="413" y="16" on="1"/>
        <pt x="173" y="446" on="1"/>
        <pt x="169" y="446" on="1"/>
        <pt x="169" y="17" on="1"/>
        <pt x="169" y="0" on="0"/>
      </contour>
      <contour>
        <pt x="274" y="707" on="1"/>
        <pt x="259" y="707" on="0"/>
        <pt x="252" y="717" on="1"/>
        <pt x="189" y="824" on="1"/>
        <pt x="186" y="828" on="0"/>
        <pt x="190" y="836" on="0"/>
        <pt x="196" y="836" on="1"/>
        <pt x="241" y="836" on="1"/>
        <pt x="253" y="836" on="0"/>
        <pt x="257" y="826" on="1"/>
        <pt x="297" y="748" on="1"/>
        <pt x="338" y="826" on="1"/>
        <pt x="342" y="836" on="0"/>
        <pt x="353" y="836" on="1"/>
        <pt x="400" y="836" on="1"/>
        <pt x="406" y="836" on="0"/>
        <pt x="409" y="828" on="0"/>
        <pt x="406" y="824" on="1"/>
        <pt x="343" y="717" on="1"/>
        <pt x="336" y="707" on="0"/>
        <pt x="322" y="707" on="1"/>
      </contour>
    </TTGlyph>
    <TTGlyph name="Ntilde" xMin="73" yMin="0" xMax="510" yMax="832">
      <contour>
        <pt x="244" y="702" on="1"/>
        <pt x="178" y="702" on="0"/>
        <pt x="178" y="779" on="1"/>
        <pt x="178" y="818" on="1"/>
        <pt x="178" y="828" on="0"/>
        <pt x="187" y="828" on="1"/>
        <pt x="216" y="828" on="1"/>
        <pt x="227" y="828" on="0"/>
        <pt x="227" y="818" on="1"/>
        <pt x="227" y="798" on="1"/>
        <pt x="227" y="772" on="0"/>
        <pt x="235" y="755" on="0"/>
        <pt x="255" y="755" on="0"/>
        <pt x="267" y="769" on="0"/>
        <pt x="294" y="816" on="0"/>
        <pt x="320" y="832" on="0"/>
        <pt x="340" y="832" on="1"/>
        <pt x="407" y="832" on="0"/>
        <pt x="407" y="755" on="1"/>
        <pt x="407" y="717" on="1"/>
        <pt x="407" y="705" on="0"/>
        <pt x="397" y="705" on="1"/>
        <pt x="368" y="705" on="1"/>
        <pt x="358" y="705" on="0"/>
        <pt x="358" y="717" on="1"/>
        <pt x="358" y="736" on="1"/>
        <pt x="358" y="762" on="0"/>
        <pt x="349" y="779" on="0"/>
        <pt x="329" y="779" on="0"/>
        <pt x="320" y="769" on="0"/>
        <pt x="309" y="751" on="0"/>
        <pt x="307" y="748" on="0"/>
        <pt x="306" y="746" on="1"/>
        <pt x="293" y="720" on="0"/>
        <pt x="265" y="702" on="0"/>
      </contour>
      <contour>
        <pt x="152" y="0" on="1"/>
        <pt x="90" y="0" on="1"/>
        <pt x="73" y="0" on="0"/>
        <pt x="73" y="17" on="1"/>
        <pt x="73" y="626" on="1"/>
        <pt x="73" y="643" on="0"/>
        <pt x="90" y="643" on="1"/>
        <pt x="146" y="643" on="1"/>
        <pt x="162" y="643" on="0"/>
        <pt x="168" y="632" on="1"/>
        <pt x="410" y="197" on="1"/>
        <pt x="414" y="197" on="1"/>
        <pt x="414" y="626" on="1"/>
        <pt x="414" y="643" on="0"/>
        <pt x="431" y="643" on="1"/>
        <pt x="493" y="643" on="1"/>
        <pt x="510" y="643" on="0"/>
        <pt x="510" y="626" on="1"/>
        <pt x="510" y="17" on="1"/>
        <pt x="510" y="0" on="0"/>
        <pt x="493" y="0" on="1"/>
        <pt x="439" y="0" on="1"/>
        <pt x="423" y="0" on="0"/>
        <pt x="413" y="16" on="1"/>
        <pt x="173" y="446" on="1"/>
        <pt x="169" y="446" on="1"/>
        <pt x="169" y="17" on="1"/>
        <pt x="169" y="0" on="0"/>
      </contour>
    </TTGlyph>
    <TTGlyph name="O" xMin="63" yMin="0" xMax="490" yMax="643">
      <contour>
        <pt x="232" y="85" on="1"/>
        <pt x="319" y="85" on="1"/>
        <pt x="392" y="85" on="0"/>
        <pt x="392" y="159" on="1"/>
        <pt x="392" y="484" on="1"/>
        <pt x="392" y="558" on="0"/>
        <pt x="319" y="558" on="1"/>
        <pt x="232" y="558" on="1"/>
        <pt x="160" y="558" on="0"/>
        <pt x="160" y="484" on="1"/>
        <pt x="160" y="159" on="1"/>
        <pt x="160" y="85" on="0"/>
      </contour>
      <contour>
        <pt x="334" y="0" on="1"/>
        <pt x="218" y="0" on="1"/>
        <pt x="144" y="0" on="0"/>
        <pt x="63" y="82" on="0"/>
        <pt x="63" y="155" on="1"/>
        <pt x="63" y="488" on="1"/>
        <pt x="63" y="562" on="0"/>
        <pt x="144" y="643" on="0"/>
        <pt x="218" y="643" on="1"/>
        <pt x="334" y="643" on="1"/>
        <pt x="408" y="643" on="0"/>
        <pt x="490" y="562" on="0"/>
        <pt x="490" y="488" on="1"/>
        <pt x="490" y="155" on="1"/>
        <pt x="490" y="82" on="0"/>
        <pt x="408" y="0" on="0"/>
      </contour>
    </TTGlyph>
    <TTGlyph name="OE" xMin="68" yMin="0" xMax="716" yMax="643">
      <contour>
        <pt x="68" y="155" on="1"/>
        <pt x="68" y="488" on="1"/>
        <pt x="68" y="562" on="0"/>
        <pt x="150" y="643" on="0"/>
        <pt x="224" y="643" on="1"/>
        <pt x="699" y="643" on="1"/>
        <pt x="716" y="643" on="0"/>
        <pt x="716" y="626" on="1"/>
        <pt x="716" y="575" on="1"/>
        <pt x="716" y="558" on="0"/>
        <pt x="699" y="558" on="1"/>
        <pt x="476" y="558" on="1"/>
        <pt x="466" y="558" on="0"/>
        <pt x="466" y="548" on="1"/>
        <pt x="466" y="379" on="1"/>
        <pt x="466" y="369" on="0"/>
        <pt x="476" y="369" on="1"/>
        <pt x="665" y="369" on="1"/>
        <pt x="682" y="369" on="0"/>
        <pt x="682" y="352" on="1"/>
        <pt x="682" y="301" on="1"/>
        <pt x="682" y="284" on="0"/>
        <pt x="665" y="284" on="1"/>
        <pt x="476" y="284" on="1"/>
        <pt x="466" y="284" on="0"/>
        <pt x="466" y="274" on="1"/>
        <pt x="466" y="96" on="1"/>
        <pt x="466" y="85" on="0"/>
        <pt x="476" y="85" on="1"/>
        <pt x="699" y="85" on="1"/>
        <pt x="716" y="85" on="0"/>
        <pt x="716" y="68" on="1"/>
        <pt x="716" y="17" on="1"/>
        <pt x="716" y="0" on="0"/>
        <pt x="699" y="0" on="1"/>
        <pt x="224" y="0" on="1"/>
        <pt x="150" y="0" on="0"/>
        <pt x="68" y="82" on="0"/>
      </contour>
      <contour>
        <pt x="239" y="85" on="1"/>
        <pt x="357" y="85" on="1"/>
        <pt x="369" y="85" on="0"/>
        <pt x="369" y="96" on="1"/>
        <pt x="369" y="548" on="1"/>
        <pt x="369" y="558" on="0"/>
        <pt x="357" y="558" on="1"/>
        <pt x="239" y="558" on="1"/>
        <pt x="167" y="558" on="0"/>
        <pt x="167" y="484" on="1"/>
        <pt x="167" y="159" on="1"/>
        <pt x="167" y="85" on="0"/>
      </contour>
    </TTGlyph>
    <TTGlyph name="Oacute" xMin="63" yMin="0" xMax="490" yMax="836">
      <contour>
        <pt x="312" y="836" on="1"/>
        <pt x="390" y="836" on="1"/>
        <pt x="398" y="836" on="0"/>
        <pt x="403" y="826" on="0"/>
        <pt x="398" y="819" on="1"/>
        <pt x="314" y="719" on="1"/>
        <pt x="305" y="707" on="0"/>
        <pt x="291" y="707" on="1"/>
        <pt x="243" y="707" on="1"/>
        <pt x="226" y="707" on="0"/>
        <pt x="235" y="724" on="1"/>
        <pt x="287" y="820" on="1"/>
        <pt x="294" y="836" on="0"/>
      </contour>
      <contour>
        <pt x="232" y="85" on="1"/>
        <pt x="319" y="85" on="1"/>
        <pt x="392" y="85" on="0"/>
        <pt x="392" y="159" on="1"/>
        <pt x="392" y="484" on="1"/>
        <pt x="392" y="558" on="0"/>
        <pt x="319" y="558" on="1"/>
        <pt x="232" y="558" on="1"/>
        <pt x="160" y="558" on="0"/>
        <pt x="160" y="484" on="1"/>
        <pt x="160" y="159" on="1"/>
        <pt x="160" y="85" on="0"/>
      </contour>
      <contour>
        <pt x="334" y="0" on="1"/>
        <pt x="218" y="0" on="1"/>
        <pt x="144" y="0" on="0"/>
        <pt x="63" y="82" on="0"/>
        <pt x="63" y="155" on="1"/>
        <pt x="63" y="488" on="1"/>
        <pt x="63" y="562" on="0"/>
        <pt x="144" y="643" on="0"/>
        <pt x="218" y="643" on="1"/>
        <pt x="334" y="643" on="1"/>
        <pt x="408" y="643" on="0"/>
        <pt x="490" y="562" on="0"/>
        <pt x="490" y="488" on="1"/>
        <pt x="490" y="155" on="1"/>
        <pt x="490" y="82" on="0"/>
        <pt x="408" y="0" on="0"/>
      </contour>
    </TTGlyph>
    <TTGlyph name="Obreve" xMin="63" yMin="0" xMax="490" yMax="836">
      <contour>
        <pt x="167" y="824" on="1"/>
        <pt x="167" y="836" on="0"/>
        <pt x="179" y="836" on="1"/>
        <pt x="217" y="836" on="1"/>
        <pt x="229" y="836" on="0"/>
        <pt x="229" y="824" on="1"/>
        <pt x="229" y="814" on="1"/>
        <pt x="229" y="784" on="0"/>
        <pt x="250" y="758" on="0"/>
        <pt x="273" y="758" on="1"/>
        <pt x="279" y="758" on="1"/>
        <pt x="304" y="758" on="0"/>
        <pt x="325" y="784" on="0"/>
        <pt x="325" y="814" on="1"/>
        <pt x="325" y="824" on="1"/>
        <pt x="325" y="836" on="0"/>
        <pt x="337" y="836" on="1"/>
        <pt x="374" y="836" on="1"/>
        <pt x="386" y="836" on="0"/>
        <pt x="386" y="824" on="1"/>
        <pt x="386" y="813" on="1"/>
        <pt x="386" y="707" on="0"/>
        <pt x="289" y="707" on="1"/>
        <pt x="264" y="707" on="1"/>
        <pt x="167" y="707" on="0"/>
        <pt x="167" y="813" on="1"/>
      </contour>
      <contour>
        <pt x="232" y="85" on="1"/>
        <pt x="319" y="85" on="1"/>
        <pt x="392" y="85" on="0"/>
        <pt x="392" y="159" on="1"/>
        <pt x="392" y="484" on="1"/>
        <pt x="392" y="558" on="0"/>
        <pt x="319" y="558" on="1"/>
        <pt x="232" y="558" on="1"/>
        <pt x="160" y="558" on="0"/>
        <pt x="160" y="484" on="1"/>
        <pt x="160" y="159" on="1"/>
        <pt x="160" y="85" on="0"/>
      </contour>
      <contour>
        <pt x="334" y="0" on="1"/>
        <pt x="218" y="0" on="1"/>
        <pt x="144" y="0" on="0"/>
        <pt x="63" y="82" on="0"/>
        <pt x="63" y="155" on="1"/>
        <pt x="63" y="488" on="1"/>
        <pt x="63" y="562" on="0"/>
        <pt x="144" y="643" on="0"/>
        <pt x="218" y="643" on="1"/>
        <pt x="334" y="643" on="1"/>
        <pt x="408" y="643" on="0"/>
        <pt x="490" y="562" on="0"/>
        <pt x="490" y="488" on="1"/>
        <pt x="490" y="155" on="1"/>
        <pt x="490" y="82" on="0"/>
        <pt x="408" y="0" on="0"/>
      </contour>
    </TTGlyph>
    <TTGlyph name="Ocircumflex" xMin="63" yMin="0" xMax="490" yMax="836">
      <contour>
        <pt x="380" y="707" on="1"/>
        <pt x="334" y="707" on="1"/>
        <pt x="323" y="707" on="0"/>
        <pt x="319" y="717" on="1"/>
        <pt x="278" y="795" on="1"/>
        <pt x="238" y="717" on="1"/>
        <pt x="234" y="707" on="0"/>
        <pt x="222" y="707" on="1"/>
        <pt x="177" y="707" on="1"/>
        <pt x="162" y="707" on="0"/>
        <pt x="170" y="719" on="1"/>
        <pt x="233" y="826" on="1"/>
        <pt x="240" y="836" on="0"/>
        <pt x="254" y="836" on="1"/>
        <pt x="303" y="836" on="1"/>
        <pt x="317" y="836" on="0"/>
        <pt x="324" y="826" on="1"/>
        <pt x="386" y="719" on="1"/>
        <pt x="394" y="707" on="0"/>
      </contour>
      <contour>
        <pt x="232" y="85" on="1"/>
        <pt x="319" y="85" on="1"/>
        <pt x="392" y="85" on="0"/>
        <pt x="392" y="159" on="1"/>
        <pt x="392" y="484" on="1"/>
        <pt x="392" y="558" on="0"/>
        <pt x="319" y="558" on="1"/>
        <pt x="232" y="558" on="1"/>
        <pt x="160" y="558" on="0"/>
        <pt x="160" y="484" on="1"/>
        <pt x="160" y="159" on="1"/>
        <pt x="160" y="85" on="0"/>
      </contour>
      <contour>
        <pt x="334" y="0" on="1"/>
        <pt x="218" y="0" on="1"/>
        <pt x="144" y="0" on="0"/>
        <pt x="63" y="82" on="0"/>
        <pt x="63" y="155" on="1"/>
        <pt x="63" y="488" on="1"/>
        <pt x="63" y="562" on="0"/>
        <pt x="144" y="643" on="0"/>
        <pt x="218" y="643" on="1"/>
        <pt x="334" y="643" on="1"/>
        <pt x="408" y="643" on="0"/>
        <pt x="490" y="562" on="0"/>
        <pt x="490" y="488" on="1"/>
        <pt x="490" y="155" on="1"/>
        <pt x="490" y="82" on="0"/>
        <pt x="408" y="0" on="0"/>
      </contour>
    </TTGlyph>
    <TTGlyph name="Odieresis" xMin="63" yMin="0" xMax="490" yMax="836">
      <contour>
        <pt x="140" y="724" on="1"/>
        <pt x="140" y="819" on="1"/>
        <pt x="140" y="836" on="0"/>
        <pt x="156" y="836" on="1"/>
        <pt x="216" y="836" on="1"/>
        <pt x="232" y="836" on="0"/>
        <pt x="232" y="820" on="1"/>
        <pt x="232" y="724" on="1"/>
        <pt x="232" y="707" on="0"/>
        <pt x="216" y="707" on="1"/>
        <pt x="156" y="707" on="1"/>
        <pt x="140" y="707" on="0"/>
      </contour>
      <contour>
        <pt x="320" y="724" on="1"/>
        <pt x="320" y="819" on="1"/>
        <pt x="320" y="836" on="0"/>
        <pt x="336" y="836" on="1"/>
        <pt x="396" y="836" on="1"/>
        <pt x="412" y="836" on="0"/>
        <pt x="412" y="820" on="1"/>
        <pt x="412" y="724" on="1"/>
        <pt x="412" y="707" on="0"/>
        <pt x="396" y="707" on="1"/>
        <pt x="336" y="707" on="1"/>
        <pt x="320" y="707" on="0"/>
      </contour>
      <contour>
        <pt x="232" y="85" on="1"/>
        <pt x="319" y="85" on="1"/>
        <pt x="392" y="85" on="0"/>
        <pt x="392" y="159" on="1"/>
        <pt x="392" y="484" on="1"/>
        <pt x="392" y="558" on="0"/>
        <pt x="319" y="558" on="1"/>
        <pt x="232" y="558" on="1"/>
        <pt x="160" y="558" on="0"/>
        <pt x="160" y="484" on="1"/>
        <pt x="160" y="159" on="1"/>
        <pt x="160" y="85" on="0"/>
      </contour>
      <contour>
        <pt x="334" y="0" on="1"/>
        <pt x="218" y="0" on="1"/>
        <pt x="144" y="0" on="0"/>
        <pt x="63" y="82" on="0"/>
        <pt x="63" y="155" on="1"/>
        <pt x="63" y="488" on="1"/>
        <pt x="63" y="562" on="0"/>
        <pt x="144" y="643" on="0"/>
        <pt x="218" y="643" on="1"/>
        <pt x="334" y="643" on="1"/>
        <pt x="408" y="643" on="0"/>
        <pt x="490" y="562" on="0"/>
        <pt x="490" y="488" on="1"/>
        <pt x="490" y="155" on="1"/>
        <pt x="490" y="82" on="0"/>
        <pt x="408" y="0" on="0"/>
      </contour>
    </TTGlyph>
    <TTGlyph name="Ograve" xMin="63" yMin="0" xMax="490" yMax="836">
      <contour>
        <pt x="301" y="707" on="1"/>
        <pt x="253" y="707" on="1"/>
        <pt x="239" y="707" on="0"/>
        <pt x="230" y="719" on="1"/>
        <pt x="146" y="819" on="1"/>
        <pt x="141" y="826" on="0"/>
        <pt x="146" y="836" on="0"/>
        <pt x="154" y="836" on="1"/>
        <pt x="232" y="836" on="1"/>
        <pt x="250" y="836" on="0"/>
        <pt x="257" y="820" on="1"/>
        <pt x="309" y="724" on="1"/>
        <pt x="318" y="707" on="0"/>
      </contour>
      <contour>
        <pt x="232" y="85" on="1"/>
        <pt x="319" y="85" on="1"/>
        <pt x="392" y="85" on="0"/>
        <pt x="392" y="159" on="1"/>
        <pt x="392" y="484" on="1"/>
        <pt x="392" y="558" on="0"/>
        <pt x="319" y="558" on="1"/>
        <pt x="232" y="558" on="1"/>
        <pt x="160" y="558" on="0"/>
        <pt x="160" y="484" on="1"/>
        <pt x="160" y="159" on="1"/>
        <pt x="160" y="85" on="0"/>
      </contour>
      <contour>
        <pt x="334" y="0" on="1"/>
        <pt x="218" y="0" on="1"/>
        <pt x="144" y="0" on="0"/>
        <pt x="63" y="82" on="0"/>
        <pt x="63" y="155" on="1"/>
        <pt x="63" y="488" on="1"/>
        <pt x="63" y="562" on="0"/>
        <pt x="144" y="643" on="0"/>
        <pt x="218" y="643" on="1"/>
        <pt x="334" y="643" on="1"/>
        <pt x="408" y="643" on="0"/>
        <pt x="490" y="562" on="0"/>
        <pt x="490" y="488" on="1"/>
        <pt x="490" y="155" on="1"/>
        <pt x="490" y="82" on="0"/>
        <pt x="408" y="0" on="0"/>
      </contour>
    </TTGlyph>
    <TTGlyph name="Ohungarumlaut" xMin="63" yMin="0" xMax="490" yMax="836">
      <contour>
        <pt x="251" y="836" on="1"/>
        <pt x="303" y="836" on="1"/>
        <pt x="322" y="836" on="0"/>
        <pt x="312" y="819" on="1"/>
        <pt x="237" y="719" on="1"/>
        <pt x="228" y="707" on="0"/>
        <pt x="215" y="707" on="1"/>
        <pt x="183" y="707" on="1"/>
        <pt x="166" y="707" on="0"/>
        <pt x="175" y="724" on="1"/>
        <pt x="226" y="820" on="1"/>
        <pt x="235" y="836" on="0"/>
      </contour>
      <contour>
        <pt x="393" y="836" on="1"/>
        <pt x="445" y="836" on="1"/>
        <pt x="464" y="836" on="0"/>
        <pt x="453" y="819" on="1"/>
        <pt x="379" y="719" on="1"/>
        <pt x="368" y="707" on="0"/>
        <pt x="356" y="707" on="1"/>
        <pt x="325" y="707" on="1"/>
        <pt x="308" y="707" on="0"/>
        <pt x="317" y="724" on="1"/>
        <pt x="368" y="820" on="1"/>
        <pt x="375" y="836" on="0"/>
      </contour>
      <contour>
        <pt x="232" y="85" on="1"/>
        <pt x="319" y="85" on="1"/>
        <pt x="392" y="85" on="0"/>
        <pt x="392" y="159" on="1"/>
        <pt x="392" y="484" on="1"/>
        <pt x="392" y="558" on="0"/>
        <pt x="319" y="558" on="1"/>
        <pt x="232" y="558" on="1"/>
        <pt x="160" y="558" on="0"/>
        <pt x="160" y="484" on="1"/>
        <pt x="160" y="159" on="1"/>
        <pt x="160" y="85" on="0"/>
      </contour>
      <contour>
        <pt x="334" y="0" on="1"/>
        <pt x="218" y="0" on="1"/>
        <pt x="144" y="0" on="0"/>
        <pt x="63" y="82" on="0"/>
        <pt x="63" y="155" on="1"/>
        <pt x="63" y="488" on="1"/>
        <pt x="63" y="562" on="0"/>
        <pt x="144" y="643" on="0"/>
        <pt x="218" y="643" on="1"/>
        <pt x="334" y="643" on="1"/>
        <pt x="408" y="643" on="0"/>
        <pt x="490" y="562" on="0"/>
        <pt x="490" y="488" on="1"/>
        <pt x="490" y="155" on="1"/>
        <pt x="490" y="82" on="0"/>
        <pt x="408" y="0" on="0"/>
      </contour>
    </TTGlyph>
    <TTGlyph name="Omacron" xMin="63" yMin="0" xMax="490" yMax="809">
      <contour>
        <pt x="376" y="740" on="1"/>
        <pt x="176" y="740" on="1"/>
        <pt x="159" y="740" on="0"/>
        <pt x="159" y="757" on="1"/>
        <pt x="159" y="792" on="1"/>
        <pt x="159" y="809" on="0"/>
        <pt x="176" y="809" on="1"/>
        <pt x="376" y="809" on="1"/>
        <pt x="393" y="809" on="0"/>
        <pt x="393" y="792" on="1"/>
        <pt x="393" y="757" on="1"/>
        <pt x="393" y="740" on="0"/>
      </contour>
      <contour>
        <pt x="232" y="85" on="1"/>
        <pt x="319" y="85" on="1"/>
        <pt x="392" y="85" on="0"/>
        <pt x="392" y="159" on="1"/>
        <pt x="392" y="484" on="1"/>
        <pt x="392" y="558" on="0"/>
        <pt x="319" y="558" on="1"/>
        <pt x="232" y="558" on="1"/>
        <pt x="160" y="558" on="0"/>
        <pt x="160" y="484" on="1"/>
        <pt x="160" y="159" on="1"/>
        <pt x="160" y="85" on="0"/>
      </contour>
      <contour>
        <pt x="334" y="0" on="1"/>
        <pt x="218" y="0" on="1"/>
        <pt x="144" y="0" on="0"/>
        <pt x="63" y="82" on="0"/>
        <pt x="63" y="155" on="1"/>
        <pt x="63" y="488" on="1"/>
        <pt x="63" y="562" on="0"/>
        <pt x="144" y="643" on="0"/>
        <pt x="218" y="643" on="1"/>
        <pt x="334" y="643" on="1"/>
        <pt x="408" y="643" on="0"/>
        <pt x="490" y="562" on="0"/>
        <pt x="490" y="488" on="1"/>
        <pt x="490" y="155" on="1"/>
        <pt x="490" y="82" on="0"/>
        <pt x="408" y="0" on="0"/>
      </contour>
    </TTGlyph>
    <TTGlyph name="Oslash" xMin="50" yMin="0" xMax="523" yMax="643">
      <contour>
        <pt x="502" y="488" on="1"/>
        <pt x="502" y="155" on="1"/>
        <pt x="502" y="82" on="0"/>
        <pt x="420" y="0" on="0"/>
        <pt x="347" y="0" on="1"/>
        <pt x="225" y="0" on="1"/>
        <pt x="157" y="0" on="0"/>
        <pt x="117" y="35" on="1"/>
        <pt x="97" y="7" on="1"/>
        <pt x="86" y="-7" on="0"/>
        <pt x="71" y="2" on="1"/>
        <pt x="54" y="15" on="1"/>
        <pt x="40" y="26" on="0"/>
        <pt x="50" y="41" on="1"/>
        <pt x="82" y="86" on="1"/>
        <pt x="70" y="116" on="0"/>
        <pt x="70" y="155" on="1"/>
        <pt x="70" y="488" on="1"/>
        <pt x="70" y="562" on="0"/>
        <pt x="151" y="643" on="0"/>
        <pt x="225" y="643" on="1"/>
        <pt x="347" y="643" on="1"/>
        <pt x="415" y="643" on="0"/>
        <pt x="456" y="608" on="1"/>
        <pt x="475" y="635" on="1"/>
        <pt x="486" y="650" on="0"/>
        <pt x="501" y="640" on="1"/>
        <pt x="518" y="628" on="1"/>
        <pt x="532" y="618" on="0"/>
        <pt x="523" y="603" on="1"/>
        <pt x="490" y="557" on="1"/>
        <pt x="502" y="527" on="0"/>
      </contour>
      <contour>
        <pt x="167" y="484" on="1"/>
        <pt x="167" y="205" on="1"/>
        <pt x="397" y="526" on="1"/>
        <pt x="382" y="558" on="0"/>
        <pt x="333" y="558" on="1"/>
        <pt x="239" y="558" on="1"/>
        <pt x="167" y="558" on="0"/>
      </contour>
      <contour>
        <pt x="405" y="159" on="1"/>
        <pt x="405" y="438" on="1"/>
        <pt x="175" y="117" on="1"/>
        <pt x="192" y="85" on="0"/>
        <pt x="239" y="85" on="1"/>
        <pt x="333" y="85" on="1"/>
        <pt x="405" y="85" on="0"/>
      </contour>
    </TTGlyph>
    <TTGlyph name="Oslashacute" xMin="50" yMin="0" xMax="523" yMax="836">
      <contour>
        <pt x="502" y="488" on="1"/>
        <pt x="502" y="155" on="1"/>
        <pt x="502" y="82" on="0"/>
        <pt x="420" y="0" on="0"/>
        <pt x="347" y="0" on="1"/>
        <pt x="225" y="0" on="1"/>
        <pt x="157" y="0" on="0"/>
        <pt x="117" y="35" on="1"/>
        <pt x="97" y="7" on="1"/>
        <pt x="86" y="-7" on="0"/>
        <pt x="71" y="2" on="1"/>
        <pt x="54" y="15" on="1"/>
        <pt x="40" y="26" on="0"/>
        <pt x="50" y="41" on="1"/>
        <pt x="82" y="86" on="1"/>
        <pt x="70" y="116" on="0"/>
        <pt x="70" y="155" on="1"/>
        <pt x="70" y="488" on="1"/>
        <pt x="70" y="562" on="0"/>
        <pt x="151" y="643" on="0"/>
        <pt x="225" y="643" on="1"/>
        <pt x="347" y="643" on="1"/>
        <pt x="415" y="643" on="0"/>
        <pt x="456" y="608" on="1"/>
        <pt x="475" y="635" on="1"/>
        <pt x="486" y="650" on="0"/>
        <pt x="501" y="640" on="1"/>
        <pt x="518" y="628" on="1"/>
        <pt x="532" y="618" on="0"/>
        <pt x="523" y="603" on="1"/>
        <pt x="490" y="557" on="1"/>
        <pt x="502" y="527" on="0"/>
      </contour>
      <contour>
        <pt x="167" y="484" on="1"/>
        <pt x="167" y="205" on="1"/>
        <pt x="397" y="526" on="1"/>
        <pt x="382" y="558" on="0"/>
        <pt x="333" y="558" on="1"/>
        <pt x="239" y="558" on="1"/>
        <pt x="167" y="558" on="0"/>
      </contour>
      <contour>
        <pt x="405" y="159" on="1"/>
        <pt x="405" y="438" on="1"/>
        <pt x="175" y="117" on="1"/>
        <pt x="192" y="85" on="0"/>
        <pt x="239" y="85" on="1"/>
        <pt x="333" y="85" on="1"/>
        <pt x="405" y="85" on="0"/>
      </contour>
      <contour>
        <pt x="300" y="707" on="1"/>
        <pt x="253" y="707" on="1"/>
        <pt x="235" y="707" on="0"/>
        <pt x="245" y="724" on="1"/>
        <pt x="296" y="820" on="1"/>
        <pt x="304" y="836" on="0"/>
        <pt x="321" y="836" on="1"/>
        <pt x="400" y="836" on="1"/>
        <pt x="408" y="836" on="0"/>
        <pt x="413" y="826" on="0"/>
        <pt x="408" y="819" on="1"/>
        <pt x="324" y="719" on="1"/>
        <pt x="314" y="707" on="0"/>
      </contour>
    </TTGlyph>
    <TTGlyph name="Otilde" xMin="63" yMin="0" xMax="490" yMax="832">
      <contour>
        <pt x="228" y="702" on="1"/>
        <pt x="161" y="702" on="0"/>
        <pt x="161" y="779" on="1"/>
        <pt x="161" y="818" on="1"/>
        <pt x="161" y="828" on="0"/>
        <pt x="171" y="828" on="1"/>
        <pt x="201" y="828" on="1"/>
        <pt x="211" y="828" on="0"/>
        <pt x="211" y="818" on="1"/>
        <pt x="211" y="798" on="1"/>
        <pt x="211" y="772" on="0"/>
        <pt x="219" y="755" on="0"/>
        <pt x="239" y="755" on="0"/>
        <pt x="251" y="769" on="0"/>
        <pt x="278" y="816" on="0"/>
        <pt x="304" y="832" on="0"/>
        <pt x="324" y="832" on="1"/>
        <pt x="391" y="832" on="0"/>
        <pt x="391" y="755" on="1"/>
        <pt x="391" y="717" on="1"/>
        <pt x="391" y="705" on="0"/>
        <pt x="382" y="705" on="1"/>
        <pt x="352" y="705" on="1"/>
        <pt x="342" y="705" on="0"/>
        <pt x="342" y="717" on="1"/>
        <pt x="342" y="736" on="1"/>
        <pt x="342" y="762" on="0"/>
        <pt x="334" y="779" on="0"/>
        <pt x="313" y="779" on="0"/>
        <pt x="304" y="769" on="0"/>
        <pt x="290" y="746" on="1"/>
        <pt x="277" y="720" on="0"/>
        <pt x="249" y="702" on="0"/>
      </contour>
      <contour>
        <pt x="232" y="85" on="1"/>
        <pt x="319" y="85" on="1"/>
        <pt x="392" y="85" on="0"/>
        <pt x="392" y="159" on="1"/>
        <pt x="392" y="484" on="1"/>
        <pt x="392" y="558" on="0"/>
        <pt x="319" y="558" on="1"/>
        <pt x="232" y="558" on="1"/>
        <pt x="160" y="558" on="0"/>
        <pt x="160" y="484" on="1"/>
        <pt x="160" y="159" on="1"/>
        <pt x="160" y="85" on="0"/>
      </contour>
      <contour>
        <pt x="334" y="0" on="1"/>
        <pt x="218" y="0" on="1"/>
        <pt x="144" y="0" on="0"/>
        <pt x="63" y="82" on="0"/>
        <pt x="63" y="155" on="1"/>
        <pt x="63" y="488" on="1"/>
        <pt x="63" y="562" on="0"/>
        <pt x="144" y="643" on="0"/>
        <pt x="218" y="643" on="1"/>
        <pt x="334" y="643" on="1"/>
        <pt x="408" y="643" on="0"/>
        <pt x="490" y="562" on="0"/>
        <pt x="490" y="488" on="1"/>
        <pt x="490" y="155" on="1"/>
        <pt x="490" y="82" on="0"/>
        <pt x="408" y="0" on="0"/>
      </contour>
    </TTGlyph>
    <TTGlyph name="P" xMin="73" yMin="0" xMax="483" yMax="643">
      <contour>
        <pt x="153" y="0" on="1"/>
        <pt x="90" y="0" on="1"/>
        <pt x="73" y="0" on="0"/>
        <pt x="73" y="17" on="1"/>
        <pt x="73" y="626" on="1"/>
        <pt x="73" y="643" on="0"/>
        <pt x="90" y="643" on="1"/>
        <pt x="328" y="643" on="1"/>
        <pt x="401" y="643" on="0"/>
        <pt x="483" y="562" on="0"/>
        <pt x="483" y="488" on="1"/>
        <pt x="483" y="384" on="1"/>
        <pt x="483" y="311" on="0"/>
        <pt x="401" y="229" on="0"/>
        <pt x="328" y="229" on="1"/>
        <pt x="182" y="229" on="1"/>
        <pt x="170" y="229" on="0"/>
        <pt x="170" y="219" on="1"/>
        <pt x="170" y="17" on="1"/>
        <pt x="170" y="0" on="0"/>
      </contour>
      <contour>
        <pt x="181" y="315" on="1"/>
        <pt x="314" y="315" on="1"/>
        <pt x="385" y="315" on="0"/>
        <pt x="385" y="389" on="1"/>
        <pt x="385" y="484" on="1"/>
        <pt x="385" y="558" on="0"/>
        <pt x="314" y="558" on="1"/>
        <pt x="181" y="558" on="1"/>
        <pt x="170" y="558" on="0"/>
        <pt x="170" y="548" on="1"/>
        <pt x="170" y="325" on="1"/>
        <pt x="170" y="315" on="0"/>
      </contour>
    </TTGlyph>
    <TTGlyph name="Pi" xMin="34" yMin="0" xMax="607" yMax="643">
      <contour>
        <pt x="220" y="0" on="1"/>
        <pt x="156" y="0" on="1"/>
        <pt x="139" y="0" on="0"/>
        <pt x="139" y="17" on="1"/>
        <pt x="139" y="548" on="1"/>
        <pt x="139" y="556" on="0"/>
        <pt x="128" y="556" on="1"/>
        <pt x="52" y="556" on="1"/>
        <pt x="34" y="556" on="0"/>
        <pt x="34" y="574" on="1"/>
        <pt x="34" y="626" on="1"/>
        <pt x="34" y="643" on="0"/>
        <pt x="52" y="643" on="1"/>
        <pt x="590" y="643" on="1"/>
        <pt x="607" y="643" on="0"/>
        <pt x="607" y="626" on="1"/>
        <pt x="607" y="574" on="1"/>
        <pt x="607" y="556" on="0"/>
        <pt x="590" y="556" on="1"/>
        <pt x="513" y="556" on="1"/>
        <pt x="502" y="556" on="0"/>
        <pt x="502" y="546" on="1"/>
        <pt x="502" y="17" on="1"/>
        <pt x="502" y="0" on="0"/>
        <pt x="485" y="0" on="1"/>
        <pt x="422" y="0" on="1"/>
        <pt x="404" y="0" on="0"/>
        <pt x="404" y="17" on="1"/>
        <pt x="404" y="546" on="1"/>
        <pt x="404" y="556" on="0"/>
        <pt x="394" y="556" on="1"/>
        <pt x="248" y="556" on="1"/>
        <pt x="237" y="556" on="0"/>
        <pt x="237" y="546" on="1"/>
        <pt x="237" y="17" on="1"/>
        <pt x="237" y="0" on="0"/>
      </contour>
    </TTGlyph>
    <TTGlyph name="Q" xMin="68" yMin="-133" xMax="495" yMax="643">
      <contour>
        <pt x="239" y="85" on="1"/>
        <pt x="326" y="85" on="1"/>
        <pt x="398" y="85" on="0"/>
        <pt x="398" y="159" on="1"/>
        <pt x="398" y="484" on="1"/>
        <pt x="398" y="558" on="0"/>
        <pt x="326" y="558" on="1"/>
        <pt x="239" y="558" on="1"/>
        <pt x="167" y="558" on="0"/>
        <pt x="167" y="484" on="1"/>
        <pt x="167" y="159" on="1"/>
        <pt x="167" y="85" on="0"/>
      </contour>
      <contour>
        <pt x="426" y="-133" on="1"/>
        <pt x="370" y="-133" on="1"/>
        <pt x="348" y="-133" on="0"/>
        <pt x="338" y="-116" on="1"/>
        <pt x="270" y="0" on="1"/>
        <pt x="224" y="0" on="1"/>
        <pt x="150" y="0" on="0"/>
        <pt x="68" y="82" on="0"/>
        <pt x="68" y="155" on="1"/>
        <pt x="68" y="488" on="1"/>
        <pt x="68" y="562" on="0"/>
        <pt x="150" y="643" on="0"/>
        <pt x="224" y="643" on="1"/>
        <pt x="340" y="643" on="1"/>
        <pt x="414" y="643" on="0"/>
        <pt x="495" y="562" on="0"/>
        <pt x="495" y="488" on="1"/>
        <pt x="495" y="155" on="1"/>
        <pt x="495" y="90" on="0"/>
        <pt x="430" y="11" on="0"/>
        <pt x="371" y="3" on="1"/>
        <pt x="438" y="-112" on="1"/>
        <pt x="443" y="-122" on="0"/>
        <pt x="435" y="-133" on="0"/>
      </contour>
    </TTGlyph>
    <TTGlyph name="R" xMin="73" yMin="0" xMax="496" yMax="643">
      <contour>
        <pt x="153" y="0" on="1"/>
        <pt x="90" y="0" on="1"/>
        <pt x="73" y="0" on="0"/>
        <pt x="73" y="17" on="1"/>
        <pt x="73" y="626" on="1"/>
        <pt x="73" y="643" on="0"/>
        <pt x="90" y="643" on="1"/>
        <pt x="324" y="643" on="1"/>
        <pt x="397" y="643" on="0"/>
        <pt x="480" y="560" on="0"/>
        <pt x="480" y="487" on="1"/>
        <pt x="480" y="403" on="1"/>
        <pt x="480" y="288" on="0"/>
        <pt x="385" y="258" on="1"/>
        <pt x="385" y="254" on="1"/>
        <pt x="496" y="20" on="1"/>
        <pt x="507" y="0" on="0"/>
        <pt x="483" y="0" on="1"/>
        <pt x="421" y="0" on="1"/>
        <pt x="397" y="0" on="0"/>
        <pt x="390" y="17" on="1"/>
        <pt x="283" y="247" on="1"/>
        <pt x="182" y="247" on="1"/>
        <pt x="170" y="247" on="0"/>
        <pt x="170" y="237" on="1"/>
        <pt x="170" y="17" on="1"/>
        <pt x="170" y="0" on="0"/>
      </contour>
      <contour>
        <pt x="181" y="327" on="1"/>
        <pt x="308" y="327" on="1"/>
        <pt x="382" y="327" on="0"/>
        <pt x="382" y="400" on="1"/>
        <pt x="382" y="484" on="1"/>
        <pt x="382" y="558" on="0"/>
        <pt x="308" y="558" on="1"/>
        <pt x="181" y="558" on="1"/>
        <pt x="170" y="558" on="0"/>
        <pt x="170" y="548" on="1"/>
        <pt x="170" y="337" on="1"/>
        <pt x="170" y="327" on="0"/>
      </contour>
    </TTGlyph>
    <TTGlyph name="Racute" xMin="73" yMin="0" xMax="496" yMax="836">
      <contour>
        <pt x="295" y="836" on="1"/>
        <pt x="373" y="836" on="1"/>
        <pt x="382" y="836" on="0"/>
        <pt x="387" y="826" on="0"/>
        <pt x="381" y="819" on="1"/>
        <pt x="296" y="719" on="1"/>
        <pt x="288" y="707" on="0"/>
        <pt x="274" y="707" on="1"/>
        <pt x="226" y="707" on="1"/>
        <pt x="210" y="707" on="0"/>
        <pt x="217" y="724" on="1"/>
        <pt x="269" y="820" on="1"/>
        <pt x="277" y="836" on="0"/>
      </contour>
      <contour>
        <pt x="153" y="0" on="1"/>
        <pt x="90" y="0" on="1"/>
        <pt x="73" y="0" on="0"/>
        <pt x="73" y="17" on="1"/>
        <pt x="73" y="626" on="1"/>
        <pt x="73" y="643" on="0"/>
        <pt x="90" y="643" on="1"/>
        <pt x="324" y="643" on="1"/>
        <pt x="397" y="643" on="0"/>
        <pt x="480" y="560" on="0"/>
        <pt x="480" y="487" on="1"/>
        <pt x="480" y="403" on="1"/>
        <pt x="480" y="288" on="0"/>
        <pt x="385" y="258" on="1"/>
        <pt x="385" y="254" on="1"/>
        <pt x="496" y="20" on="1"/>
        <pt x="507" y="0" on="0"/>
        <pt x="483" y="0" on="1"/>
        <pt x="421" y="0" on="1"/>
        <pt x="397" y="0" on="0"/>
        <pt x="390" y="17" on="1"/>
        <pt x="283" y="247" on="1"/>
        <pt x="182" y="247" on="1"/>
        <pt x="170" y="247" on="0"/>
        <pt x="170" y="237" on="1"/>
        <pt x="170" y="17" on="1"/>
        <pt x="170" y="0" on="0"/>
      </contour>
      <contour>
        <pt x="181" y="327" on="1"/>
        <pt x="308" y="327" on="1"/>
        <pt x="382" y="327" on="0"/>
        <pt x="382" y="400" on="1"/>
        <pt x="382" y="484" on="1"/>
        <pt x="382" y="558" on="0"/>
        <pt x="308" y="558" on="1"/>
        <pt x="181" y="558" on="1"/>
        <pt x="170" y="558" on="0"/>
        <pt x="170" y="548" on="1"/>
        <pt x="170" y="337" on="1"/>
        <pt x="170" y="327" on="0"/>
      </contour>
    </TTGlyph>
    <TTGlyph name="Rcaron" xMin="73" yMin="0" xMax="496" yMax="836">
      <contour>
        <pt x="235" y="707" on="1"/>
        <pt x="221" y="707" on="0"/>
        <pt x="214" y="717" on="1"/>
        <pt x="152" y="824" on="1"/>
        <pt x="144" y="836" on="0"/>
        <pt x="158" y="836" on="1"/>
        <pt x="204" y="836" on="1"/>
        <pt x="215" y="836" on="0"/>
        <pt x="219" y="826" on="1"/>
        <pt x="260" y="748" on="1"/>
        <pt x="300" y="826" on="1"/>
        <pt x="304" y="836" on="0"/>
        <pt x="316" y="836" on="1"/>
        <pt x="362" y="836" on="1"/>
        <pt x="368" y="836" on="0"/>
        <pt x="371" y="828" on="0"/>
        <pt x="368" y="824" on="1"/>
        <pt x="306" y="717" on="1"/>
        <pt x="299" y="707" on="0"/>
        <pt x="284" y="707" on="1"/>
      </contour>
      <contour>
        <pt x="153" y="0" on="1"/>
        <pt x="90" y="0" on="1"/>
        <pt x="73" y="0" on="0"/>
        <pt x="73" y="17" on="1"/>
        <pt x="73" y="626" on="1"/>
        <pt x="73" y="643" on="0"/>
        <pt x="90" y="643" on="1"/>
        <pt x="324" y="643" on="1"/>
        <pt x="397" y="643" on="0"/>
        <pt x="480" y="560" on="0"/>
        <pt x="480" y="487" on="1"/>
        <pt x="480" y="403" on="1"/>
        <pt x="480" y="288" on="0"/>
        <pt x="385" y="258" on="1"/>
        <pt x="385" y="254" on="1"/>
        <pt x="496" y="20" on="1"/>
        <pt x="507" y="0" on="0"/>
        <pt x="483" y="0" on="1"/>
        <pt x="421" y="0" on="1"/>
        <pt x="397" y="0" on="0"/>
        <pt x="390" y="17" on="1"/>
        <pt x="283" y="247" on="1"/>
        <pt x="182" y="247" on="1"/>
        <pt x="170" y="247" on="0"/>
        <pt x="170" y="237" on="1"/>
        <pt x="170" y="17" on="1"/>
        <pt x="170" y="0" on="0"/>
      </contour>
      <contour>
        <pt x="181" y="327" on="1"/>
        <pt x="308" y="327" on="1"/>
        <pt x="382" y="327" on="0"/>
        <pt x="382" y="400" on="1"/>
        <pt x="382" y="484" on="1"/>
        <pt x="382" y="558" on="0"/>
        <pt x="308" y="558" on="1"/>
        <pt x="181" y="558" on="1"/>
        <pt x="170" y="558" on="0"/>
        <pt x="170" y="548" on="1"/>
        <pt x="170" y="337" on="1"/>
        <pt x="170" y="327" on="0"/>
      </contour>
    </TTGlyph>
    <TTGlyph name="S" xMin="61" yMin="0" xMax="486" yMax="643">
      <contour>
        <pt x="61" y="156" on="1"/>
        <pt x="61" y="182" on="1"/>
        <pt x="61" y="199" on="0"/>
        <pt x="78" y="199" on="1"/>
        <pt x="142" y="199" on="1"/>
        <pt x="159" y="199" on="0"/>
        <pt x="159" y="182" on="1"/>
        <pt x="159" y="164" on="1"/>
        <pt x="159" y="122" on="0"/>
        <pt x="196" y="85" on="0"/>
        <pt x="239" y="85" on="1"/>
        <pt x="308" y="85" on="1"/>
        <pt x="351" y="85" on="0"/>
        <pt x="389" y="124" on="0"/>
        <pt x="389" y="168" on="1"/>
        <pt x="389" y="191" on="1"/>
        <pt x="389" y="223" on="0"/>
        <pt x="340" y="260" on="0"/>
        <pt x="268" y="271" on="0"/>
        <pt x="182" y="291" on="0"/>
        <pt x="110" y="317" on="0"/>
        <pt x="61" y="389" on="0"/>
        <pt x="61" y="445" on="1"/>
        <pt x="61" y="487" on="1"/>
        <pt x="61" y="560" on="0"/>
        <pt x="144" y="643" on="0"/>
        <pt x="217" y="643" on="1"/>
        <pt x="323" y="643" on="1"/>
        <pt x="397" y="643" on="0"/>
        <pt x="480" y="560" on="0"/>
        <pt x="480" y="487" on="1"/>
        <pt x="480" y="465" on="1"/>
        <pt x="480" y="448" on="0"/>
        <pt x="463" y="448" on="1"/>
        <pt x="399" y="448" on="1"/>
        <pt x="382" y="448" on="0"/>
        <pt x="382" y="465" on="1"/>
        <pt x="382" y="478" on="1"/>
        <pt x="382" y="521" on="0"/>
        <pt x="345" y="558" on="0"/>
        <pt x="302" y="558" on="1"/>
        <pt x="239" y="558" on="1"/>
        <pt x="196" y="558" on="0"/>
        <pt x="159" y="519" on="0"/>
        <pt x="159" y="472" on="1"/>
        <pt x="159" y="441" on="1"/>
        <pt x="159" y="396" on="0"/>
        <pt x="224" y="380" on="1"/>
        <pt x="253" y="373" on="0"/>
        <pt x="322" y="363" on="0"/>
        <pt x="392" y="343" on="0"/>
        <pt x="450" y="310" on="0"/>
        <pt x="486" y="243" on="0"/>
        <pt x="486" y="195" on="1"/>
        <pt x="486" y="156" on="1"/>
        <pt x="486" y="83" on="0"/>
        <pt x="403" y="0" on="0"/>
        <pt x="330" y="0" on="1"/>
        <pt x="218" y="0" on="1"/>
        <pt x="145" y="0" on="0"/>
        <pt x="61" y="83" on="0"/>
      </contour>
    </TTGlyph>
    <TTGlyph name="Sacute" xMin="61" yMin="0" xMax="486" yMax="836">
      <contour>
        <pt x="61" y="156" on="1"/>
        <pt x="61" y="182" on="1"/>
        <pt x="61" y="199" on="0"/>
        <pt x="78" y="199" on="1"/>
        <pt x="142" y="199" on="1"/>
        <pt x="159" y="199" on="0"/>
        <pt x="159" y="182" on="1"/>
        <pt x="159" y="164" on="1"/>
        <pt x="159" y="122" on="0"/>
        <pt x="196" y="85" on="0"/>
        <pt x="239" y="85" on="1"/>
        <pt x="308" y="85" on="1"/>
        <pt x="351" y="85" on="0"/>
        <pt x="389" y="124" on="0"/>
        <pt x="389" y="168" on="1"/>
        <pt x="389" y="191" on="1"/>
        <pt x="389" y="223" on="0"/>
        <pt x="340" y="260" on="0"/>
        <pt x="268" y="271" on="0"/>
        <pt x="182" y="291" on="0"/>
        <pt x="110" y="317" on="0"/>
        <pt x="61" y="389" on="0"/>
        <pt x="61" y="445" on="1"/>
        <pt x="61" y="487" on="1"/>
        <pt x="61" y="560" on="0"/>
        <pt x="144" y="643" on="0"/>
        <pt x="217" y="643" on="1"/>
        <pt x="323" y="643" on="1"/>
        <pt x="397" y="643" on="0"/>
        <pt x="480" y="560" on="0"/>
        <pt x="480" y="487" on="1"/>
        <pt x="480" y="465" on="1"/>
        <pt x="480" y="448" on="0"/>
        <pt x="463" y="448" on="1"/>
        <pt x="399" y="448" on="1"/>
        <pt x="382" y="448" on="0"/>
        <pt x="382" y="465" on="1"/>
        <pt x="382" y="478" on="1"/>
        <pt x="382" y="521" on="0"/>
        <pt x="345" y="558" on="0"/>
        <pt x="302" y="558" on="1"/>
        <pt x="239" y="558" on="1"/>
        <pt x="196" y="558" on="0"/>
        <pt x="159" y="519" on="0"/>
        <pt x="159" y="472" on="1"/>
        <pt x="159" y="441" on="1"/>
        <pt x="159" y="396" on="0"/>
        <pt x="224" y="380" on="1"/>
        <pt x="253" y="373" on="0"/>
        <pt x="322" y="363" on="0"/>
        <pt x="392" y="343" on="0"/>
        <pt x="450" y="310" on="0"/>
        <pt x="486" y="243" on="0"/>
        <pt x="486" y="195" on="1"/>
        <pt x="486" y="156" on="1"/>
        <pt x="486" y="83" on="0"/>
        <pt x="403" y="0" on="0"/>
        <pt x="330" y="0" on="1"/>
        <pt x="218" y="0" on="1"/>
        <pt x="145" y="0" on="0"/>
        <pt x="61" y="83" on="0"/>
      </contour>
      <contour>
        <pt x="303" y="836" on="1"/>
        <pt x="381" y="836" on="1"/>
        <pt x="390" y="836" on="0"/>
        <pt x="395" y="826" on="0"/>
        <pt x="389" y="819" on="1"/>
        <pt x="305" y="719" on="1"/>
        <pt x="296" y="707" on="0"/>
        <pt x="282" y="707" on="1"/>
        <pt x="234" y="707" on="1"/>
        <pt x="218" y="707" on="0"/>
        <pt x="225" y="724" on="1"/>
        <pt x="277" y="820" on="1"/>
        <pt x="285" y="836" on="0"/>
      </contour>
    </TTGlyph>
    <TTGlyph name="Scaron" xMin="61" yMin="0" xMax="486" yMax="836">
      <contour>
        <pt x="61" y="156" on="1"/>
        <pt x="61" y="182" on="1"/>
        <pt x="61" y="199" on="0"/>
        <pt x="78" y="199" on="1"/>
        <pt x="142" y="199" on="1"/>
        <pt x="159" y="199" on="0"/>
        <pt x="159" y="182" on="1"/>
        <pt x="159" y="164" on="1"/>
        <pt x="159" y="122" on="0"/>
        <pt x="196" y="85" on="0"/>
        <pt x="239" y="85" on="1"/>
        <pt x="308" y="85" on="1"/>
        <pt x="351" y="85" on="0"/>
        <pt x="389" y="124" on="0"/>
        <pt x="389" y="168" on="1"/>
        <pt x="389" y="191" on="1"/>
        <pt x="389" y="223" on="0"/>
        <pt x="340" y="260" on="0"/>
        <pt x="268" y="271" on="0"/>
        <pt x="182" y="291" on="0"/>
        <pt x="110" y="317" on="0"/>
        <pt x="61" y="389" on="0"/>
        <pt x="61" y="445" on="1"/>
        <pt x="61" y="487" on="1"/>
        <pt x="61" y="560" on="0"/>
        <pt x="144" y="643" on="0"/>
        <pt x="217" y="643" on="1"/>
        <pt x="323" y="643" on="1"/>
        <pt x="397" y="643" on="0"/>
        <pt x="480" y="560" on="0"/>
        <pt x="480" y="487" on="1"/>
        <pt x="480" y="465" on="1"/>
        <pt x="480" y="448" on="0"/>
        <pt x="463" y="448" on="1"/>
        <pt x="399" y="448" on="1"/>
        <pt x="382" y="448" on="0"/>
        <pt x="382" y="465" on="1"/>
        <pt x="382" y="478" on="1"/>
        <pt x="382" y="521" on="0"/>
        <pt x="345" y="558" on="0"/>
        <pt x="302" y="558" on="1"/>
        <pt x="239" y="558" on="1"/>
        <pt x="196" y="558" on="0"/>
        <pt x="159" y="519" on="0"/>
        <pt x="159" y="472" on="1"/>
        <pt x="159" y="441" on="1"/>
        <pt x="159" y="396" on="0"/>
        <pt x="224" y="380" on="1"/>
        <pt x="253" y="373" on="0"/>
        <pt x="322" y="363" on="0"/>
        <pt x="392" y="343" on="0"/>
        <pt x="450" y="310" on="0"/>
        <pt x="486" y="243" on="0"/>
        <pt x="486" y="195" on="1"/>
        <pt x="486" y="156" on="1"/>
        <pt x="486" y="83" on="0"/>
        <pt x="403" y="0" on="0"/>
        <pt x="330" y="0" on="1"/>
        <pt x="218" y="0" on="1"/>
        <pt x="145" y="0" on="0"/>
        <pt x="61" y="83" on="0"/>
      </contour>
      <contour>
        <pt x="293" y="707" on="1"/>
        <pt x="245" y="707" on="1"/>
        <pt x="230" y="707" on="0"/>
        <pt x="223" y="717" on="1"/>
        <pt x="160" y="824" on="1"/>
        <pt x="157" y="828" on="0"/>
        <pt x="161" y="836" on="0"/>
        <pt x="167" y="836" on="1"/>
        <pt x="213" y="836" on="1"/>
        <pt x="224" y="836" on="0"/>
        <pt x="229" y="826" on="1"/>
        <pt x="269" y="748" on="1"/>
        <pt x="309" y="826" on="1"/>
        <pt x="313" y="836" on="0"/>
        <pt x="325" y="836" on="1"/>
        <pt x="371" y="836" on="1"/>
        <pt x="377" y="836" on="0"/>
        <pt x="380" y="828" on="0"/>
        <pt x="377" y="824" on="1"/>
        <pt x="314" y="717" on="1"/>
        <pt x="307" y="707" on="0"/>
      </contour>
    </TTGlyph>
    <TTGlyph name="Scircumflex" xMin="61" yMin="0" xMax="486" yMax="836">
      <contour>
        <pt x="61" y="156" on="1"/>
        <pt x="61" y="182" on="1"/>
        <pt x="61" y="199" on="0"/>
        <pt x="78" y="199" on="1"/>
        <pt x="142" y="199" on="1"/>
        <pt x="159" y="199" on="0"/>
        <pt x="159" y="182" on="1"/>
        <pt x="159" y="164" on="1"/>
        <pt x="159" y="122" on="0"/>
        <pt x="196" y="85" on="0"/>
        <pt x="239" y="85" on="1"/>
        <pt x="308" y="85" on="1"/>
        <pt x="351" y="85" on="0"/>
        <pt x="389" y="124" on="0"/>
        <pt x="389" y="168" on="1"/>
        <pt x="389" y="191" on="1"/>
        <pt x="389" y="223" on="0"/>
        <pt x="340" y="260" on="0"/>
        <pt x="268" y="271" on="0"/>
        <pt x="182" y="291" on="0"/>
        <pt x="110" y="317" on="0"/>
        <pt x="61" y="389" on="0"/>
        <pt x="61" y="445" on="1"/>
        <pt x="61" y="487" on="1"/>
        <pt x="61" y="560" on="0"/>
        <pt x="144" y="643" on="0"/>
        <pt x="217" y="643" on="1"/>
        <pt x="323" y="643" on="1"/>
        <pt x="397" y="643" on="0"/>
        <pt x="480" y="560" on="0"/>
        <pt x="480" y="487" on="1"/>
        <pt x="480" y="465" on="1"/>
        <pt x="480" y="448" on="0"/>
        <pt x="463" y="448" on="1"/>
        <pt x="399" y="448" on="1"/>
        <pt x="382" y="448" on="0"/>
        <pt x="382" y="465" on="1"/>
        <pt x="382" y="478" on="1"/>
        <pt x="382" y="521" on="0"/>
        <pt x="345" y="558" on="0"/>
        <pt x="302" y="558" on="1"/>
        <pt x="239" y="558" on="1"/>
        <pt x="196" y="558" on="0"/>
        <pt x="159" y="519" on="0"/>
        <pt x="159" y="472" on="1"/>
        <pt x="159" y="441" on="1"/>
        <pt x="159" y="396" on="0"/>
        <pt x="224" y="380" on="1"/>
        <pt x="253" y="373" on="0"/>
        <pt x="322" y="363" on="0"/>
        <pt x="392" y="343" on="0"/>
        <pt x="450" y="310" on="0"/>
        <pt x="486" y="243" on="0"/>
        <pt x="486" y="195" on="1"/>
        <pt x="486" y="156" on="1"/>
        <pt x="486" y="83" on="0"/>
        <pt x="403" y="0" on="0"/>
        <pt x="330" y="0" on="1"/>
        <pt x="218" y="0" on="1"/>
        <pt x="145" y="0" on="0"/>
        <pt x="61" y="83" on="0"/>
      </contour>
      <contour>
        <pt x="376" y="707" on="1"/>
        <pt x="330" y="707" on="1"/>
        <pt x="319" y="707" on="0"/>
        <pt x="314" y="717" on="1"/>
        <pt x="274" y="795" on="1"/>
        <pt x="233" y="717" on="1"/>
        <pt x="230" y="707" on="0"/>
        <pt x="218" y="707" on="1"/>
        <pt x="173" y="707" on="1"/>
        <pt x="158" y="707" on="0"/>
        <pt x="166" y="719" on="1"/>
        <pt x="229" y="826" on="1"/>
        <pt x="236" y="836" on="0"/>
        <pt x="250" y="836" on="1"/>
        <pt x="298" y="836" on="1"/>
        <pt x="313" y="836" on="0"/>
        <pt x="320" y="826" on="1"/>
        <pt x="383" y="719" on="1"/>
        <pt x="391" y="707" on="0"/>
      </contour>
    </TTGlyph>
    <TTGlyph name="Sigma" xMin="63" yMin="0" xMax="435" yMax="643">
      <contour>
        <pt x="63" y="575" on="1"/>
        <pt x="63" y="626" on="1"/>
        <pt x="63" y="643" on="0"/>
        <pt x="80" y="643" on="1"/>
        <pt x="417" y="643" on="1"/>
        <pt x="434" y="643" on="0"/>
        <pt x="434" y="626" on="1"/>
        <pt x="434" y="569" on="1"/>
        <pt x="434" y="551" on="0"/>
        <pt x="417" y="551" on="1"/>
        <pt x="177" y="551" on="1"/>
        <pt x="177" y="547" on="1"/>
        <pt x="319" y="336" on="1"/>
        <pt x="332" y="316" on="0"/>
        <pt x="319" y="297" on="1"/>
        <pt x="177" y="95" on="1"/>
        <pt x="177" y="91" on="1"/>
        <pt x="417" y="91" on="1"/>
        <pt x="435" y="91" on="0"/>
        <pt x="435" y="73" on="1"/>
        <pt x="435" y="17" on="1"/>
        <pt x="435" y="0" on="0"/>
        <pt x="417" y="0" on="1"/>
        <pt x="80" y="0" on="1"/>
        <pt x="64" y="0" on="0"/>
        <pt x="64" y="17" on="1"/>
        <pt x="64" y="67" on="1"/>
        <pt x="64" y="90" on="0"/>
        <pt x="75" y="108" on="1"/>
        <pt x="219" y="315" on="1"/>
        <pt x="219" y="319" on="1"/>
        <pt x="74" y="535" on="1"/>
        <pt x="63" y="552" on="0"/>
      </contour>
    </TTGlyph>
    <TTGlyph name="T" xMin="14" yMin="0" xMax="421" yMax="643">
      <contour>
        <pt x="249" y="0" on="1"/>
        <pt x="186" y="0" on="1"/>
        <pt x="168" y="0" on="0"/>
        <pt x="168" y="17" on="1"/>
        <pt x="168" y="548" on="1"/>
        <pt x="168" y="558" on="0"/>
        <pt x="158" y="558" on="1"/>
        <pt x="32" y="558" on="1"/>
        <pt x="14" y="558" on="0"/>
        <pt x="14" y="575" on="1"/>
        <pt x="14" y="626" on="1"/>
        <pt x="14" y="643" on="0"/>
        <pt x="32" y="643" on="1"/>
        <pt x="403" y="643" on="1"/>
        <pt x="421" y="643" on="0"/>
        <pt x="421" y="626" on="1"/>
        <pt x="421" y="575" on="1"/>
        <pt x="421" y="558" on="0"/>
        <pt x="403" y="558" on="1"/>
        <pt x="277" y="558" on="1"/>
        <pt x="266" y="558" on="0"/>
        <pt x="266" y="548" on="1"/>
        <pt x="266" y="17" on="1"/>
        <pt x="266" y="0" on="0"/>
      </contour>
    </TTGlyph>
    <TTGlyph name="Tbar" xMin="26" yMin="0" xMax="443" yMax="643">
      <contour>
        <pt x="266" y="0" on="1"/>
        <pt x="203" y="0" on="1"/>
        <pt x="186" y="0" on="0"/>
        <pt x="186" y="17" on="1"/>
        <pt x="186" y="290" on="1"/>
        <pt x="186" y="301" on="0"/>
        <pt x="175" y="301" on="1"/>
        <pt x="101" y="301" on="1"/>
        <pt x="84" y="301" on="0"/>
        <pt x="84" y="318" on="1"/>
        <pt x="84" y="357" on="1"/>
        <pt x="84" y="375" on="0"/>
        <pt x="101" y="375" on="1"/>
        <pt x="175" y="375" on="1"/>
        <pt x="186" y="375" on="0"/>
        <pt x="186" y="385" on="1"/>
        <pt x="186" y="548" on="1"/>
        <pt x="186" y="558" on="0"/>
        <pt x="175" y="558" on="1"/>
        <pt x="43" y="558" on="1"/>
        <pt x="26" y="558" on="0"/>
        <pt x="26" y="575" on="1"/>
        <pt x="26" y="626" on="1"/>
        <pt x="26" y="643" on="0"/>
        <pt x="43" y="643" on="1"/>
        <pt x="426" y="643" on="1"/>
        <pt x="443" y="643" on="0"/>
        <pt x="443" y="626" on="1"/>
        <pt x="443" y="575" on="1"/>
        <pt x="443" y="558" on="0"/>
        <pt x="426" y="558" on="1"/>
        <pt x="294" y="558" on="1"/>
        <pt x="284" y="558" on="0"/>
        <pt x="284" y="548" on="1"/>
        <pt x="284" y="385" on="1"/>
        <pt x="284" y="375" on="0"/>
        <pt x="294" y="375" on="1"/>
        <pt x="372" y="375" on="1"/>
        <pt x="389" y="375" on="0"/>
        <pt x="389" y="357" on="1"/>
        <pt x="389" y="318" on="1"/>
        <pt x="389" y="301" on="0"/>
        <pt x="372" y="301" on="1"/>
        <pt x="294" y="301" on="1"/>
        <pt x="284" y="301" on="0"/>
        <pt x="284" y="290" on="1"/>
        <pt x="284" y="17" on="1"/>
        <pt x="284" y="0" on="0"/>
      </contour>
    </TTGlyph>
    <TTGlyph name="Tcaron" xMin="14" yMin="0" xMax="421" yMax="836">
      <contour>
        <pt x="195" y="707" on="1"/>
        <pt x="181" y="707" on="0"/>
        <pt x="174" y="717" on="1"/>
        <pt x="110" y="824" on="1"/>
        <pt x="107" y="828" on="0"/>
        <pt x="111" y="836" on="0"/>
        <pt x="118" y="836" on="1"/>
        <pt x="163" y="836" on="1"/>
        <pt x="174" y="836" on="0"/>
        <pt x="178" y="826" on="1"/>
        <pt x="219" y="748" on="1"/>
        <pt x="259" y="826" on="1"/>
        <pt x="264" y="836" on="0"/>
        <pt x="275" y="836" on="1"/>
        <pt x="321" y="836" on="1"/>
        <pt x="336" y="836" on="0"/>
        <pt x="328" y="824" on="1"/>
        <pt x="264" y="717" on="1"/>
        <pt x="257" y="707" on="0"/>
        <pt x="243" y="707" on="1"/>
      </contour>
      <contour>
        <pt x="249" y="0" on="1"/>
        <pt x="186" y="0" on="1"/>
        <pt x="168" y="0" on="0"/>
        <pt x="168" y="17" on="1"/>
        <pt x="168" y="548" on="1"/>
        <pt x="168" y="558" on="0"/>
        <pt x="158" y="558" on="1"/>
        <pt x="32" y="558" on="1"/>
        <pt x="14" y="558" on="0"/>
        <pt x="14" y="575" on="1"/>
        <pt x="14" y="626" on="1"/>
        <pt x="14" y="643" on="0"/>
        <pt x="32" y="643" on="1"/>
        <pt x="403" y="643" on="1"/>
        <pt x="421" y="643" on="0"/>
        <pt x="421" y="626" on="1"/>
        <pt x="421" y="575" on="1"/>
        <pt x="421" y="558" on="0"/>
        <pt x="403" y="558" on="1"/>
        <pt x="277" y="558" on="1"/>
        <pt x="266" y="558" on="0"/>
        <pt x="266" y="548" on="1"/>
        <pt x="266" y="17" on="1"/>
        <pt x="266" y="0" on="0"/>
      </contour>
    </TTGlyph>
    <TTGlyph name="Thorn" xMin="93" yMin="0" xMax="453" yMax="643">
      <contour>
        <pt x="201" y="218" on="1"/>
        <pt x="282" y="218" on="1"/>
        <pt x="320" y="218" on="0"/>
        <pt x="354" y="253" on="0"/>
        <pt x="354" y="291" on="1"/>
        <pt x="354" y="351" on="1"/>
        <pt x="354" y="425" on="0"/>
        <pt x="282" y="425" on="1"/>
        <pt x="201" y="425" on="1"/>
        <pt x="191" y="425" on="0"/>
        <pt x="191" y="415" on="1"/>
        <pt x="191" y="228" on="1"/>
        <pt x="191" y="218" on="0"/>
      </contour>
      <contour>
        <pt x="174" y="0" on="1"/>
        <pt x="110" y="0" on="1"/>
        <pt x="93" y="0" on="0"/>
        <pt x="93" y="17" on="1"/>
        <pt x="93" y="626" on="1"/>
        <pt x="93" y="643" on="0"/>
        <pt x="110" y="643" on="1"/>
        <pt x="174" y="643" on="1"/>
        <pt x="191" y="643" on="0"/>
        <pt x="191" y="626" on="1"/>
        <pt x="191" y="520" on="1"/>
        <pt x="191" y="510" on="0"/>
        <pt x="202" y="510" on="1"/>
        <pt x="297" y="510" on="1"/>
        <pt x="370" y="510" on="0"/>
        <pt x="453" y="429" on="0"/>
        <pt x="453" y="355" on="1"/>
        <pt x="453" y="287" on="1"/>
        <pt x="453" y="213" on="0"/>
        <pt x="370" y="132" on="0"/>
        <pt x="297" y="132" on="1"/>
        <pt x="202" y="132" on="1"/>
        <pt x="191" y="132" on="0"/>
        <pt x="191" y="122" on="1"/>
        <pt x="191" y="17" on="1"/>
        <pt x="191" y="0" on="0"/>
      </contour>
    </TTGlyph>
    <TTGlyph name="U" xMin="68" yMin="0" xMax="490" yMax="643">
      <contour>
        <pt x="409" y="643" on="1"/>
        <pt x="472" y="643" on="1"/>
        <pt x="490" y="643" on="0"/>
        <pt x="490" y="627" on="1"/>
        <pt x="490" y="155" on="1"/>
        <pt x="490" y="82" on="0"/>
        <pt x="407" y="0" on="0"/>
        <pt x="334" y="0" on="1"/>
        <pt x="223" y="0" on="1"/>
        <pt x="150" y="0" on="0"/>
        <pt x="68" y="82" on="0"/>
        <pt x="68" y="155" on="1"/>
        <pt x="68" y="626" on="1"/>
        <pt x="68" y="643" on="0"/>
        <pt x="85" y="643" on="1"/>
        <pt x="148" y="643" on="1"/>
        <pt x="165" y="643" on="0"/>
        <pt x="165" y="626" on="1"/>
        <pt x="165" y="159" on="1"/>
        <pt x="165" y="85" on="0"/>
        <pt x="237" y="85" on="1"/>
        <pt x="319" y="85" on="1"/>
        <pt x="392" y="85" on="0"/>
        <pt x="392" y="159" on="1"/>
        <pt x="392" y="626" on="1"/>
        <pt x="392" y="643" on="0"/>
      </contour>
    </TTGlyph>
    <TTGlyph name="Uacute" xMin="68" yMin="0" xMax="490" yMax="836">
      <contour>
        <pt x="319" y="836" on="1"/>
        <pt x="398" y="836" on="1"/>
        <pt x="406" y="836" on="0"/>
        <pt x="411" y="826" on="0"/>
        <pt x="406" y="819" on="1"/>
        <pt x="321" y="719" on="1"/>
        <pt x="312" y="707" on="0"/>
        <pt x="298" y="707" on="1"/>
        <pt x="250" y="707" on="1"/>
        <pt x="234" y="707" on="0"/>
        <pt x="242" y="724" on="1"/>
        <pt x="294" y="820" on="1"/>
        <pt x="302" y="836" on="0"/>
      </contour>
      <contour>
        <pt x="409" y="643" on="1"/>
        <pt x="472" y="643" on="1"/>
        <pt x="490" y="643" on="0"/>
        <pt x="490" y="627" on="1"/>
        <pt x="490" y="155" on="1"/>
        <pt x="490" y="82" on="0"/>
        <pt x="407" y="0" on="0"/>
        <pt x="334" y="0" on="1"/>
        <pt x="223" y="0" on="1"/>
        <pt x="150" y="0" on="0"/>
        <pt x="68" y="82" on="0"/>
        <pt x="68" y="155" on="1"/>
        <pt x="68" y="626" on="1"/>
        <pt x="68" y="643" on="0"/>
        <pt x="85" y="643" on="1"/>
        <pt x="148" y="643" on="1"/>
        <pt x="165" y="643" on="0"/>
        <pt x="165" y="626" on="1"/>
        <pt x="165" y="159" on="1"/>
        <pt x="165" y="85" on="0"/>
        <pt x="237" y="85" on="1"/>
        <pt x="319" y="85" on="1"/>
        <pt x="392" y="85" on="0"/>
        <pt x="392" y="159" on="1"/>
        <pt x="392" y="626" on="1"/>
        <pt x="392" y="643" on="0"/>
      </contour>
    </TTGlyph>
    <TTGlyph name="Ubreve" xMin="68" yMin="0" xMax="490" yMax="836">
      <contour>
        <pt x="170" y="824" on="1"/>
        <pt x="170" y="836" on="0"/>
        <pt x="182" y="836" on="1"/>
        <pt x="220" y="836" on="1"/>
        <pt x="232" y="836" on="0"/>
        <pt x="232" y="824" on="1"/>
        <pt x="232" y="814" on="1"/>
        <pt x="232" y="783" on="0"/>
        <pt x="252" y="758" on="0"/>
        <pt x="276" y="758" on="1"/>
        <pt x="282" y="758" on="1"/>
        <pt x="306" y="758" on="0"/>
        <pt x="327" y="784" on="0"/>
        <pt x="327" y="814" on="1"/>
        <pt x="327" y="824" on="1"/>
        <pt x="327" y="836" on="0"/>
        <pt x="340" y="836" on="1"/>
        <pt x="376" y="836" on="1"/>
        <pt x="389" y="836" on="0"/>
        <pt x="389" y="824" on="1"/>
        <pt x="389" y="813" on="1"/>
        <pt x="389" y="707" on="0"/>
        <pt x="292" y="707" on="1"/>
        <pt x="266" y="707" on="1"/>
        <pt x="170" y="707" on="0"/>
        <pt x="170" y="813" on="1"/>
      </contour>
      <contour>
        <pt x="409" y="643" on="1"/>
        <pt x="472" y="643" on="1"/>
        <pt x="490" y="643" on="0"/>
        <pt x="490" y="627" on="1"/>
        <pt x="490" y="155" on="1"/>
        <pt x="490" y="82" on="0"/>
        <pt x="407" y="0" on="0"/>
        <pt x="334" y="0" on="1"/>
        <pt x="223" y="0" on="1"/>
        <pt x="150" y="0" on="0"/>
        <pt x="68" y="82" on="0"/>
        <pt x="68" y="155" on="1"/>
        <pt x="68" y="626" on="1"/>
        <pt x="68" y="643" on="0"/>
        <pt x="85" y="643" on="1"/>
        <pt x="148" y="643" on="1"/>
        <pt x="165" y="643" on="0"/>
        <pt x="165" y="626" on="1"/>
        <pt x="165" y="159" on="1"/>
        <pt x="165" y="85" on="0"/>
        <pt x="237" y="85" on="1"/>
        <pt x="319" y="85" on="1"/>
        <pt x="392" y="85" on="0"/>
        <pt x="392" y="159" on="1"/>
        <pt x="392" y="626" on="1"/>
        <pt x="392" y="643" on="0"/>
      </contour>
    </TTGlyph>
    <TTGlyph name="Ucircumflex" xMin="68" yMin="0" xMax="490" yMax="836">
      <contour>
        <pt x="382" y="707" on="1"/>
        <pt x="337" y="707" on="1"/>
        <pt x="325" y="707" on="0"/>
        <pt x="321" y="717" on="1"/>
        <pt x="280" y="795" on="1"/>
        <pt x="240" y="717" on="1"/>
        <pt x="235" y="707" on="0"/>
        <pt x="224" y="707" on="1"/>
        <pt x="179" y="707" on="1"/>
        <pt x="164" y="707" on="0"/>
        <pt x="172" y="719" on="1"/>
        <pt x="235" y="826" on="1"/>
        <pt x="242" y="836" on="0"/>
        <pt x="256" y="836" on="1"/>
        <pt x="305" y="836" on="1"/>
        <pt x="319" y="836" on="0"/>
        <pt x="326" y="826" on="1"/>
        <pt x="389" y="719" on="1"/>
        <pt x="397" y="707" on="0"/>
      </contour>
      <contour>
        <pt x="409" y="643" on="1"/>
        <pt x="472" y="643" on="1"/>
        <pt x="490" y="643" on="0"/>
        <pt x="490" y="627" on="1"/>
        <pt x="490" y="155" on="1"/>
        <pt x="490" y="82" on="0"/>
        <pt x="407" y="0" on="0"/>
        <pt x="334" y="0" on="1"/>
        <pt x="223" y="0" on="1"/>
        <pt x="150" y="0" on="0"/>
        <pt x="68" y="82" on="0"/>
        <pt x="68" y="155" on="1"/>
        <pt x="68" y="626" on="1"/>
        <pt x="68" y="643" on="0"/>
        <pt x="85" y="643" on="1"/>
        <pt x="148" y="643" on="1"/>
        <pt x="165" y="643" on="0"/>
        <pt x="165" y="626" on="1"/>
        <pt x="165" y="159" on="1"/>
        <pt x="165" y="85" on="0"/>
        <pt x="237" y="85" on="1"/>
        <pt x="319" y="85" on="1"/>
        <pt x="392" y="85" on="0"/>
        <pt x="392" y="159" on="1"/>
        <pt x="392" y="626" on="1"/>
        <pt x="392" y="643" on="0"/>
      </contour>
    </TTGlyph>
    <TTGlyph name="Udieresis" xMin="68" yMin="0" xMax="490" yMax="836">
      <contour>
        <pt x="143" y="724" on="1"/>
        <pt x="143" y="819" on="1"/>
        <pt x="143" y="836" on="0"/>
        <pt x="159" y="836" on="1"/>
        <pt x="219" y="836" on="1"/>
        <pt x="234" y="836" on="0"/>
        <pt x="234" y="820" on="1"/>
        <pt x="234" y="724" on="1"/>
        <pt x="234" y="707" on="0"/>
        <pt x="219" y="707" on="1"/>
        <pt x="159" y="707" on="1"/>
        <pt x="143" y="707" on="0"/>
      </contour>
      <contour>
        <pt x="323" y="724" on="1"/>
        <pt x="323" y="819" on="1"/>
        <pt x="323" y="836" on="0"/>
        <pt x="338" y="836" on="1"/>
        <pt x="399" y="836" on="1"/>
        <pt x="414" y="836" on="0"/>
        <pt x="414" y="820" on="1"/>
        <pt x="414" y="724" on="1"/>
        <pt x="414" y="707" on="0"/>
        <pt x="399" y="707" on="1"/>
        <pt x="338" y="707" on="1"/>
        <pt x="323" y="707" on="0"/>
      </contour>
      <contour>
        <pt x="409" y="643" on="1"/>
        <pt x="472" y="643" on="1"/>
        <pt x="490" y="643" on="0"/>
        <pt x="490" y="627" on="1"/>
        <pt x="490" y="155" on="1"/>
        <pt x="490" y="82" on="0"/>
        <pt x="407" y="0" on="0"/>
        <pt x="334" y="0" on="1"/>
        <pt x="223" y="0" on="1"/>
        <pt x="150" y="0" on="0"/>
        <pt x="68" y="82" on="0"/>
        <pt x="68" y="155" on="1"/>
        <pt x="68" y="626" on="1"/>
        <pt x="68" y="643" on="0"/>
        <pt x="85" y="643" on="1"/>
        <pt x="148" y="643" on="1"/>
        <pt x="165" y="643" on="0"/>
        <pt x="165" y="626" on="1"/>
        <pt x="165" y="159" on="1"/>
        <pt x="165" y="85" on="0"/>
        <pt x="237" y="85" on="1"/>
        <pt x="319" y="85" on="1"/>
        <pt x="392" y="85" on="0"/>
        <pt x="392" y="159" on="1"/>
        <pt x="392" y="626" on="1"/>
        <pt x="392" y="643" on="0"/>
      </contour>
    </TTGlyph>
    <TTGlyph name="Ugrave" xMin="68" yMin="0" xMax="490" yMax="836">
      <contour>
        <pt x="306" y="707" on="1"/>
        <pt x="258" y="707" on="1"/>
        <pt x="244" y="707" on="0"/>
        <pt x="235" y="719" on="1"/>
        <pt x="151" y="819" on="1"/>
        <pt x="145" y="826" on="0"/>
        <pt x="150" y="836" on="0"/>
        <pt x="159" y="836" on="1"/>
        <pt x="237" y="836" on="1"/>
        <pt x="254" y="836" on="0"/>
        <pt x="263" y="820" on="1"/>
        <pt x="314" y="724" on="1"/>
        <pt x="322" y="707" on="0"/>
      </contour>
      <contour>
        <pt x="409" y="643" on="1"/>
        <pt x="472" y="643" on="1"/>
        <pt x="490" y="643" on="0"/>
        <pt x="490" y="627" on="1"/>
        <pt x="490" y="155" on="1"/>
        <pt x="490" y="82" on="0"/>
        <pt x="407" y="0" on="0"/>
        <pt x="334" y="0" on="1"/>
        <pt x="223" y="0" on="1"/>
        <pt x="150" y="0" on="0"/>
        <pt x="68" y="82" on="0"/>
        <pt x="68" y="155" on="1"/>
        <pt x="68" y="626" on="1"/>
        <pt x="68" y="643" on="0"/>
        <pt x="85" y="643" on="1"/>
        <pt x="148" y="643" on="1"/>
        <pt x="165" y="643" on="0"/>
        <pt x="165" y="626" on="1"/>
        <pt x="165" y="159" on="1"/>
        <pt x="165" y="85" on="0"/>
        <pt x="237" y="85" on="1"/>
        <pt x="319" y="85" on="1"/>
        <pt x="392" y="85" on="0"/>
        <pt x="392" y="159" on="1"/>
        <pt x="392" y="626" on="1"/>
        <pt x="392" y="643" on="0"/>
      </contour>
    </TTGlyph>
    <TTGlyph name="Uhungarumlaut" xMin="68" yMin="0" xMax="490" yMax="836">
      <contour>
        <pt x="251" y="836" on="1"/>
        <pt x="303" y="836" on="1"/>
        <pt x="321" y="836" on="0"/>
        <pt x="310" y="819" on="1"/>
        <pt x="236" y="719" on="1"/>
        <pt x="227" y="707" on="0"/>
        <pt x="214" y="707" on="1"/>
        <pt x="182" y="707" on="1"/>
        <pt x="167" y="707" on="0"/>
        <pt x="174" y="724" on="1"/>
        <pt x="225" y="820" on="1"/>
        <pt x="234" y="836" on="0"/>
      </contour>
      <contour>
        <pt x="392" y="836" on="1"/>
        <pt x="444" y="836" on="1"/>
        <pt x="463" y="836" on="0"/>
        <pt x="452" y="819" on="1"/>
        <pt x="378" y="719" on="1"/>
        <pt x="369" y="707" on="0"/>
        <pt x="356" y="707" on="1"/>
        <pt x="324" y="707" on="1"/>
        <pt x="308" y="707" on="0"/>
        <pt x="316" y="724" on="1"/>
        <pt x="367" y="820" on="1"/>
        <pt x="374" y="836" on="0"/>
      </contour>
      <contour>
        <pt x="409" y="643" on="1"/>
        <pt x="472" y="643" on="1"/>
        <pt x="490" y="643" on="0"/>
        <pt x="490" y="627" on="1"/>
        <pt x="490" y="155" on="1"/>
        <pt x="490" y="82" on="0"/>
        <pt x="407" y="0" on="0"/>
        <pt x="334" y="0" on="1"/>
        <pt x="223" y="0" on="1"/>
        <pt x="150" y="0" on="0"/>
        <pt x="68" y="82" on="0"/>
        <pt x="68" y="155" on="1"/>
        <pt x="68" y="626" on="1"/>
        <pt x="68" y="643" on="0"/>
        <pt x="85" y="643" on="1"/>
        <pt x="148" y="643" on="1"/>
        <pt x="165" y="643" on="0"/>
        <pt x="165" y="626" on="1"/>
        <pt x="165" y="159" on="1"/>
        <pt x="165" y="85" on="0"/>
        <pt x="237" y="85" on="1"/>
        <pt x="319" y="85" on="1"/>
        <pt x="392" y="85" on="0"/>
        <pt x="392" y="159" on="1"/>
        <pt x="392" y="626" on="1"/>
        <pt x="392" y="643" on="0"/>
      </contour>
    </TTGlyph>
    <TTGlyph name="Umacron" xMin="68" yMin="0" xMax="490" yMax="809">
      <contour>
        <pt x="378" y="740" on="1"/>
        <pt x="179" y="740" on="1"/>
        <pt x="162" y="740" on="0"/>
        <pt x="162" y="757" on="1"/>
        <pt x="162" y="792" on="1"/>
        <pt x="162" y="809" on="0"/>
        <pt x="179" y="809" on="1"/>
        <pt x="378" y="809" on="1"/>
        <pt x="395" y="809" on="0"/>
        <pt x="395" y="792" on="1"/>
        <pt x="395" y="757" on="1"/>
        <pt x="395" y="740" on="0"/>
      </contour>
      <contour>
        <pt x="409" y="643" on="1"/>
        <pt x="472" y="643" on="1"/>
        <pt x="490" y="643" on="0"/>
        <pt x="490" y="627" on="1"/>
        <pt x="490" y="155" on="1"/>
        <pt x="490" y="82" on="0"/>
        <pt x="407" y="0" on="0"/>
        <pt x="334" y="0" on="1"/>
        <pt x="223" y="0" on="1"/>
        <pt x="150" y="0" on="0"/>
        <pt x="68" y="82" on="0"/>
        <pt x="68" y="155" on="1"/>
        <pt x="68" y="626" on="1"/>
        <pt x="68" y="643" on="0"/>
        <pt x="85" y="643" on="1"/>
        <pt x="148" y="643" on="1"/>
        <pt x="165" y="643" on="0"/>
        <pt x="165" y="626" on="1"/>
        <pt x="165" y="159" on="1"/>
        <pt x="165" y="85" on="0"/>
        <pt x="237" y="85" on="1"/>
        <pt x="319" y="85" on="1"/>
        <pt x="392" y="85" on="0"/>
        <pt x="392" y="159" on="1"/>
        <pt x="392" y="626" on="1"/>
        <pt x="392" y="643" on="0"/>
      </contour>
    </TTGlyph>
    <TTGlyph name="Uogonek" xMin="68" yMin="-116" xMax="490" yMax="643">
      <contour>
        <pt x="409" y="643" on="1"/>
        <pt x="472" y="643" on="1"/>
        <pt x="490" y="643" on="0"/>
        <pt x="490" y="627" on="1"/>
        <pt x="490" y="155" on="1"/>
        <pt x="490" y="82" on="0"/>
        <pt x="407" y="0" on="0"/>
        <pt x="334" y="0" on="1"/>
        <pt x="321" y="0" on="1"/>
        <pt x="278" y="-62" on="1"/>
        <pt x="318" y="-62" on="1"/>
        <pt x="332" y="-62" on="0"/>
        <pt x="342" y="-69" on="0"/>
        <pt x="342" y="-79" on="1"/>
        <pt x="342" y="-96" on="0"/>
        <pt x="284" y="-116" on="0"/>
        <pt x="228" y="-116" on="0"/>
        <pt x="212" y="-85" on="0"/>
        <pt x="226" y="-67" on="1"/>
        <pt x="270" y="0" on="1"/>
        <pt x="223" y="0" on="1"/>
        <pt x="150" y="0" on="0"/>
        <pt x="68" y="82" on="0"/>
        <pt x="68" y="155" on="1"/>
        <pt x="68" y="626" on="1"/>
        <pt x="68" y="643" on="0"/>
        <pt x="85" y="643" on="1"/>
        <pt x="148" y="643" on="1"/>
        <pt x="165" y="643" on="0"/>
        <pt x="165" y="626" on="1"/>
        <pt x="165" y="159" on="1"/>
        <pt x="165" y="85" on="0"/>
        <pt x="237" y="85" on="1"/>
        <pt x="319" y="85" on="1"/>
        <pt x="392" y="85" on="0"/>
        <pt x="392" y="159" on="1"/>
        <pt x="392" y="626" on="1"/>
        <pt x="392" y="643" on="0"/>
      </contour>
    </TTGlyph>
    <TTGlyph name="Uring" xMin="68" yMin="0" xMax="490" yMax="873">
      <contour>
        <pt x="299" y="700" on="1"/>
        <pt x="256" y="700" on="1"/>
        <pt x="196" y="700" on="0"/>
        <pt x="196" y="762" on="1"/>
        <pt x="196" y="813" on="1"/>
        <pt x="196" y="842" on="0"/>
        <pt x="228" y="873" on="0"/>
        <pt x="256" y="873" on="1"/>
        <pt x="299" y="873" on="1"/>
        <pt x="328" y="873" on="0"/>
        <pt x="361" y="841" on="0"/>
        <pt x="361" y="813" on="1"/>
        <pt x="361" y="762" on="1"/>
        <pt x="361" y="732" on="0"/>
        <pt x="328" y="700" on="0"/>
      </contour>
      <contour>
        <pt x="270" y="740" on="1"/>
        <pt x="285" y="740" on="1"/>
        <pt x="317" y="740" on="0"/>
        <pt x="317" y="774" on="1"/>
        <pt x="317" y="798" on="1"/>
        <pt x="317" y="833" on="0"/>
        <pt x="285" y="833" on="1"/>
        <pt x="271" y="833" on="1"/>
        <pt x="239" y="833" on="0"/>
        <pt x="239" y="798" on="1"/>
        <pt x="239" y="774" on="1"/>
        <pt x="239" y="740" on="0"/>
      </contour>
      <contour>
        <pt x="409" y="643" on="1"/>
        <pt x="472" y="643" on="1"/>
        <pt x="490" y="643" on="0"/>
        <pt x="490" y="627" on="1"/>
        <pt x="490" y="155" on="1"/>
        <pt x="490" y="82" on="0"/>
        <pt x="407" y="0" on="0"/>
        <pt x="334" y="0" on="1"/>
        <pt x="223" y="0" on="1"/>
        <pt x="150" y="0" on="0"/>
        <pt x="68" y="82" on="0"/>
        <pt x="68" y="155" on="1"/>
        <pt x="68" y="626" on="1"/>
        <pt x="68" y="643" on="0"/>
        <pt x="85" y="643" on="1"/>
        <pt x="148" y="643" on="1"/>
        <pt x="165" y="643" on="0"/>
        <pt x="165" y="626" on="1"/>
        <pt x="165" y="159" on="1"/>
        <pt x="165" y="85" on="0"/>
        <pt x="237" y="85" on="1"/>
        <pt x="319" y="85" on="1"/>
        <pt x="392" y="85" on="0"/>
        <pt x="392" y="159" on="1"/>
        <pt x="392" y="626" on="1"/>
        <pt x="392" y="643" on="0"/>
      </contour>
    </TTGlyph>
    <TTGlyph name="Utilde" xMin="68" yMin="0" xMax="490" yMax="832">
      <contour>
        <pt x="231" y="702" on="1"/>
        <pt x="164" y="702" on="0"/>
        <pt x="164" y="779" on="1"/>
        <pt x="164" y="818" on="1"/>
        <pt x="164" y="828" on="0"/>
        <pt x="174" y="828" on="1"/>
        <pt x="203" y="828" on="1"/>
        <pt x="213" y="828" on="0"/>
        <pt x="213" y="818" on="1"/>
        <pt x="213" y="798" on="1"/>
        <pt x="213" y="773" on="0"/>
        <pt x="222" y="755" on="0"/>
        <pt x="241" y="755" on="0"/>
        <pt x="253" y="769" on="0"/>
        <pt x="281" y="816" on="0"/>
        <pt x="307" y="832" on="0"/>
        <pt x="327" y="832" on="1"/>
        <pt x="393" y="832" on="0"/>
        <pt x="393" y="755" on="1"/>
        <pt x="393" y="717" on="1"/>
        <pt x="393" y="705" on="0"/>
        <pt x="384" y="705" on="1"/>
        <pt x="355" y="705" on="1"/>
        <pt x="345" y="705" on="0"/>
        <pt x="345" y="717" on="1"/>
        <pt x="345" y="736" on="1"/>
        <pt x="345" y="762" on="0"/>
        <pt x="336" y="779" on="0"/>
        <pt x="313" y="779" on="0"/>
        <pt x="298" y="753" on="1"/>
        <pt x="278" y="719" on="0"/>
        <pt x="251" y="702" on="0"/>
      </contour>
      <contour>
        <pt x="409" y="643" on="1"/>
        <pt x="472" y="643" on="1"/>
        <pt x="490" y="643" on="0"/>
        <pt x="490" y="627" on="1"/>
        <pt x="490" y="155" on="1"/>
        <pt x="490" y="82" on="0"/>
        <pt x="407" y="0" on="0"/>
        <pt x="334" y="0" on="1"/>
        <pt x="223" y="0" on="1"/>
        <pt x="150" y="0" on="0"/>
        <pt x="68" y="82" on="0"/>
        <pt x="68" y="155" on="1"/>
        <pt x="68" y="626" on="1"/>
        <pt x="68" y="643" on="0"/>
        <pt x="85" y="643" on="1"/>
        <pt x="148" y="643" on="1"/>
        <pt x="165" y="643" on="0"/>
        <pt x="165" y="626" on="1"/>
        <pt x="165" y="159" on="1"/>
        <pt x="165" y="85" on="0"/>
        <pt x="237" y="85" on="1"/>
        <pt x="319" y="85" on="1"/>
        <pt x="392" y="85" on="0"/>
        <pt x="392" y="159" on="1"/>
        <pt x="392" y="626" on="1"/>
        <pt x="392" y="643" on="0"/>
      </contour>
    </TTGlyph>
    <TTGlyph name="V" xMin="21" yMin="0" xMax="493" yMax="643">
      <contour>
        <pt x="307" y="0" on="1"/>
        <pt x="208" y="0" on="1"/>
        <pt x="191" y="0" on="0"/>
        <pt x="187" y="17" on="1"/>
        <pt x="21" y="624" on="1"/>
        <pt x="15" y="643" on="0"/>
        <pt x="36" y="643" on="1"/>
        <pt x="107" y="643" on="1"/>
        <pt x="123" y="643" on="0"/>
        <pt x="126" y="626" on="1"/>
        <pt x="255" y="104" on="1"/>
        <pt x="259" y="104" on="1"/>
        <pt x="387" y="626" on="1"/>
        <pt x="391" y="643" on="0"/>
        <pt x="407" y="643" on="1"/>
        <pt x="477" y="643" on="1"/>
        <pt x="498" y="643" on="0"/>
        <pt x="493" y="624" on="1"/>
        <pt x="326" y="17" on="1"/>
        <pt x="322" y="0" on="0"/>
      </contour>
    </TTGlyph>
    <TTGlyph name="W" xMin="21" yMin="0" xMax="781" yMax="643">
      <contour>
        <pt x="267" y="0" on="1"/>
        <pt x="161" y="0" on="1"/>
        <pt x="143" y="0" on="0"/>
        <pt x="140" y="17" on="1"/>
        <pt x="21" y="626" on="1"/>
        <pt x="19" y="643" on="0"/>
        <pt x="38" y="643" on="1"/>
        <pt x="115" y="643" on="1"/>
        <pt x="134" y="643" on="0"/>
        <pt x="135" y="626" on="1"/>
        <pt x="216" y="102" on="1"/>
        <pt x="222" y="102" on="1"/>
        <pt x="340" y="628" on="1"/>
        <pt x="342" y="643" on="0"/>
        <pt x="358" y="643" on="1"/>
        <pt x="442" y="643" on="1"/>
        <pt x="458" y="643" on="0"/>
        <pt x="461" y="628" on="1"/>
        <pt x="580" y="102" on="1"/>
        <pt x="586" y="102" on="1"/>
        <pt x="667" y="625" on="1"/>
        <pt x="668" y="643" on="0"/>
        <pt x="687" y="643" on="1"/>
        <pt x="764" y="643" on="1"/>
        <pt x="784" y="643" on="0"/>
        <pt x="781" y="625" on="1"/>
        <pt x="662" y="17" on="1"/>
        <pt x="659" y="0" on="0"/>
        <pt x="642" y="0" on="1"/>
        <pt x="536" y="0" on="1"/>
        <pt x="519" y="0" on="0"/>
        <pt x="516" y="17" on="1"/>
        <pt x="403" y="523" on="1"/>
        <pt x="399" y="523" on="1"/>
        <pt x="286" y="17" on="1"/>
        <pt x="283" y="0" on="0"/>
      </contour>
    </TTGlyph>
    <TTGlyph name="Wacute" xMin="21" yMin="0" xMax="781" yMax="836">
      <contour>
        <pt x="451" y="836" on="1"/>
        <pt x="529" y="836" on="1"/>
        <pt x="537" y="836" on="0"/>
        <pt x="542" y="826" on="0"/>
        <pt x="536" y="819" on="1"/>
        <pt x="452" y="719" on="1"/>
        <pt x="444" y="707" on="0"/>
        <pt x="430" y="707" on="1"/>
        <pt x="381" y="707" on="1"/>
        <pt x="364" y="707" on="0"/>
        <pt x="373" y="724" on="1"/>
        <pt x="425" y="820" on="1"/>
        <pt x="433" y="836" on="0"/>
      </contour>
      <contour>
        <pt x="267" y="0" on="1"/>
        <pt x="161" y="0" on="1"/>
        <pt x="143" y="0" on="0"/>
        <pt x="140" y="17" on="1"/>
        <pt x="21" y="626" on="1"/>
        <pt x="19" y="643" on="0"/>
        <pt x="38" y="643" on="1"/>
        <pt x="115" y="643" on="1"/>
        <pt x="134" y="643" on="0"/>
        <pt x="135" y="626" on="1"/>
        <pt x="216" y="102" on="1"/>
        <pt x="222" y="102" on="1"/>
        <pt x="340" y="628" on="1"/>
        <pt x="342" y="643" on="0"/>
        <pt x="358" y="643" on="1"/>
        <pt x="442" y="643" on="1"/>
        <pt x="458" y="643" on="0"/>
        <pt x="461" y="628" on="1"/>
        <pt x="580" y="102" on="1"/>
        <pt x="586" y="102" on="1"/>
        <pt x="667" y="625" on="1"/>
        <pt x="668" y="643" on="0"/>
        <pt x="687" y="643" on="1"/>
        <pt x="764" y="643" on="1"/>
        <pt x="784" y="643" on="0"/>
        <pt x="781" y="625" on="1"/>
        <pt x="662" y="17" on="1"/>
        <pt x="659" y="0" on="0"/>
        <pt x="642" y="0" on="1"/>
        <pt x="536" y="0" on="1"/>
        <pt x="519" y="0" on="0"/>
        <pt x="516" y="17" on="1"/>
        <pt x="403" y="523" on="1"/>
        <pt x="399" y="523" on="1"/>
        <pt x="286" y="17" on="1"/>
        <pt x="283" y="0" on="0"/>
      </contour>
    </TTGlyph>
    <TTGlyph name="Wcircumflex" xMin="21" yMin="0" xMax="781" yMax="836">
      <contour>
        <pt x="506" y="707" on="1"/>
        <pt x="460" y="707" on="1"/>
        <pt x="449" y="707" on="0"/>
        <pt x="445" y="717" on="1"/>
        <pt x="404" y="795" on="1"/>
        <pt x="364" y="717" on="1"/>
        <pt x="360" y="707" on="0"/>
        <pt x="348" y="707" on="1"/>
        <pt x="303" y="707" on="1"/>
        <pt x="288" y="707" on="0"/>
        <pt x="296" y="719" on="1"/>
        <pt x="359" y="826" on="1"/>
        <pt x="366" y="836" on="0"/>
        <pt x="380" y="836" on="1"/>
        <pt x="429" y="836" on="1"/>
        <pt x="443" y="836" on="0"/>
        <pt x="450" y="826" on="1"/>
        <pt x="512" y="719" on="1"/>
        <pt x="520" y="707" on="0"/>
      </contour>
      <contour>
        <pt x="267" y="0" on="1"/>
        <pt x="161" y="0" on="1"/>
        <pt x="143" y="0" on="0"/>
        <pt x="140" y="17" on="1"/>
        <pt x="21" y="626" on="1"/>
        <pt x="19" y="643" on="0"/>
        <pt x="38" y="643" on="1"/>
        <pt x="115" y="643" on="1"/>
        <pt x="134" y="643" on="0"/>
        <pt x="135" y="626" on="1"/>
        <pt x="216" y="102" on="1"/>
        <pt x="222" y="102" on="1"/>
        <pt x="340" y="628" on="1"/>
        <pt x="342" y="643" on="0"/>
        <pt x="358" y="643" on="1"/>
        <pt x="442" y="643" on="1"/>
        <pt x="458" y="643" on="0"/>
        <pt x="461" y="628" on="1"/>
        <pt x="580" y="102" on="1"/>
        <pt x="586" y="102" on="1"/>
        <pt x="667" y="625" on="1"/>
        <pt x="668" y="643" on="0"/>
        <pt x="687" y="643" on="1"/>
        <pt x="764" y="643" on="1"/>
        <pt x="784" y="643" on="0"/>
        <pt x="781" y="625" on="1"/>
        <pt x="662" y="17" on="1"/>
        <pt x="659" y="0" on="0"/>
        <pt x="642" y="0" on="1"/>
        <pt x="536" y="0" on="1"/>
        <pt x="519" y="0" on="0"/>
        <pt x="516" y="17" on="1"/>
        <pt x="403" y="523" on="1"/>
        <pt x="399" y="523" on="1"/>
        <pt x="286" y="17" on="1"/>
        <pt x="283" y="0" on="0"/>
      </contour>
    </TTGlyph>
    <TTGlyph name="Wdieresis" xMin="21" yMin="0" xMax="781" yMax="836">
      <contour>
        <pt x="265" y="724" on="1"/>
        <pt x="265" y="819" on="1"/>
        <pt x="265" y="836" on="0"/>
        <pt x="281" y="836" on="1"/>
        <pt x="341" y="836" on="1"/>
        <pt x="357" y="836" on="0"/>
        <pt x="357" y="820" on="1"/>
        <pt x="357" y="724" on="1"/>
        <pt x="357" y="707" on="0"/>
        <pt x="341" y="707" on="1"/>
        <pt x="281" y="707" on="1"/>
        <pt x="265" y="707" on="0"/>
      </contour>
      <contour>
        <pt x="445" y="724" on="1"/>
        <pt x="445" y="819" on="1"/>
        <pt x="445" y="836" on="0"/>
        <pt x="461" y="836" on="1"/>
        <pt x="521" y="836" on="1"/>
        <pt x="537" y="836" on="0"/>
        <pt x="537" y="820" on="1"/>
        <pt x="537" y="724" on="1"/>
        <pt x="537" y="707" on="0"/>
        <pt x="521" y="707" on="1"/>
        <pt x="461" y="707" on="1"/>
        <pt x="445" y="707" on="0"/>
      </contour>
      <contour>
        <pt x="267" y="0" on="1"/>
        <pt x="161" y="0" on="1"/>
        <pt x="143" y="0" on="0"/>
        <pt x="140" y="17" on="1"/>
        <pt x="21" y="626" on="1"/>
        <pt x="19" y="643" on="0"/>
        <pt x="38" y="643" on="1"/>
        <pt x="115" y="643" on="1"/>
        <pt x="134" y="643" on="0"/>
        <pt x="135" y="626" on="1"/>
        <pt x="216" y="102" on="1"/>
        <pt x="222" y="102" on="1"/>
        <pt x="340" y="628" on="1"/>
        <pt x="342" y="643" on="0"/>
        <pt x="358" y="643" on="1"/>
        <pt x="442" y="643" on="1"/>
        <pt x="458" y="643" on="0"/>
        <pt x="461" y="628" on="1"/>
        <pt x="580" y="102" on="1"/>
        <pt x="586" y="102" on="1"/>
        <pt x="667" y="625" on="1"/>
        <pt x="668" y="643" on="0"/>
        <pt x="687" y="643" on="1"/>
        <pt x="764" y="643" on="1"/>
        <pt x="784" y="643" on="0"/>
        <pt x="781" y="625" on="1"/>
        <pt x="662" y="17" on="1"/>
        <pt x="659" y="0" on="0"/>
        <pt x="642" y="0" on="1"/>
        <pt x="536" y="0" on="1"/>
        <pt x="519" y="0" on="0"/>
        <pt x="516" y="17" on="1"/>
        <pt x="403" y="523" on="1"/>
        <pt x="399" y="523" on="1"/>
        <pt x="286" y="17" on="1"/>
        <pt x="283" y="0" on="0"/>
      </contour>
    </TTGlyph>
    <TTGlyph name="Wgrave" xMin="21" yMin="0" xMax="781" yMax="836">
      <contour>
        <pt x="424" y="707" on="1"/>
        <pt x="376" y="707" on="1"/>
        <pt x="362" y="707" on="0"/>
        <pt x="353" y="719" on="1"/>
        <pt x="268" y="819" on="1"/>
        <pt x="263" y="826" on="0"/>
        <pt x="269" y="836" on="0"/>
        <pt x="277" y="836" on="1"/>
        <pt x="355" y="836" on="1"/>
        <pt x="373" y="836" on="0"/>
        <pt x="380" y="820" on="1"/>
        <pt x="432" y="724" on="1"/>
        <pt x="440" y="707" on="0"/>
      </contour>
      <contour>
        <pt x="267" y="0" on="1"/>
        <pt x="161" y="0" on="1"/>
        <pt x="143" y="0" on="0"/>
        <pt x="140" y="17" on="1"/>
        <pt x="21" y="626" on="1"/>
        <pt x="19" y="643" on="0"/>
        <pt x="38" y="643" on="1"/>
        <pt x="115" y="643" on="1"/>
        <pt x="134" y="643" on="0"/>
        <pt x="135" y="626" on="1"/>
        <pt x="216" y="102" on="1"/>
        <pt x="222" y="102" on="1"/>
        <pt x="340" y="628" on="1"/>
        <pt x="342" y="643" on="0"/>
        <pt x="358" y="643" on="1"/>
        <pt x="442" y="643" on="1"/>
        <pt x="458" y="643" on="0"/>
        <pt x="461" y="628" on="1"/>
        <pt x="580" y="102" on="1"/>
        <pt x="586" y="102" on="1"/>
        <pt x="667" y="625" on="1"/>
        <pt x="668" y="643" on="0"/>
        <pt x="687" y="643" on="1"/>
        <pt x="764" y="643" on="1"/>
        <pt x="784" y="643" on="0"/>
        <pt x="781" y="625" on="1"/>
        <pt x="662" y="17" on="1"/>
        <pt x="659" y="0" on="0"/>
        <pt x="642" y="0" on="1"/>
        <pt x="536" y="0" on="1"/>
        <pt x="519" y="0" on="0"/>
        <pt x="516" y="17" on="1"/>
        <pt x="403" y="523" on="1"/>
        <pt x="399" y="523" on="1"/>
        <pt x="286" y="17" on="1"/>
        <pt x="283" y="0" on="0"/>
      </contour>
    </TTGlyph>
    <TTGlyph name="X" xMin="28" yMin="0" xMax="498" yMax="643">
      <contour>
        <pt x="114" y="0" on="1"/>
        <pt x="40" y="0" on="1"/>
        <pt x="32" y="0" on="0"/>
        <pt x="25" y="10" on="0"/>
        <pt x="29" y="18" on="1"/>
        <pt x="194" y="333" on="1"/>
        <pt x="36" y="625" on="1"/>
        <pt x="32" y="632" on="0"/>
        <pt x="39" y="643" on="0"/>
        <pt x="47" y="643" on="1"/>
        <pt x="118" y="643" on="1"/>
        <pt x="138" y="643" on="0"/>
        <pt x="146" y="626" on="1"/>
        <pt x="261" y="394" on="1"/>
        <pt x="265" y="394" on="1"/>
        <pt x="380" y="626" on="1"/>
        <pt x="389" y="643" on="0"/>
        <pt x="406" y="643" on="1"/>
        <pt x="480" y="643" on="1"/>
        <pt x="488" y="643" on="0"/>
        <pt x="495" y="631" on="0"/>
        <pt x="492" y="624" on="1"/>
        <pt x="332" y="333" on="1"/>
        <pt x="497" y="19" on="1"/>
        <pt x="501" y="11" on="0"/>
        <pt x="495" y="0" on="0"/>
        <pt x="486" y="0" on="1"/>
        <pt x="411" y="0" on="1"/>
        <pt x="395" y="0" on="0"/>
        <pt x="388" y="16" on="1"/>
        <pt x="265" y="260" on="1"/>
        <pt x="261" y="260" on="1"/>
        <pt x="138" y="16" on="1"/>
        <pt x="131" y="0" on="0"/>
      </contour>
    </TTGlyph>
    <TTGlyph name="Y" xMin="18" yMin="0" xMax="491" yMax="643">
      <contour>
        <pt x="286" y="0" on="1"/>
        <pt x="222" y="0" on="1"/>
        <pt x="205" y="0" on="0"/>
        <pt x="205" y="17" on="1"/>
        <pt x="205" y="238" on="1"/>
        <pt x="18" y="625" on="1"/>
        <pt x="14" y="633" on="0"/>
        <pt x="22" y="643" on="0"/>
        <pt x="29" y="643" on="1"/>
        <pt x="109" y="643" on="1"/>
        <pt x="122" y="643" on="0"/>
        <pt x="129" y="626" on="1"/>
        <pt x="252" y="351" on="1"/>
        <pt x="258" y="351" on="1"/>
        <pt x="379" y="626" on="1"/>
        <pt x="385" y="643" on="0"/>
        <pt x="399" y="643" on="1"/>
        <pt x="479" y="643" on="1"/>
        <pt x="487" y="643" on="0"/>
        <pt x="494" y="633" on="0"/>
        <pt x="490" y="625" on="1"/>
        <pt x="303" y="238" on="1"/>
        <pt x="303" y="17" on="1"/>
        <pt x="303" y="0" on="0"/>
      </contour>
    </TTGlyph>
</ttFont>
